<svg width="630" height="571" viewBox="0 0 630 571" fill="none" xmlns="http://www.w3.org/2000/svg">
<g clip-path="url(#clip0_499_1796)">
<path d="M73.0944 408.375C92.0653 499.394 283.776 643.862 343.316 520.74C374.657 455.931 470.493 360.7 544.837 303.494C617.126 247.868 404.884 162.167 274.616 191.129C144.348 220.091 54.1235 317.356 73.0944 408.375Z" fill="#FFD9B8"/>
<path d="M580.982 281.106C578.354 286.715 573.811 292.046 567.389 296.987L566.598 295.89C581.495 284.428 585.89 271.428 579.661 257.26C568.285 231.381 522.098 204.026 459.125 185.875C393.001 166.814 322.565 162.317 270.708 173.847C128.391 205.488 29.4495 312.027 50.1529 411.346L48.8568 411.633C28.0007 311.578 127.399 204.309 270.43 172.509C322.486 160.936 393.16 165.439 459.482 184.556C522.821 202.814 569.334 230.456 580.867 256.693C584.589 265.161 584.595 273.396 580.982 281.106Z" fill="#FFD9B8"/>
<path d="M69.2896 568.923L68.252 568.279C68.5444 567.778 97.4534 518.02 101.953 505.625L103.087 506.063C98.5467 518.566 70.4812 566.872 69.2896 568.923Z" fill="#8B9D36"/>
<path d="M92.7228 479.533C93.9464 482.659 94.882 485.898 95.5171 489.206C96.1665 492.446 96.6433 495.72 96.9453 499.014C97.2554 502.306 97.3868 505.615 97.3387 508.923C97.3205 512.296 96.9902 515.659 96.3523 518.967C95.1228 515.842 94.1849 512.604 93.5515 509.295C92.901 506.055 92.4263 502.781 92.1298 499.486C91.8254 496.193 91.6963 492.885 91.7429 489.577C91.763 486.204 92.0911 482.841 92.7228 479.533ZM82.0533 494.6C83.5432 497.512 84.7575 500.567 85.6793 503.72C86.6087 506.803 87.3693 509.937 87.9574 513.108C88.5533 516.277 88.9731 519.479 89.2149 522.698C89.4909 525.981 89.4561 529.283 89.1109 532.559C87.6155 529.648 86.3989 526.594 85.4785 523.439C84.5485 520.357 83.79 517.222 83.2068 514.05C82.616 510.88 82.1984 507.677 81.9558 504.459C81.6814 501.177 81.714 497.875 82.0533 494.6ZM76.1745 512.14C77.4866 514.847 78.5212 517.689 79.2613 520.618C80.0085 523.471 80.5853 526.369 80.9883 529.296C81.3991 532.221 81.6325 535.17 81.6871 538.125C81.7719 541.152 81.5462 544.179 81.0137 547.157C79.6958 544.452 78.659 541.611 77.9205 538.68C77.1722 535.827 76.5975 532.929 76.1999 530.001C75.7943 527.075 75.5631 524.126 75.5077 521.171C75.4244 518.145 75.6479 515.118 76.1745 512.14ZM68.7713 529.649C70.0886 531.916 71.1393 534.338 71.9012 536.863C72.6633 539.302 73.257 541.793 73.6778 544.319C74.1067 546.843 74.3584 549.395 74.4309 551.957C74.5346 554.6 74.3289 557.246 73.8184 559.839C72.4955 557.573 71.4424 555.151 70.682 552.625C69.9189 550.187 69.3271 547.695 68.9113 545.169C68.4881 542.643 68.2386 540.091 68.1647 537.529C68.0628 534.887 68.2664 532.241 68.7713 529.649ZM62.2393 540.592C63.5832 542.558 64.6926 544.685 65.5434 546.926C66.3772 549.066 67.0712 551.262 67.6207 553.498C68.1652 555.717 68.584 557.967 68.8752 560.236C69.0111 561.38 69.1357 562.518 69.2184 563.677C69.2612 564.858 69.3831 566.036 69.5834 567.2C69.304 567.045 69.0356 566.87 68.7801 566.676L68.128 566.001C67.7123 565.541 67.3311 565.048 66.9875 564.528C66.3254 563.525 65.7391 562.471 65.2339 561.376C64.2525 559.246 63.4816 557.019 62.9327 554.729C62.3729 552.46 62.0104 550.144 61.8494 547.808C61.6541 545.396 61.7853 542.967 62.2393 540.592ZM99.0669 513.579C101.262 511.092 103.732 508.88 106.426 506.988C109.022 505.125 111.74 503.451 114.561 501.978C117.377 500.496 120.292 499.222 123.282 498.165C126.354 497.041 129.544 496.297 132.786 495.949C130.596 498.441 128.127 500.656 125.431 502.548C122.835 504.411 120.116 506.083 117.292 507.55C114.473 509.026 111.557 510.297 108.567 511.355C105.495 512.477 102.307 513.224 99.0669 513.579ZM91.838 527.524C94.6453 525.153 97.688 523.096 100.915 521.387C104.049 519.689 107.282 518.194 110.596 516.91C113.906 515.616 117.292 514.54 120.733 513.687C124.252 512.777 127.854 512.258 131.48 512.14C128.676 514.518 125.634 516.578 122.406 518.285C119.273 519.985 116.038 521.478 112.722 522.755C109.41 524.042 106.023 525.116 102.582 525.969C99.0639 526.878 95.4624 527.4 91.838 527.524ZM83.3285 543.025C85.828 540.734 88.5733 538.746 91.5108 537.1C94.3495 535.472 97.2918 534.044 100.317 532.826C103.339 531.599 106.439 530.588 109.596 529.802C112.837 528.955 116.162 528.5 119.504 528.444C117.009 530.742 114.264 532.733 111.325 534.377C108.487 536.007 105.543 537.432 102.515 538.644C99.4908 539.864 96.3899 540.872 93.2337 541.66C89.9932 542.504 86.6698 542.962 83.3285 543.025ZM76.6033 554.956C78.7807 553.008 81.1969 551.364 83.7897 550.067C86.2703 548.793 88.8447 547.724 91.4889 546.87C94.1304 546.007 96.8351 545.366 99.5766 544.953C102.423 544.489 105.317 544.419 108.182 544.744C106.008 546.698 103.592 548.345 100.998 549.64C98.5177 550.916 95.9419 551.982 93.2957 552.83C90.6523 553.686 87.9473 554.324 85.2061 554.739C82.3602 555.201 79.4678 555.274 76.6033 554.956Z" fill="#8B9D36"/>
<path d="M71.2949 565.661C73.6886 563.288 76.3392 561.208 79.1943 559.463C81.9506 557.739 84.8176 556.211 87.7753 554.89C90.7291 553.56 93.7688 552.444 96.8724 551.549C100.059 550.591 103.343 550.021 106.658 549.85C104.269 552.229 101.619 554.312 98.7619 556.056C96.0062 557.781 93.1378 559.307 90.1774 560.621C87.221 561.945 84.1805 563.058 81.0773 563.954C77.8908 564.91 74.6084 565.483 71.2949 565.661ZM101.416 507.642C100.975 504.311 101.054 500.928 101.652 497.623C102.178 494.507 103.006 491.453 104.124 488.508C105.231 485.559 106.627 482.734 108.29 480.078C110.023 477.23 112.193 474.691 114.714 472.561C115.166 475.893 115.09 479.278 114.49 482.585C113.965 485.701 113.133 488.754 112.007 491.696C110.892 494.642 109.492 497.464 107.83 500.121C106.096 502.967 103.931 505.506 101.416 507.642Z" fill="#8B9D36"/>
<path d="M66.1723 569.596L64.9639 569.575C65.0169 566.162 66.4517 485.676 82.0409 460.185L83.063 460.853C67.655 486.049 66.1852 568.764 66.1723 569.596Z" fill="#50661A"/>
<path d="M77.5426 471.682C78.022 467.948 78.1435 464.174 77.9052 460.415C77.7042 456.753 77.3106 453.105 76.7263 449.486C76.1616 445.882 75.3932 442.314 74.4895 438.775C73.587 435.213 72.447 431.786 71.2291 428.136C70.885 429.042 70.6238 429.98 70.4489 430.937C70.2538 431.876 70.1114 432.827 70.0224 433.783C69.8335 435.66 69.7515 437.547 69.7767 439.434C69.8301 443.145 70.1593 446.847 70.7613 450.507C71.3474 454.156 72.1762 457.758 73.242 461.289C74.296 464.908 75.7385 468.394 77.5426 471.682ZM96.7039 420.715C94.0245 423.383 91.7268 426.432 89.8801 429.77C88.0813 432.936 86.5511 436.257 85.3066 439.695C84.0509 443.129 83.0903 446.671 82.4361 450.279C81.7046 454.05 81.5028 457.91 81.8372 461.74C84.5243 459.078 86.8261 456.029 88.6716 452.689C90.472 449.524 91.9988 446.201 93.2344 442.76C94.4816 439.322 95.4385 435.78 96.0943 432.172C96.8235 428.402 97.0287 424.544 96.7039 420.715ZM109.551 441.227C106.372 443.865 103.369 446.722 100.564 449.779C97.7871 452.753 95.1369 455.792 92.5439 458.849L84.8401 467.98C83.5477 469.475 82.2418 470.949 80.862 472.344C79.4987 473.823 77.9108 475.062 76.161 476.012C77.2282 476.205 78.3219 476.176 79.3783 475.928C80.4437 475.708 81.483 475.371 82.478 474.921C84.4256 474.037 86.2763 472.941 87.9988 471.651C91.342 469.124 94.3933 466.208 97.0931 462.962C99.7785 459.782 102.196 456.371 104.32 452.766C106.506 449.151 108.262 445.277 109.551 441.227ZM109.551 461.74C105.632 463.761 101.894 466.136 98.3795 468.836C94.9021 471.462 91.5569 474.271 88.3568 477.249C85.1498 480.22 82.0944 483.361 79.2029 486.659C76.2336 489.986 73.5582 493.58 71.2084 497.399C75.1312 495.385 78.8717 493.012 82.3853 490.309C85.8634 487.684 89.2071 484.874 92.4027 481.89C95.6053 478.914 98.6586 475.771 101.551 472.474C104.518 469.146 107.195 465.554 109.551 461.74ZM108.244 477.834C104.296 479.732 100.519 481.988 96.9578 484.575C93.4353 487.09 90.0401 489.79 86.7857 492.664C83.5248 495.53 80.4112 498.57 77.4575 501.772C74.4254 505.001 71.6802 508.505 69.2551 512.241C73.2069 510.35 76.9862 508.096 80.5472 505.507C84.0702 502.993 87.4636 500.291 90.7135 497.412C93.9701 494.54 97.0818 491.498 100.036 488.297C103.067 485.067 105.814 481.566 108.244 477.834ZM107.373 495.038C103.445 496.563 99.6603 498.46 96.0683 500.702C92.5224 502.873 89.0914 505.238 85.7898 507.786C82.482 510.326 79.3103 513.05 76.2886 515.946C73.1846 518.865 70.3508 522.076 67.824 525.539C71.7558 524.02 75.542 522.126 79.1338 519.881C82.6801 517.711 86.1097 515.344 89.4075 512.79C92.7112 510.244 95.881 507.519 98.9034 504.624C102.006 501.704 104.841 498.495 107.373 495.038ZM108.244 507.519C104.134 509.227 100.176 511.302 96.4156 513.721C92.697 516.07 89.0955 518.612 85.625 521.336C82.148 524.051 78.8084 526.949 75.6194 530.019C72.351 533.109 69.3536 536.491 66.6621 540.127C70.7756 538.425 74.7354 536.352 78.4952 533.931C82.2145 531.583 85.8145 529.039 89.2811 526.309C92.754 523.588 96.0917 520.688 99.2814 517.62C102.548 514.529 105.547 511.149 108.244 507.519ZM111.292 519.212C107.013 521.268 102.881 523.636 98.9282 526.3C95.0028 528.895 91.2049 531.639 87.5021 534.502C83.7887 537.349 80.1781 540.317 76.6312 543.384C73.0477 546.425 69.6627 549.592 65.9552 552.728C68.3359 552.323 70.6605 551.623 72.8782 550.641C75.074 549.693 77.2198 548.626 79.3068 547.445C83.4118 545.073 87.3587 542.421 91.121 539.505C94.8698 536.603 98.4533 533.479 101.854 530.151C105.319 526.812 108.478 523.15 111.292 519.212ZM114.994 531.356C110.369 533.212 105.882 535.415 101.568 537.946C97.2803 540.412 93.1192 543.061 89.0538 545.849C84.9877 548.637 81.0197 551.567 77.1498 554.642C75.2154 556.183 73.2996 557.753 71.4022 559.35C69.5668 561.03 67.617 562.572 65.5677 563.964C66.8528 563.964 68.1285 563.738 69.3396 563.295C70.5552 562.923 71.7353 562.471 72.9025 562C75.2302 561.046 77.4794 559.954 79.6855 558.797C84.0646 556.468 88.3107 553.881 92.4028 551.049C96.4943 548.237 100.445 545.213 104.24 541.988C108.103 538.757 111.7 535.201 114.994 531.356ZM73.7896 485.969C73.5931 481.911 73.0118 477.883 72.0542 473.943C71.1502 470.074 70.0329 466.262 68.7076 462.526C67.3919 458.785 65.8671 455.127 64.1407 451.569C62.4122 447.919 60.3375 444.455 57.9472 441.227C58.1366 445.286 58.7151 449.315 59.6742 453.256C60.5777 457.125 61.6979 460.936 63.0291 464.67C64.351 468.409 65.8783 472.066 67.6037 475.624C69.3334 479.273 71.4052 482.738 73.7896 485.969ZM71.2084 500.011C70.4666 495.975 69.3474 492.023 67.8665 488.21C66.4479 484.46 64.8253 480.796 63.0067 477.235C61.197 473.669 59.1906 470.214 56.9974 466.886C54.7907 463.467 52.2646 460.28 49.4554 457.37C50.1904 461.408 51.3071 465.362 52.7896 469.175C54.2077 472.925 55.8329 476.588 57.6572 480.146C59.4727 483.709 61.4813 487.163 63.6735 490.492C65.8815 493.909 68.405 497.097 71.2084 500.011ZM69.2551 513.59C67.9828 509.494 66.3452 505.527 64.3634 501.743C62.4487 498.01 60.3412 494.387 58.0499 490.888C55.7668 487.383 53.2997 484.01 50.6597 480.784C48 477.472 45.0452 474.424 41.8342 471.682C43.1001 475.782 44.7356 479.75 46.7195 483.534C48.6329 487.267 50.743 490.89 53.04 494.384C55.3284 497.885 57.7976 501.257 60.4368 504.484C63.0972 507.794 66.0494 510.843 69.2551 513.59ZM67.824 528.572C65.8286 524.144 63.4864 519.891 60.8207 515.857C58.2177 511.845 55.4402 507.98 52.4884 504.263C49.5463 500.538 46.4338 496.956 43.1508 493.518C39.8546 490.015 36.2827 486.8 32.4718 483.906C34.4594 488.339 36.7997 492.594 39.4686 496.627C42.0716 500.639 44.851 504.502 47.8069 508.215C50.756 511.935 53.8707 515.515 57.1509 518.955C60.4489 522.456 64.0184 525.672 67.824 528.572ZM66.6622 544.108C64.2159 539.898 61.4423 535.901 58.3689 532.155C55.3601 528.425 52.1924 524.86 48.8659 521.461C45.5488 518.052 42.0764 514.805 38.4486 511.718C34.8015 508.568 30.9089 505.735 26.8104 503.246C29.2496 507.461 32.0215 511.46 35.0978 515.204C38.1066 518.934 41.276 522.497 44.6061 525.893C47.9297 529.295 51.4041 532.541 55.0293 535.629C58.678 538.776 62.5684 541.612 66.6622 544.108ZM65.9551 554.069C63.2416 550.437 60.2267 547.056 56.9447 543.965C53.7397 540.896 50.387 537.995 46.8996 535.274C43.4185 532.545 39.8043 530.002 36.0712 527.654C32.2972 525.233 28.3239 523.161 24.1973 521.461C26.9057 525.098 29.9192 528.482 33.203 531.572C36.4073 534.642 39.7616 537.54 43.2529 540.256C46.7383 542.98 50.3541 545.521 54.0866 547.869C57.8609 550.288 61.8321 552.362 65.9551 554.069ZM65.5677 562.39C62.3124 559.075 58.7909 556.051 55.0411 553.35C51.3602 550.647 47.5672 548.147 43.6623 545.849C39.7634 543.54 35.7554 541.428 31.6384 539.513C27.4839 537.541 23.1732 535.94 18.7539 534.729C22.0048 538.05 25.5254 541.077 29.277 543.776C32.9579 546.478 36.752 548.976 40.6594 551.269C44.5625 553.571 48.5718 555.681 52.6874 557.599C56.8421 559.569 61.151 561.171 65.5677 562.39ZM65.8684 567.787C61.9625 565.003 57.8437 562.553 53.5527 560.46C49.3272 558.353 45.019 556.476 40.6405 554.796C36.2626 553.114 31.8081 551.645 27.2771 550.389C22.7023 549.083 18.0309 548.17 13.3105 547.66C17.2121 550.451 21.3303 552.904 25.6232 554.994C29.8494 557.101 34.1544 558.986 38.5384 560.651C42.9193 562.325 47.371 563.802 51.9048 565.05C56.4797 566.352 61.1496 567.267 65.8684 567.787Z" fill="#50661A"/>
<path d="M63.7522 567.357C62.5606 565.306 34.4951 517.001 29.9551 504.496L31.0885 504.058C35.5884 516.455 64.4974 566.212 64.7898 566.713L63.7522 567.357Z" fill="#5E7C24"/>
<path d="M40.2585 478.164C39.0348 481.291 38.0993 484.529 37.4641 487.837C36.8147 491.077 36.3379 494.351 36.0359 497.645C35.7258 500.938 35.5945 504.246 35.6425 507.554C35.6608 510.927 35.9911 514.291 36.6289 517.599C37.8585 514.474 38.7963 511.235 39.4298 507.926C40.0803 504.686 40.5549 501.412 40.8515 498.118C41.1559 494.824 41.285 491.516 41.2384 488.208C41.2183 484.836 40.8902 481.473 40.2585 478.164ZM50.928 493.231C49.438 496.144 48.2237 499.198 47.302 502.351C46.3726 505.434 45.612 508.568 45.0239 511.739C44.428 514.909 44.0081 518.111 43.7664 521.33C43.4903 524.612 43.5251 527.914 43.8703 531.19C45.3658 528.28 46.5824 525.225 47.5028 522.071C48.4327 518.988 49.1912 515.853 49.7745 512.681C50.3652 509.511 50.7829 506.309 51.0255 503.09C51.2999 499.808 51.2673 496.506 50.928 493.231ZM56.8068 510.772C55.4946 513.479 54.4601 516.32 53.72 519.249C52.9728 522.102 52.396 525.001 51.993 527.927C51.5822 530.852 51.3488 533.801 51.2942 536.756C51.2093 539.783 51.435 542.811 51.9676 545.788C53.2854 543.083 54.3223 540.242 55.0608 537.312C55.8091 534.459 56.3837 531.56 56.7813 528.633C57.187 525.707 57.4182 522.758 57.4736 519.802C57.5569 516.776 57.3334 513.75 56.8068 510.772ZM64.21 528.28C62.8926 530.548 61.8419 532.969 61.0801 535.494C60.318 537.933 59.7243 540.424 59.3035 542.95C58.8746 545.474 58.6229 548.027 58.5504 550.588C58.4467 553.231 58.6524 555.878 59.1629 558.47C60.4858 556.205 61.5389 553.783 62.2992 551.257C63.0624 548.818 63.6542 546.326 64.07 543.8C64.4932 541.275 64.7427 538.722 64.8166 536.16C64.9185 533.518 64.7149 530.872 64.21 528.28ZM70.742 539.223C69.398 541.19 68.2887 543.317 67.4379 545.558C66.6041 547.698 65.9101 549.893 65.3606 552.129C64.8161 554.348 64.3972 556.598 64.106 558.868C63.9702 560.011 63.8455 561.149 63.7629 562.308C63.7201 563.49 63.5981 564.667 63.3978 565.831C63.6773 565.676 63.9457 565.501 64.2011 565.307L64.8532 564.633C65.2689 564.172 65.6502 563.679 65.9938 563.159C66.6559 562.157 67.2422 561.103 67.7474 560.007C68.7288 557.877 69.4997 555.65 70.0486 553.36C70.6083 551.091 70.9709 548.775 71.1318 546.44C71.3271 544.027 71.1959 541.598 70.742 539.223ZM33.9143 512.21C31.7191 509.724 29.249 507.512 26.5548 505.619C23.959 503.757 21.241 502.083 18.4204 500.61C15.6039 499.128 12.6895 497.854 9.69889 496.797C6.62708 495.672 3.43691 494.928 0.195312 494.58C2.38567 497.073 4.85474 499.288 7.55069 501.179C10.1459 503.042 12.8656 504.714 15.6893 506.181C18.5087 507.657 21.4241 508.928 24.4144 509.986C27.4859 511.109 30.6744 511.855 33.9143 512.21ZM41.1433 526.156C38.336 523.785 35.2933 521.728 32.0662 520.019C28.9321 518.321 25.699 516.825 22.3854 515.541C19.0754 514.247 15.6895 513.171 12.248 512.319C8.72977 511.408 5.12708 510.889 1.50174 510.772C4.305 513.149 7.34689 515.209 10.5753 516.917C13.7088 518.616 16.9431 520.109 20.259 521.387C23.5714 522.674 26.958 523.747 30.3993 524.601C33.9174 525.51 37.5188 526.031 41.1433 526.156ZM49.6528 541.657C47.1533 539.365 44.408 537.377 41.4705 535.731C38.6317 534.103 35.6895 532.675 32.6639 531.457C29.642 530.23 26.5418 529.22 23.3854 528.433C20.1445 527.587 16.8196 527.131 13.4772 527.076C15.9727 529.373 18.7174 531.364 21.6565 533.009C24.4947 534.638 27.4382 536.064 30.4661 537.275C33.4905 538.496 36.5914 539.503 39.7476 540.291C42.988 541.135 46.3114 541.594 49.6528 541.657ZM56.378 553.588C54.2006 551.639 51.7844 549.996 49.1915 548.699C46.711 547.425 44.1366 546.355 41.4924 545.502C38.8508 544.639 36.1461 543.998 33.4046 543.584C30.5579 543.12 27.6641 543.05 24.7994 543.375C26.9731 545.329 29.389 546.976 31.9835 548.272C34.4636 549.547 37.0393 550.614 39.6856 551.461C42.329 552.317 45.034 552.956 47.7752 553.37C50.6211 553.832 53.5135 553.905 56.378 553.588Z" fill="#5E7C24"/>
<path d="M61.6871 564.293C59.2934 561.92 56.6427 559.84 53.7877 558.094C51.0314 556.37 48.1644 554.843 45.2067 553.522C42.2529 552.192 39.2132 551.076 36.1095 550.181C32.9228 549.223 29.6389 548.653 26.3242 548.481C28.7134 550.86 31.3633 552.943 34.22 554.688C36.9757 556.413 39.8442 557.938 42.8045 559.253C45.761 560.576 48.8014 561.69 51.9047 562.586C55.0911 563.542 58.3736 564.115 61.6871 564.293ZM31.5656 506.274C32.0074 502.943 31.9278 499.56 31.33 496.255C30.8038 493.139 29.9756 490.085 28.8581 487.14C27.7511 484.191 26.3552 481.366 24.6922 478.71C22.959 475.861 20.7892 473.323 18.2677 471.193C17.8162 474.525 17.892 477.91 18.4922 481.217C19.0174 484.333 19.8492 487.386 20.9747 490.327C22.0903 493.273 23.4896 496.096 25.1518 498.753C26.8858 501.599 29.0514 504.138 31.5656 506.274Z" fill="#5E7C24"/>
<path d="M543.081 568.923L542.043 568.279C542.335 567.778 571.244 518.02 575.744 505.625L576.878 506.063C572.338 518.566 544.272 566.872 543.081 568.923Z" fill="#8B9D36"/>
<path d="M566.514 479.533C567.737 482.659 568.673 485.898 569.308 489.206C569.958 492.446 570.434 495.72 570.736 499.014C571.046 502.306 571.178 505.615 571.13 508.923C571.112 512.296 570.781 515.659 570.143 518.967C568.914 515.842 567.976 512.604 567.343 509.295C566.692 506.055 566.217 502.781 565.921 499.486C565.616 496.193 565.487 492.885 565.534 489.577C565.554 486.204 565.882 482.841 566.514 479.533ZM555.844 494.6C557.334 497.512 558.549 500.567 559.47 503.72C560.4 506.803 561.16 509.937 561.748 513.108C562.344 516.277 562.764 519.479 563.006 522.698C563.282 525.981 563.247 529.283 562.902 532.559C561.406 529.648 560.19 526.594 559.269 523.439C558.339 520.357 557.581 517.222 556.998 514.05C556.407 510.88 555.989 507.677 555.747 504.459C555.472 501.177 555.505 497.875 555.844 494.6ZM549.966 512.14C551.278 514.847 552.312 517.689 553.052 520.618C553.799 523.471 554.376 526.369 554.779 529.296C555.19 532.221 555.423 535.17 555.478 538.125C555.563 541.152 555.337 544.179 554.805 547.157C553.487 544.452 552.45 541.611 551.712 538.68C550.963 535.827 550.389 532.929 549.991 530.001C549.585 527.075 549.354 524.126 549.299 521.171C549.215 518.145 549.439 515.118 549.966 512.14ZM542.562 529.649C543.88 531.916 544.93 534.338 545.692 536.863C546.454 539.302 547.048 541.793 547.469 544.319C547.898 546.843 548.149 549.395 548.222 551.957C548.326 554.6 548.12 557.246 547.609 559.839C546.286 557.573 545.233 555.151 544.473 552.625C543.71 550.187 543.118 547.695 542.702 545.169C542.279 542.643 542.03 540.091 541.956 537.529C541.854 534.887 542.057 532.241 542.562 529.649ZM536.03 540.592C537.374 542.558 538.484 544.685 539.334 546.926C540.168 549.066 540.862 551.262 541.412 553.498C541.956 555.717 542.375 557.967 542.666 560.236C542.802 561.38 542.927 562.518 543.009 563.677C543.052 564.858 543.174 566.036 543.374 567.2C543.095 567.045 542.827 566.87 542.571 566.676L541.919 566.001C541.503 565.541 541.122 565.048 540.779 564.528C540.116 563.525 539.53 562.471 539.025 561.376C538.044 559.246 537.273 557.019 536.724 554.729C536.164 552.46 535.801 550.144 535.64 547.808C535.445 545.396 535.576 542.967 536.03 540.592ZM572.858 513.579C575.053 511.092 577.523 508.88 580.217 506.988C582.813 505.125 585.531 503.451 588.352 501.978C591.168 500.496 594.083 499.222 597.073 498.165C600.145 497.041 603.335 496.297 606.577 495.949C604.387 498.441 601.918 500.656 599.222 502.548C596.626 504.411 593.907 506.083 591.083 507.55C588.264 509.026 585.348 510.297 582.358 511.355C579.286 512.477 576.098 513.224 572.858 513.579ZM565.629 527.524C568.436 525.153 571.479 523.096 574.706 521.387C577.84 519.689 581.073 518.194 584.387 516.91C587.697 515.616 591.083 514.54 594.524 513.687C598.043 512.777 601.645 512.258 605.271 512.14C602.467 514.518 599.425 516.578 596.197 518.285C593.064 519.985 589.829 521.478 586.513 522.755C583.201 524.042 579.814 525.116 576.373 525.969C572.855 526.878 569.253 527.4 565.629 527.524ZM557.12 543.025C559.619 540.734 562.364 538.746 565.302 537.1C568.141 535.472 571.083 534.044 574.108 532.826C577.13 531.599 580.23 530.588 583.387 529.802C586.628 528.955 589.953 528.5 593.295 528.444C590.8 530.742 588.055 532.733 585.116 534.377C582.278 536.007 579.334 537.432 576.306 538.644C573.282 539.864 570.181 540.872 567.025 541.66C563.784 542.504 560.461 542.962 557.12 543.025ZM550.394 554.956C552.572 553.008 554.988 551.364 557.581 550.067C560.061 548.793 562.636 547.724 565.28 546.87C567.922 546.007 570.626 545.366 573.368 544.953C576.214 544.489 579.108 544.419 581.973 544.744C579.799 546.698 577.383 548.345 574.789 549.64C572.309 550.916 569.733 551.982 567.087 552.83C564.443 553.686 561.738 554.324 558.997 554.739C556.151 555.201 553.259 555.274 550.394 554.956Z" fill="#8B9D36"/>
<path d="M545.086 565.661C547.48 563.288 550.13 561.208 552.985 559.463C555.742 557.739 558.609 556.211 561.566 554.89C564.52 553.56 567.56 552.444 570.663 551.549C573.85 550.591 577.134 550.021 580.449 549.85C578.06 552.229 575.41 554.312 572.553 556.056C569.797 557.781 566.929 559.307 563.968 560.621C561.012 561.945 557.972 563.058 554.868 563.954C551.682 564.91 548.399 565.483 545.086 565.661ZM575.207 507.642C574.766 504.311 574.845 500.928 575.443 497.623C575.969 494.507 576.797 491.453 577.915 488.508C579.022 485.559 580.418 482.734 582.081 480.078C583.814 477.23 585.984 474.691 588.505 472.561C588.957 475.893 588.881 479.278 588.281 482.585C587.756 485.701 586.924 488.754 585.798 491.696C584.683 494.641 583.283 497.464 581.621 500.121C579.887 502.967 577.722 505.506 575.207 507.642Z" fill="#8B9D36"/>
<path d="M539.963 569.596L538.755 569.575C538.808 566.162 540.243 485.676 555.832 460.185L556.854 460.853C541.446 486.049 539.976 568.764 539.963 569.596Z" fill="#50661A"/>
<path d="M551.335 471.682C551.814 467.948 551.936 464.174 551.697 460.415C551.496 456.753 551.103 453.105 550.518 449.486C549.954 445.882 549.185 442.314 548.282 438.775C547.379 435.213 546.239 431.786 545.021 428.136C544.677 429.042 544.416 429.98 544.241 430.937C544.046 431.876 543.903 432.827 543.814 433.783C543.626 435.66 543.544 437.547 543.569 439.434C543.622 443.145 543.951 446.847 544.553 450.507C545.139 454.156 545.968 457.758 547.034 461.289C548.088 464.908 549.53 468.394 551.335 471.682ZM570.496 420.715C567.816 423.383 565.519 426.432 563.672 429.77C561.873 432.936 560.343 436.257 559.099 439.695C557.843 443.129 556.882 446.671 556.228 450.279C555.497 454.05 555.295 457.91 555.629 461.74C558.316 459.078 560.618 456.029 562.464 452.689C564.264 449.524 565.791 446.201 567.026 442.76C568.274 439.322 569.23 435.78 569.886 432.172C570.615 428.402 570.821 424.544 570.496 420.715ZM583.342 441.227C580.164 443.865 577.161 446.722 574.356 449.779C571.579 452.753 568.929 455.792 566.336 458.849L558.632 467.98C557.34 469.475 556.034 470.949 554.654 472.344C553.291 473.823 551.703 475.062 549.953 476.012C551.02 476.205 552.114 476.176 553.17 475.928C554.236 475.708 555.275 475.371 556.27 474.921C558.218 474.037 560.068 472.941 561.791 471.651C565.134 469.124 568.185 466.208 570.885 462.962C573.571 459.782 575.988 456.371 578.112 452.766C580.298 449.151 582.054 445.277 583.342 441.227ZM583.342 461.74C579.424 463.761 575.686 466.136 572.172 468.836C568.694 471.462 565.349 474.271 562.149 477.249C558.942 480.22 555.886 483.361 552.995 486.659C550.026 489.986 547.35 493.58 545 497.399C548.923 495.385 552.664 493.012 556.177 490.309C559.655 487.684 562.999 484.874 566.195 481.89C569.397 478.914 572.451 475.771 575.343 472.474C578.31 469.146 580.987 465.554 583.342 461.74ZM582.036 477.834C578.088 479.732 574.311 481.988 570.75 484.575C567.227 487.09 563.832 489.79 560.578 492.664C557.317 495.53 554.203 498.57 551.25 501.772C548.217 505.001 545.472 508.505 543.047 512.241C546.999 510.35 550.778 508.096 554.339 505.507C557.862 502.993 561.256 500.291 564.505 497.412C567.762 494.54 570.874 491.498 573.828 488.297C576.859 485.067 579.606 481.566 582.036 477.834ZM581.165 495.038C577.237 496.563 573.452 498.46 569.86 500.702C566.314 502.873 562.883 505.238 559.582 507.786C556.274 510.326 553.102 513.05 550.081 515.946C546.977 518.865 544.143 522.076 541.616 525.539C545.548 524.02 549.334 522.126 552.926 519.881C556.472 517.711 559.902 515.344 563.2 512.79C566.503 510.244 569.673 507.519 572.695 504.624C575.798 501.704 578.633 498.495 581.165 495.038ZM582.036 507.519C577.926 509.227 573.968 511.302 570.208 513.721C566.489 516.07 562.888 518.612 559.417 521.336C555.94 524.051 552.6 526.949 549.411 530.019C546.143 533.109 543.146 536.491 540.454 540.127C544.568 538.425 548.527 536.352 552.287 533.931C556.007 531.583 559.606 529.039 563.073 526.309C566.546 523.588 569.884 520.688 573.073 517.62C576.34 514.529 579.339 511.149 582.036 507.519ZM585.084 519.212C580.805 521.268 576.673 523.636 572.72 526.3C568.795 528.895 564.997 531.639 561.294 534.502C557.581 537.349 553.97 540.317 550.423 543.384C546.84 546.425 543.455 549.592 539.747 552.728C542.128 552.323 544.453 551.623 546.67 550.641C548.866 549.693 551.012 548.626 553.099 547.445C557.204 545.073 561.151 542.421 564.913 539.505C568.662 536.603 572.245 533.479 575.646 530.151C579.111 526.812 582.27 523.15 585.084 519.212ZM588.786 531.356C584.161 533.212 579.674 535.415 575.36 537.946C571.072 540.412 566.911 543.061 562.846 545.849C558.78 548.637 554.812 551.567 550.942 554.642C549.007 556.183 547.092 557.753 545.194 559.35C543.359 561.03 541.409 562.572 539.36 563.964C540.645 563.964 541.92 563.738 543.132 563.295C544.347 562.923 545.527 562.471 546.694 562C549.022 561.046 551.271 559.954 553.477 558.797C557.857 556.468 562.103 553.881 566.195 551.049C570.286 548.237 574.237 545.213 578.032 541.988C581.895 538.757 585.492 535.201 588.786 531.356ZM547.582 485.969C547.385 481.911 546.804 477.883 545.846 473.943C544.942 470.074 543.825 466.262 542.5 462.526C541.184 458.785 539.659 455.127 537.933 451.569C536.204 447.919 534.13 444.455 531.739 441.227C531.929 445.286 532.507 449.315 533.466 453.256C534.37 457.125 535.49 460.936 536.821 464.671C538.143 468.409 539.67 472.066 541.396 475.624C543.125 479.273 545.197 482.738 547.582 485.969ZM545 500.011C544.259 495.975 543.139 492.023 541.659 488.21C540.24 484.46 538.617 480.796 536.799 477.235C534.989 473.669 532.983 470.214 530.789 466.886C528.583 463.467 526.057 460.28 523.247 457.37C523.982 461.408 525.099 465.362 526.582 469.175C528 472.925 529.625 476.588 531.449 480.146C533.265 483.709 535.273 487.163 537.466 490.492C539.674 493.909 542.197 497.097 545 500.011ZM543.047 513.59C541.775 509.494 540.137 505.527 538.155 501.743C536.241 498.01 534.133 494.387 531.842 490.888C529.559 487.383 527.092 484.01 524.452 480.784C521.792 477.472 518.837 474.424 515.626 471.682C516.892 475.782 518.528 479.75 520.511 483.534C522.425 487.267 524.535 490.89 526.832 494.384C529.12 497.885 531.59 501.257 534.229 504.484C536.889 507.794 539.841 510.843 543.047 513.59ZM541.616 528.572C539.621 524.144 537.278 519.891 534.613 515.857C532.01 511.845 529.232 507.98 526.28 504.263C523.338 500.538 520.226 496.956 516.943 493.518C513.647 490.015 510.075 486.8 506.264 483.906C508.251 488.339 510.592 492.594 513.261 496.627C515.864 500.639 518.643 504.502 521.599 508.215C524.548 511.935 527.663 515.515 530.943 518.955C534.241 522.456 537.81 525.672 541.616 528.572ZM540.454 544.108C538.008 539.898 535.234 535.901 532.161 532.155C529.152 528.425 525.984 524.86 522.658 521.461C519.341 518.052 515.868 514.805 512.241 511.718C508.594 508.568 504.701 505.735 500.602 503.246C503.042 507.461 505.813 511.46 508.89 515.204C511.899 518.934 515.068 522.497 518.398 525.893C521.722 529.295 525.196 532.541 528.821 535.629C532.47 538.776 536.36 541.612 540.454 544.108ZM539.747 554.069C537.034 550.437 534.019 547.056 530.737 543.965C527.532 540.896 524.179 537.995 520.692 535.274C517.211 532.545 513.596 530.002 509.863 527.654C506.089 525.233 502.116 523.161 497.989 521.461C500.698 525.098 503.711 528.482 506.995 531.572C510.199 534.642 513.554 537.54 517.045 540.256C520.53 542.98 524.146 545.521 527.879 547.869C531.653 550.288 535.624 552.362 539.747 554.069ZM539.36 562.39C536.104 559.075 532.583 556.051 528.833 553.35C525.152 550.647 521.359 548.147 517.454 545.849C513.555 543.54 509.547 541.428 505.43 539.513C501.276 537.541 496.965 535.94 492.546 534.729C495.797 538.05 499.317 541.077 503.069 543.776C506.75 546.478 510.544 548.976 514.451 551.269C518.354 553.571 522.364 555.681 526.479 557.599C530.634 559.569 534.943 561.171 539.36 562.39ZM539.66 567.787C535.755 565.003 531.636 562.553 527.345 560.46C523.119 558.353 518.811 556.476 514.433 554.796C510.055 553.114 505.6 551.645 501.069 550.389C496.494 549.083 491.823 548.17 487.103 547.66C491.004 550.451 495.122 552.904 499.415 554.994C503.641 557.101 507.946 558.986 512.33 560.651C516.711 562.325 521.163 563.802 525.697 565.05C530.272 566.352 534.942 567.267 539.66 567.787Z" fill="#50661A"/>
<path d="M537.543 567.357C536.352 565.306 508.286 517.001 503.746 504.496L504.879 504.058C509.379 516.455 538.288 566.212 538.581 566.713L537.543 567.357Z" fill="#5E7C24"/>
<path d="M514.05 478.164C512.826 481.291 511.89 484.529 511.255 487.837C510.606 491.077 510.129 494.351 509.827 497.645C509.517 500.938 509.386 504.246 509.434 507.554C509.452 510.927 509.782 514.291 510.42 517.599C511.65 514.474 512.587 511.235 513.221 507.926C513.871 504.686 514.346 501.412 514.643 498.118C514.947 494.824 515.076 491.516 515.029 488.208C515.009 484.836 514.681 481.473 514.05 478.164ZM524.719 493.231C523.229 496.144 522.015 499.198 521.093 502.351C520.164 505.434 519.403 508.568 518.815 511.739C518.219 514.909 517.799 518.111 517.557 521.33C517.281 524.612 517.316 527.914 517.661 531.19C519.157 528.28 520.373 525.225 521.294 522.071C522.224 518.988 522.982 515.853 523.566 512.681C524.156 509.511 524.574 506.309 524.817 503.09C525.091 499.808 525.058 496.506 524.719 493.231ZM530.598 510.772C529.286 513.479 528.251 516.32 527.511 519.249C526.764 522.102 526.187 525.001 525.784 527.927C525.373 530.852 525.14 533.801 525.085 536.756C525 539.783 525.226 542.811 525.759 545.788C527.077 543.083 528.113 540.242 528.852 537.312C529.6 534.459 530.175 531.56 530.572 528.633C530.978 525.707 531.209 522.758 531.265 519.802C531.348 516.776 531.124 513.75 530.598 510.772ZM538.001 528.28C536.684 530.548 535.633 532.969 534.871 535.494C534.109 537.933 533.515 540.424 533.095 542.95C532.666 545.474 532.414 548.027 532.341 550.588C532.238 553.231 532.443 555.878 532.954 558.47C534.277 556.205 535.33 553.783 536.09 551.257C536.853 548.818 537.445 546.326 537.861 543.8C538.284 541.275 538.534 538.722 538.608 536.16C538.71 533.518 538.506 530.872 538.001 528.28ZM544.533 539.223C543.189 541.19 542.08 543.317 541.229 545.558C540.395 547.698 539.701 549.893 539.152 552.129C538.607 554.348 538.188 556.598 537.897 558.868C537.761 560.011 537.637 561.149 537.554 562.308C537.511 563.49 537.389 564.667 537.189 565.831C537.468 565.676 537.737 565.501 537.992 565.307L538.644 564.633C539.06 564.172 539.441 563.679 539.785 563.159C540.447 562.157 541.033 561.103 541.538 560.007C542.52 557.877 543.291 555.65 543.84 553.36C544.399 551.091 544.762 548.775 544.923 546.44C545.118 544.027 544.987 541.598 544.533 539.223ZM507.705 512.21C505.51 509.724 503.04 507.512 500.346 505.619C497.75 503.757 495.032 502.083 492.211 500.61C489.395 499.128 486.481 497.854 483.49 496.797C480.418 495.672 477.228 494.928 473.986 494.58C476.177 497.073 478.646 499.288 481.342 501.179C483.937 503.042 486.657 504.714 489.48 506.181C492.3 507.657 495.215 508.928 498.205 509.986C501.277 511.109 504.465 511.855 507.705 512.21ZM514.934 526.156C512.127 523.785 509.084 521.728 505.857 520.019C502.723 518.321 499.49 516.825 496.176 515.541C492.866 514.247 489.481 513.171 486.039 512.319C482.521 511.408 478.918 510.889 475.293 510.772C478.096 513.149 481.138 515.209 484.366 516.917C487.5 518.616 490.734 520.109 494.05 521.387C497.362 522.674 500.749 523.747 504.19 524.601C507.708 525.51 511.31 526.031 514.934 526.156ZM523.444 541.657C520.944 539.365 518.199 537.377 515.262 535.731C512.423 534.103 509.481 532.675 506.455 531.457C503.433 530.23 500.333 529.22 497.176 528.433C493.936 527.587 490.611 527.131 487.268 527.076C489.764 529.373 492.509 531.364 495.448 533.009C498.286 534.638 501.229 536.064 504.257 537.275C507.282 538.496 510.382 539.503 513.539 540.291C516.779 541.135 520.103 541.594 523.444 541.657ZM530.169 553.588C527.992 551.639 525.575 549.996 522.983 548.699C520.502 547.425 517.928 546.355 515.283 545.502C512.642 544.639 509.937 543.998 507.196 543.584C504.349 543.12 501.455 543.05 498.59 543.375C500.764 545.329 503.18 546.976 505.775 548.272C508.255 549.547 510.83 550.614 513.477 551.461C516.12 552.317 518.825 552.956 521.566 553.37C524.412 553.832 527.305 553.905 530.169 553.588Z" fill="#5E7C24"/>
<path d="M535.478 564.293C533.084 561.92 530.434 559.84 527.579 558.094C524.822 556.37 521.955 554.843 518.998 553.522C516.044 552.192 513.004 551.076 509.901 550.181C506.714 549.223 503.43 548.653 500.115 548.481C502.504 550.86 505.154 552.943 508.011 554.688C510.767 556.413 513.635 557.938 516.596 559.253C519.552 560.576 522.592 561.69 525.696 562.586C528.882 563.542 532.165 564.115 535.478 564.293ZM505.357 506.274C505.798 502.943 505.719 499.56 505.121 496.255C504.595 493.139 503.767 490.085 502.649 487.14C501.542 484.191 500.146 481.366 498.483 478.71C496.75 475.861 494.58 473.323 492.059 471.193C491.607 474.525 491.683 477.91 492.283 481.217C492.808 484.333 493.64 487.386 494.766 490.327C495.881 493.273 497.281 496.096 498.943 498.753C500.677 501.599 502.842 504.138 505.357 506.274Z" fill="#5E7C24"/>
<path d="M629.573 568.474H0.195312V570.964H629.573V568.474Z" fill="#935B50"/>
<path d="M249.989 18.8136H284.774L284.834 30.8612L298.568 18.8136H391.587C392.78 18.8136 393.924 18.3242 394.767 17.453C395.611 16.5817 396.085 15.4001 396.085 14.168V4.753C396.085 4.14293 395.969 3.53883 395.742 2.9752C395.516 2.41158 395.185 1.89945 394.767 1.46807C394.35 1.03669 393.854 0.694502 393.308 0.46104C392.762 0.227579 392.178 0.10742 391.587 0.107422H249.989C249.399 0.10742 248.814 0.227579 248.268 0.46104C247.722 0.694502 247.226 1.03669 246.809 1.46807C246.391 1.89945 246.06 2.41158 245.834 2.9752C245.608 3.53883 245.491 4.14293 245.491 4.753V14.168C245.491 15.4001 245.965 16.5817 246.809 17.453C247.652 18.3242 248.796 18.8136 249.989 18.8136Z" fill="#236EBA"/>
<path d="M307.745 7.81958H255.388V9.36716H307.745V7.81958Z" fill="#EFEDEF"/>
<path d="M391.587 80.3829H356.802L356.742 92.4304L343.008 80.3829H249.989C249.399 80.3829 248.814 80.2627 248.268 80.0292C247.722 79.7958 247.226 79.4536 246.809 79.0222C246.391 78.5908 246.06 78.0787 245.834 77.5151C245.608 76.9515 245.491 76.3474 245.491 75.7373V50.837C245.491 50.2269 245.608 49.6228 245.834 49.0592C246.06 48.4956 246.391 47.9834 246.809 47.5521C247.226 47.1207 247.722 46.7785 248.268 46.545C248.814 46.3116 249.399 46.1914 249.989 46.1914H391.587C392.178 46.1914 392.762 46.3116 393.308 46.545C393.854 46.7785 394.35 47.1207 394.767 47.5521C395.185 47.9834 395.516 48.4956 395.742 49.0592C395.969 49.6228 396.085 50.2269 396.085 50.837V75.7373C396.085 76.3474 395.969 76.9515 395.742 77.5151C395.516 78.0787 395.185 78.5908 394.767 79.0222C394.35 79.4536 393.854 79.7958 393.308 80.0292C392.762 80.2627 392.178 80.3829 391.587 80.3829Z" fill="#57DEFF"/>
<path d="M381.645 57.4353H256.826V58.9829H381.645V57.4353Z" fill="#EFEDEF"/>
<path d="M309.184 68.5378H256.826V70.0854H309.184V68.5378Z" fill="#EFEDEF"/>
<path d="M249.989 160.442H284.774L284.834 172.489L298.568 160.442H391.587C392.178 160.442 392.762 160.322 393.308 160.088C393.854 159.855 394.35 159.513 394.767 159.081C395.185 158.65 395.516 158.138 395.742 157.574C395.969 157.01 396.085 156.406 396.085 155.796V107.668C396.085 107.058 395.969 106.454 395.742 105.89C395.516 105.327 395.185 104.814 394.767 104.383C394.35 103.952 393.854 103.61 393.308 103.376C392.762 103.143 392.178 103.022 391.587 103.022H249.989C249.399 103.022 248.814 103.143 248.268 103.376C247.722 103.61 247.226 103.952 246.809 104.383C246.391 104.814 246.06 105.327 245.834 105.89C245.608 106.454 245.491 107.058 245.491 107.668V155.796C245.491 157.028 245.965 158.21 246.809 159.081C247.652 159.952 248.796 160.442 249.989 160.442Z" fill="#236EBA"/>
<path d="M376.968 115.752H252.148V117.3H376.968V115.752Z" fill="#EFEDEF"/>
<path d="M376.968 136.982H252.148V138.53H376.968V136.982Z" fill="#EFEDEF"/>
<path d="M376.968 126.368H252.148V127.915H376.968V126.368Z" fill="#EFEDEF"/>
<path d="M304.506 147.11H252.148V148.658H304.506V147.11Z" fill="#EFEDEF"/>
<path d="M474.468 320.564C535.618 320.564 585.19 269.366 585.19 206.21C585.19 143.054 535.618 91.8557 474.468 91.8557C413.318 91.8557 363.746 143.054 363.746 206.21C363.746 269.366 413.318 320.564 474.468 320.564Z" fill="#57DEFF"/>
<mask id="mask0_499_1796" style="mask-type:luminance" maskUnits="userSpaceOnUse" x="363" y="91" width="223" height="230">
<path d="M474.468 320.564C535.618 320.564 585.19 269.366 585.19 206.21C585.19 143.054 535.618 91.8557 474.468 91.8557C413.318 91.8557 363.746 143.054 363.746 206.21C363.746 269.366 413.318 320.564 474.468 320.564Z" fill="white"/>
</mask>
<g mask="url(#mask0_499_1796)">
<path d="M480.544 202.526C487.129 202.526 492.468 197.013 492.468 190.211C492.468 183.41 487.129 177.896 480.544 177.896C473.959 177.896 468.62 183.41 468.62 190.211C468.62 197.013 473.959 202.526 480.544 202.526Z" fill="#160B07"/>
<path d="M509.135 237.431C509.135 237.431 497.541 293.301 528.227 366.32C540.808 396.258 551.174 405.405 551.174 405.405C551.174 405.405 539.697 396.673 529.533 408.316C519.37 419.958 503.267 417.745 503.267 417.745L485.996 237.431H509.135Z" fill="#FFBA55"/>
<path d="M542.123 308.226L501.283 251.996L514.889 256.085C514.889 256.085 514.014 233.243 518.558 240.031C523.102 246.819 550.369 302.294 550.369 302.294L542.123 308.226Z" fill="#F9977A"/>
<path d="M541.343 296.314C541.343 296.314 539.372 301.072 542.938 311.876C546.503 322.68 550.423 330.79 549.66 322.782L548.98 316.69C548.98 316.69 555.092 323.352 558.396 327.649C559.255 328.804 560.45 329.642 561.806 330.042C563.161 330.442 564.605 330.382 565.925 329.871C568.378 328.856 569.235 326.855 566.366 321.157C562.075 312.634 559.585 308.943 557.929 307.159L557.911 307.14C555.668 304.622 553.02 302.524 550.084 300.938L541.343 296.314Z" fill="#F9977A"/>
<path d="M545.603 312.364C546.311 312.946 546.95 313.614 547.505 314.353C548.073 315.078 548.567 315.861 548.98 316.691C548.586 316.445 548.221 316.153 547.892 315.82C547.563 315.499 547.257 315.154 546.976 314.788C546.4 314.058 545.937 313.24 545.603 312.364ZM555.288 318.856C556.086 319.651 556.838 320.494 557.54 321.381C558.255 322.255 558.916 323.174 559.55 324.114C560.184 325.055 560.764 326.035 561.286 327.048C561.824 328.055 562.254 329.12 562.568 330.224C561.467 328.237 560.24 326.378 558.992 324.51C557.757 322.635 556.479 320.791 555.288 318.856ZM558.239 317.383C559.157 318.205 560.021 319.09 560.824 320.032C561.638 320.966 562.397 321.95 563.098 322.977C563.811 324.003 564.433 325.094 564.958 326.234C565.529 327.361 565.859 328.601 565.925 329.871C565.609 328.676 565.128 327.535 564.496 326.483C563.889 325.424 563.245 324.383 562.544 323.379C561.174 321.347 559.689 319.395 558.239 317.383ZM561.3 316.694C562.086 317.361 562.821 318.09 563.498 318.874C564.183 319.65 564.824 320.467 565.416 321.321C566.633 323.016 567.562 324.912 568.166 326.928C567.635 326.029 567.123 325.142 566.57 324.278C566.004 323.424 565.454 322.563 564.865 321.727L561.3 316.694Z" fill="#DD765E"/>
<path d="M477.267 191.247C472.43 196.495 452.156 192.188 459.638 188.145C457.556 187.809 455.868 187.628 454.293 187.204C443.83 184.391 432.91 169.384 436.246 157.688C439.154 147.495 451.838 143.509 454.924 142.54C458.8 141.142 462.958 140.792 467.002 141.525C471.046 142.258 474.84 144.048 478.024 146.726C481.884 149.974 484.814 154.247 486.499 159.085C488.307 163.842 488.296 179.282 477.267 191.247Z" fill="#160B07"/>
<path d="M449.298 195.928L444 196.999L450.011 216.564L474.894 215.392L485.996 197.734C485.996 197.734 467.592 195.723 464.998 186.906L449.298 195.928Z" fill="#F9977A"/>
<path d="M400.078 195.196L385.852 195.866C385.435 195.885 385.027 195.741 384.71 195.462C384.392 195.183 384.189 194.791 384.141 194.363L383.914 192.35L380.224 159.539C380.198 159.307 380.218 159.072 380.284 158.849C380.349 158.626 380.459 158.419 380.605 158.241C380.752 158.063 380.932 157.918 381.135 157.816C381.338 157.713 381.559 157.654 381.785 157.644L395.866 156.981C396.282 156.961 396.689 157.104 397.006 157.382C397.323 157.659 397.527 158.05 397.577 158.476L401.233 189.817L401.638 193.293C401.665 193.526 401.645 193.761 401.58 193.985C401.515 194.209 401.406 194.417 401.26 194.596C401.113 194.774 400.933 194.92 400.729 195.023C400.526 195.126 400.304 195.185 400.078 195.196Z" fill="#4F66D0"/>
<path d="M379.397 197.787C376.647 190.417 375.144 182.613 374.953 174.717C374.953 174.717 376.536 165.95 389.521 168.178C390.323 168.313 391.068 168.692 391.66 169.268C392.252 169.843 392.664 170.589 392.842 171.408C393.335 173.697 393.521 176.951 391.47 179.142L384.138 186.629L384.73 191.894C384.748 192.053 384.797 192.207 384.875 192.345C384.952 192.483 385.057 192.603 385.183 192.697C385.308 192.791 385.451 192.857 385.602 192.89C385.753 192.924 385.91 192.925 386.061 192.893C387.599 192.562 390.181 192.201 390.985 193.264C391.182 193.478 391.321 193.74 391.388 194.026C391.456 194.312 391.449 194.611 391.37 194.894C391.291 195.176 391.141 195.433 390.936 195.637C390.732 195.842 390.478 195.987 390.202 196.059L379.397 197.787Z" fill="#F9977A"/>
<path d="M378.94 173.743C379.599 172.659 380.57 171.815 381.717 171.332C382.829 170.796 383.998 170.399 385.201 170.15C386.394 169.905 387.604 169.756 388.82 169.704C389.427 169.697 390.031 169.665 390.636 169.679C391.242 169.72 391.846 169.736 392.448 169.8C390.049 170.138 387.671 170.373 385.347 170.876C384.188 171.117 383.048 171.443 381.935 171.853C380.805 172.227 379.778 172.875 378.94 173.743ZM379.124 177.897C379.878 176.808 380.834 175.883 381.935 175.177C383.029 174.449 384.215 173.879 385.459 173.482C386.704 173.103 387.988 172.88 389.284 172.817C389.928 172.766 390.575 172.822 391.216 172.822C391.857 172.89 392.495 172.969 393.125 173.075C391.843 173.154 390.581 173.198 389.335 173.386C388.095 173.56 386.869 173.829 385.668 174.192C384.476 174.573 383.321 175.066 382.216 175.666C381.098 176.271 380.059 177.021 379.124 177.897ZM381.674 180.898C382.435 180.199 383.249 179.564 384.108 178.999C384.962 178.424 385.854 177.91 386.776 177.462C387.703 177.003 388.675 176.647 389.674 176.4C390.673 176.099 391.731 176.084 392.738 176.355C391.74 176.368 390.754 176.57 389.827 176.949C388.899 177.303 387.977 177.683 387.08 178.134C385.268 178.998 383.504 179.978 381.674 180.898Z" fill="#DD765E"/>
<path d="M400.838 236.14L390.202 196.059L379.397 197.787C381.888 254.192 390.766 259.265 390.766 259.265C397.067 266.543 432.555 237.976 432.555 237.976L435.051 203.377C433.35 201.376 400.838 236.14 400.838 236.14ZM489.79 232.114C489.79 232.114 502.417 256.445 504.001 254.345L531.819 265.136C531.819 265.136 497.895 196.059 491.76 200.599L489.79 232.114Z" fill="#F9977A"/>
<path d="M500.512 245.992L516.674 232.49C500.182 208.087 496.817 202.832 496.817 202.832C496.817 202.832 486.422 196.164 478.238 196.41C477.109 200.405 474.805 203.939 471.646 206.524C468.488 209.108 464.63 210.615 460.606 210.837C446.146 211.935 448.411 196.289 448.411 196.289L449.895 196.091C450.34 196.03 450.778 195.926 451.204 195.781C443.721 196.605 436.363 198.553 431.63 202.629C426.772 204.419 427.058 246.206 431.067 242.51L431.066 242.504C432.319 249.667 434.562 256.607 437.726 263.111L441.878 304.007L493.834 301.495C493.834 301.495 486.334 260.399 494.933 238.651L500.512 245.992Z" fill="#F9977A"/>
<path d="M504.055 251.476L518.311 240.478C520.037 239.146 519.932 236.89 519.115 234.831C513.228 220.01 508.427 210.235 503.586 205.865C500.28 202.883 496.431 200.614 492.264 199.19C488.148 197.78 482.657 196.277 478.238 196.41C477.108 200.405 474.804 203.939 471.646 206.523C468.487 209.108 464.629 210.615 460.605 210.837C446.145 211.934 449.298 195.927 449.298 195.927C449.298 195.927 439.449 197.325 432.68 201.251C428.877 203.456 411.885 220.918 406.725 226.261C406.322 226.679 406.089 227.241 406.074 227.831C406.059 228.421 406.264 228.994 406.646 229.434L420.643 245.55C421.484 246.518 422.663 247.102 423.92 247.174C425.178 247.247 426.412 246.8 427.352 245.934L431.066 242.509L431.066 242.504C431.947 247.509 431.114 267.87 435.02 275.769L491.253 279.736C491.253 279.736 488.205 257.154 493.744 242.509L498.709 249.894C500.05 251.506 501.287 252.944 504.055 251.476Z" fill="#F73943"/>
<path d="M450.383 188.959C450.383 188.959 457.149 194.064 464.917 187.635C464.917 187.635 462.342 198.881 449.299 195.928C449.983 194.929 450.436 193.781 450.624 192.573C450.812 191.365 450.73 190.129 450.383 188.959Z" fill="#DD765E"/>
<path d="M443.484 164.074C446.025 151.181 455.001 142.182 463.532 143.975C470.117 145.359 474.509 152.77 475.004 162.007C475.302 161.804 475.64 161.671 475.993 161.618C476.347 161.565 476.707 161.593 477.049 161.7C478.902 162.412 479.292 166.079 477.921 169.891C476.762 173.109 474.72 175.394 472.996 175.602C469.397 185.711 461.7 192.216 454.332 190.668C445.8 188.874 440.944 176.968 443.484 164.074Z" fill="#F9977A"/>
<path d="M453.759 163.033C454.258 164.543 454.267 166.18 453.783 167.695C453.364 169.215 452.74 170.668 451.93 172.009C451.516 172.685 450.874 173.219 450.972 173.838C451.109 174.53 451.507 175.137 452.077 175.526C452.71 175.906 453.409 176.153 454.134 176.253C454.86 176.353 455.597 176.305 456.305 176.11C455.59 176.428 454.816 176.577 454.039 176.544C453.261 176.511 452.501 176.298 451.815 175.92C451.455 175.706 451.145 175.414 450.905 175.064C450.665 174.713 450.502 174.314 450.426 173.892C450.383 173.433 450.512 172.975 450.785 172.61L451.432 171.66C452.232 170.373 452.875 168.99 453.347 167.541C453.884 166.106 454.026 164.546 453.759 163.033Z" fill="#DD765E"/>
<path d="M467.086 166.233C467.187 166.209 467.279 166.158 467.355 166.086C467.431 166.014 467.488 165.923 467.52 165.822C467.552 165.72 467.559 165.612 467.539 165.508C467.519 165.403 467.473 165.306 467.406 165.225C467.255 165.041 463.654 160.746 458.769 161.632C458.691 161.647 458.616 161.676 458.55 161.72C458.483 161.764 458.425 161.821 458.38 161.888C458.288 162.023 458.252 162.19 458.28 162.353C458.307 162.515 458.396 162.66 458.527 162.755C458.658 162.849 458.82 162.887 458.977 162.858C463.191 162.093 466.456 165.991 466.488 166.031C466.56 166.118 466.654 166.183 466.76 166.219C466.865 166.255 466.978 166.26 467.086 166.233ZM451.265 161.633C451.39 161.603 451.503 161.531 451.587 161.429C451.67 161.328 451.72 161.201 451.728 161.068C451.737 160.935 451.703 160.802 451.634 160.69C451.564 160.578 451.461 160.492 451.34 160.445C448.987 159.601 446.434 159.559 444.056 160.326C443.906 160.382 443.783 160.496 443.714 160.645C443.645 160.794 443.637 160.964 443.69 161.12C443.743 161.275 443.853 161.403 443.997 161.474C444.141 161.545 444.306 161.555 444.457 161.5C446.567 160.836 448.826 160.875 450.913 161.61C451.026 161.653 451.148 161.662 451.265 161.633ZM465.814 168.955C465.205 168.477 464.562 168.05 463.889 167.676C463.241 167.303 462.544 167.029 461.82 166.862C461.109 166.682 460.369 166.668 459.653 166.821C458.913 166.985 458.203 167.268 457.548 167.659C458.093 167.057 458.779 166.609 459.539 166.357C460.321 166.113 461.15 166.078 461.949 166.255C462.728 166.458 463.466 166.801 464.129 167.269C464.782 167.724 465.352 168.295 465.814 168.955Z" fill="#160B07"/>
<path d="M460.382 169.212C461.128 169.212 461.733 168.587 461.733 167.816C461.733 167.045 461.128 166.42 460.382 166.42C459.635 166.42 459.03 167.045 459.03 167.816C459.03 168.587 459.635 169.212 460.382 169.212Z" fill="#160B07"/>
<path d="M447.523 167.552C448.27 167.552 448.875 166.927 448.875 166.156C448.875 165.385 448.27 164.76 447.523 164.76C446.777 164.76 446.172 165.385 446.172 166.156C446.172 166.927 446.777 167.552 447.523 167.552Z" fill="#160B07"/>
<path d="M452.024 167.587C451.416 167.11 450.772 166.682 450.1 166.308C449.451 165.936 448.754 165.662 448.03 165.495C447.32 165.315 446.58 165.301 445.864 165.454C445.124 165.618 444.414 165.9 443.759 166.291C444.304 165.689 444.989 165.241 445.749 164.99C446.532 164.745 447.361 164.71 448.16 164.888C448.939 165.09 449.677 165.433 450.34 165.901C450.993 166.357 451.563 166.928 452.024 167.587Z" fill="#160B07"/>
<path d="M477.267 166.16C477.002 165.706 476.681 165.289 476.311 164.921C476.177 164.759 475.99 164.654 475.786 164.626C475.581 164.599 475.374 164.65 475.204 164.77C474.801 165.047 474.457 165.405 474.193 165.823C473.869 166.237 473.605 166.705 473.256 167.139C473.369 166.592 473.553 166.062 473.802 165.566C474.053 165.03 474.433 164.57 474.906 164.23C475.192 164.048 475.536 163.989 475.864 164.068C476.174 164.142 476.45 164.327 476.642 164.589C476.986 165.043 477.203 165.587 477.267 166.16Z" fill="#DD765E"/>
<path d="M475.057 170.383C474.456 169.488 474.213 168.389 474.377 167.314C474.444 166.786 474.559 166.267 474.721 165.761C474.89 165.261 475.118 164.785 475.4 164.342C475.283 165.398 475.044 166.377 474.976 167.379C474.909 167.873 474.88 168.372 474.891 168.871C474.889 169.38 474.945 169.887 475.057 170.383Z" fill="#DD765E"/>
<path d="M475.744 176.603C477.226 176.603 478.427 175.363 478.427 173.832C478.427 172.302 477.226 171.062 475.744 171.062C474.263 171.062 473.062 172.302 473.062 173.832C473.062 175.363 474.263 176.603 475.744 176.603Z" fill="#FFBA55"/>
<path d="M460.215 181.027C460.215 181.027 452.689 185.895 448.419 180.5L460.215 181.027Z" fill="#DD2F22"/>
<path d="M454.603 161.166C455.32 161.166 455.901 160.565 455.901 159.825C455.901 159.084 455.32 158.484 454.603 158.484C453.886 158.484 453.305 159.084 453.305 159.825C453.305 160.565 453.886 161.166 454.603 161.166Z" fill="#DD2F22"/>
<path d="M456.848 146.086C458.724 146.551 459.762 148.037 461.837 151.008C465.847 156.748 468.222 164.641 470.998 166.04C471.306 166.217 471.661 166.292 472.012 166.253C473.098 166.089 473.535 164.637 474.742 162.594C475.654 161.05 476.05 160.784 476.582 159.919C477.522 158.218 478.061 156.312 478.156 154.356C478.25 152.4 477.898 150.448 477.127 148.659C475.651 145.676 473.135 143.383 470.086 142.242C463.764 139.445 457.653 141.888 456.103 142.508C446.793 146.229 442.818 155.749 443.147 156.029C443.534 156.359 450.595 144.538 456.848 146.086Z" fill="#160B07"/>
<path d="M492.068 288.79C492.068 288.79 510.123 332.615 507.143 389.019C506.731 396.924 507.518 404.848 509.474 412.503L525.305 498.36C525.443 499.11 525.436 499.88 525.285 500.627C525.133 501.374 524.839 502.082 524.421 502.711C524.002 503.34 523.467 503.877 522.847 504.291C522.226 504.705 521.532 504.988 520.805 505.124L507.999 507.509C486.112 511.585 463.726 511.921 441.733 508.504L430.93 506.826C429.663 506.629 428.5 505.989 427.636 505.013C426.771 504.037 426.258 502.785 426.18 501.464C424.663 475.443 418.174 347.324 433.588 287.555L492.068 288.79Z" fill="#FFBA55"/>
<path d="M492.069 288.79C496.105 298.933 499.317 309.404 501.672 320.097C504.084 330.783 505.821 341.619 506.873 352.537C507.925 363.458 508.198 374.445 507.69 385.408C507.606 388.155 507.405 390.873 507.395 393.594C507.389 396.319 507.523 399.043 507.797 401.754C508.054 404.471 508.452 407.172 508.99 409.845C509.619 412.502 510.013 415.219 510.472 417.913C509.922 415.233 509.44 412.548 508.72 409.908C508.089 407.241 507.597 404.541 507.248 401.82C506.913 399.092 506.724 396.348 506.681 393.599C506.639 390.845 506.79 388.097 506.821 385.373C506.849 382.641 506.997 379.913 506.96 377.182L506.842 368.99C506.587 363.535 506.316 358.081 505.749 352.649C504.743 341.772 503.099 330.967 500.828 320.295C499.728 314.95 498.416 309.652 496.972 304.393C495.557 299.125 493.969 293.9 492.069 288.79ZM450.433 301.947L449.694 323.679L448.839 345.406L447.906 367.13C447.609 374.378 447.124 381.601 447.354 388.82L449.102 432.258L449.903 453.987L450.586 475.722L449.35 454.013L448.233 432.299C447.521 417.815 446.852 403.331 446.225 388.847C446.028 381.565 446.55 374.307 446.88 367.078L447.974 345.363L449.145 323.652L450.433 301.947ZM457.474 312.041C459.414 318.984 461.233 325.958 463.034 332.937L468.303 353.91L473.317 374.948C474.942 381.973 476.551 389.003 478.036 396.064C476.095 389.122 474.276 382.147 472.474 375.168L467.208 354.196L462.195 333.157C460.569 326.132 458.961 319.102 457.474 312.041Z" fill="#E6952A"/>
<path d="M455.425 309.439L456.964 326.056L458.387 342.683L461.049 375.95L463.449 409.239L464.557 425.89L465.547 442.552L464.006 425.935L462.583 409.308L459.923 376.042L457.523 342.753L456.416 326.102L455.425 309.439Z" fill="#E6952A"/>
<path d="M447.92 297.818C447.185 304.463 446.329 311.09 445.453 317.713C444.581 324.337 443.607 330.945 442.689 337.562L439.666 357.371C438.611 363.967 437.539 370.559 436.342 377.133C437.074 370.487 437.931 363.861 438.806 357.237L441.572 337.388C442.584 330.786 443.54 324.175 444.597 317.58C445.651 310.984 446.724 304.391 447.92 297.818Z" fill="#E6952A"/>
<path d="M478.238 196.41C460.62 207.211 437.993 236.304 432.03 244.201C431.561 244.822 431.22 245.536 431.03 246.299C430.841 247.062 430.806 247.857 430.927 248.635C431.295 250.97 431.663 253.512 431.766 255.301C432.284 264.236 421.641 324.334 424.775 357.628C424.775 357.628 460.965 325.427 478.446 295.848C489.812 273.669 493.76 199.608 493.76 199.608C490.848 192.98 478.238 196.41 478.238 196.41Z" fill="#FFBA55"/>
<path d="M400.113 195.194L386.63 195.829C386.212 195.826 385.812 195.659 385.509 195.363C385.207 195.066 385.025 194.662 385 194.231L384.146 186.664L401.182 189.514L401.583 193.191C401.62 193.423 401.612 193.66 401.557 193.889C401.503 194.117 401.403 194.332 401.266 194.519C401.128 194.707 400.955 194.863 400.757 194.979C400.559 195.095 400.34 195.169 400.113 195.194Z" fill="#4F66D0"/>
<path d="M424.775 357.628L439.81 341.082C444.798 335.548 449.806 330.034 454.68 324.397C459.62 318.822 464.437 313.137 469.129 307.342C471.475 304.446 473.77 301.504 475.925 298.458C478.201 295.502 480.094 292.252 481.557 288.79C480.289 292.355 478.546 295.721 476.378 298.789C474.303 301.919 472.076 304.934 469.805 307.908C465.245 313.845 460.4 319.534 455.517 325.179C450.565 330.761 445.564 336.293 440.436 341.7C435.308 347.105 430.119 352.449 424.775 357.628ZM438.432 270.066C440.989 263.973 443.864 258.027 446.868 252.153C449.866 246.274 453.134 240.544 456.528 234.894C459.944 229.25 463.677 223.818 467.707 218.625C471.793 213.508 476.157 208.467 481.557 204.795L477.89 208.016L474.536 211.568C472.403 214.032 470.293 216.52 468.389 219.182C464.485 224.431 460.845 229.883 457.483 235.517C454.024 241.091 450.781 246.81 447.628 252.582C444.472 258.354 441.407 264.182 438.432 270.066ZM432.814 337.475C436.076 333.868 439.139 330.073 441.989 326.109C444.84 322.154 447.608 318.133 450.148 313.96C455.325 305.679 459.903 297.014 463.844 288.036C467.856 279.092 471.236 269.861 473.958 260.413C476.714 250.962 478.906 241.346 480.523 231.618L479.433 238.943C479.044 241.381 478.78 243.848 478.211 246.252C477.149 251.074 476.221 255.937 474.793 260.667C472.184 270.202 468.866 279.515 464.87 288.523L461.758 295.222L458.355 301.768C455.993 306.075 453.575 310.358 450.872 314.45C448.232 318.582 445.376 322.563 442.423 326.458C439.422 330.314 436.215 333.992 432.814 337.475ZM441.171 297.044C443.175 292.129 445.292 287.27 447.426 282.419C449.557 277.567 451.78 272.76 453.953 267.928C456.208 263.137 458.42 258.324 460.716 253.553C463.014 248.783 465.328 244.02 467.755 239.314C465.752 244.229 463.635 249.088 461.502 253.939C459.368 258.79 457.148 263.599 454.973 268.429C452.715 273.219 450.507 278.034 448.208 282.803C445.911 287.574 443.597 292.336 441.171 297.044Z" fill="#E6952A"/>
<path d="M431.066 242.51C432.852 239.681 434.807 236.989 436.749 234.285C438.743 231.622 440.722 228.948 442.878 226.406C441.098 229.232 439.139 231.926 437.196 234.63C435.2 237.295 433.219 239.971 431.066 242.51Z" fill="#B02336"/>
<path d="M389.558 167.545C390.604 167.545 391.452 166.67 391.452 165.59C391.452 164.51 390.604 163.634 389.558 163.634C388.513 163.634 387.665 164.51 387.665 165.59C387.665 166.67 388.513 167.545 389.558 167.545Z" fill="#3957AA"/>
<path d="M383.226 166.159C383.057 166.158 382.894 166.093 382.769 165.976C382.644 165.859 382.565 165.698 382.547 165.525L381.999 159.98C381.982 159.795 382.036 159.609 382.15 159.465C382.265 159.32 382.43 159.229 382.61 159.21C382.79 159.191 382.969 159.246 383.11 159.364C383.25 159.481 383.339 159.651 383.358 159.837L383.906 165.381C383.916 165.474 383.907 165.567 383.881 165.656C383.856 165.744 383.813 165.827 383.757 165.899C383.7 165.971 383.63 166.03 383.551 166.074C383.472 166.118 383.386 166.145 383.296 166.155C383.273 166.157 383.25 166.159 383.226 166.159Z" fill="#3957AA"/>
</g>
<path d="M364.71 221.319L344.815 284.59L378.194 252.955L364.71 221.319Z" fill="#57DEFF"/>
<path d="M44.5771 570.409L67.8458 452.124H94.8864L53.2736 570.409H44.5771Z" fill="#935B50"/>
<path d="M484.841 452.124L509.932 570.409H497.566L456.878 452.124H484.841Z" fill="#935B50"/>
<path d="M498.515 422.611H59.2972C51.4065 422.611 45.0098 429.218 45.0098 437.367C45.0098 445.517 51.4065 452.123 59.2972 452.123H498.515C506.406 452.123 512.802 445.517 512.802 437.367C512.802 429.218 506.406 422.611 498.515 422.611Z" fill="#C38F86"/>
<path d="M265.71 530.463L264.303 538.648L256.855 551.947L243.089 549.423L241.212 537.583L243.146 526.327L265.71 530.463Z" fill="#F9977A"/>
<path d="M304.473 569.332L304.498 569.19C304.684 568.108 304.575 566.994 304.184 565.972C303.793 564.95 303.135 564.06 302.283 563.401L265.505 534.973C265.145 534.695 264.702 534.556 264.253 534.581C263.804 534.606 263.378 534.793 263.05 535.11L253.29 544.515C252.943 544.849 252.49 545.038 252.016 545.047C251.542 545.055 251.083 544.882 250.725 544.561L242.445 537.12C242.19 536.89 241.879 536.735 241.546 536.669C241.213 536.603 240.869 536.63 240.55 536.747C240.23 536.864 239.946 537.066 239.727 537.333C239.508 537.6 239.361 537.922 239.302 538.267L236.116 556.801C236.028 557.317 236.141 557.849 236.432 558.28C236.723 558.71 237.168 559.003 237.668 559.095L302.252 570.934C302.5 570.979 302.754 570.974 303 570.918C303.245 570.862 303.478 570.757 303.684 570.608C303.89 570.459 304.066 570.27 304.202 570.051C304.337 569.832 304.429 569.587 304.473 569.332Z" fill="#FFBA55"/>
<path d="M301.819 362.911V370.533C301.819 370.533 309.43 380.957 308.88 398.444C308.331 415.93 307.904 421.31 305.838 425.009C303.773 428.708 293.028 447.54 293.028 447.54C293.028 447.54 296.284 461.663 295.307 467.716C294.33 473.769 268.609 530.936 268.609 530.936C259.164 531.429 249.726 529.824 240.933 526.228C242.453 492.152 243.972 458.077 245.491 424.001H213.583L200.234 404.497C200.234 404.497 188.838 406.178 186.559 400.461C184.28 394.745 183.629 388.692 181.349 385.329C179.07 381.966 158.558 353.047 158.558 353.047C158.558 353.047 145.208 334.215 156.93 314.039C168.651 293.862 201.862 314.711 213.258 328.835L245.491 359.212L301.819 362.911Z" fill="#236EBA"/>
<path d="M291.075 377.595C288.081 377.632 285.096 377.949 282.158 378.542C279.227 379.085 276.349 379.894 273.556 380.961C267.966 383.014 262.883 386.315 258.669 390.629C256.55 392.753 254.698 395.144 253.156 397.745C252.371 399.039 251.651 400.374 250.998 401.744C250.428 403.154 249.74 404.515 249.263 405.969C249.009 406.689 248.732 407.402 248.495 408.129L247.863 410.339C247.393 411.802 247.166 413.329 246.807 414.825C246.486 416.331 246.285 417.863 246.016 419.385L245.491 424.001C245.533 422.452 245.571 420.898 245.656 419.346C245.823 417.803 245.924 416.245 246.147 414.704C246.437 413.176 246.613 411.619 247.027 410.114L247.579 407.839C247.79 407.088 248.042 406.349 248.272 405.602C248.743 404.11 249.296 402.647 249.929 401.22C250.582 399.8 251.305 398.415 252.095 397.071C253.655 394.356 255.54 391.855 257.705 389.628C262.086 385.214 267.391 381.899 273.209 379.94C278.96 377.965 285.029 377.169 291.075 377.595ZM189.489 328.499C193.206 333.193 196.672 338.09 200.025 343.069C203.375 348.051 206.517 353.181 209.531 358.396C212.522 363.637 215.18 369.072 217.488 374.669C218.63 377.485 219.552 380.391 220.248 383.358L220.633 385.618C220.688 386.384 220.811 387.139 220.808 387.907C220.88 389.437 220.637 390.965 220.095 392.391C220.734 389.446 220.561 386.375 219.597 383.526C218.786 380.638 217.757 377.82 216.521 375.097C214.086 369.615 211.358 364.277 208.35 359.108C205.452 353.863 202.305 348.765 199.153 343.669C197.582 341.118 195.981 338.584 194.352 336.069L189.489 328.499ZM282.742 418.302C283.882 420.621 284.78 423.051 285.758 425.441L288.495 432.693C290.303 437.535 291.953 442.433 293.668 447.309L292.351 447.53L292.384 439.362L292.264 431.192C292.221 428.469 292.126 425.748 291.959 423.032C291.865 420.309 291.569 417.597 291.075 414.921C291.836 417.548 292.361 420.241 292.642 422.967C292.939 425.688 293.163 428.416 293.335 431.146C293.517 433.876 293.567 436.611 293.639 439.344C293.688 442.079 293.74 444.809 293.705 447.549L293.653 451.647L292.389 447.77C290.787 442.858 289.099 437.975 287.527 433.051L285.147 425.673C284.374 423.205 283.604 420.738 282.742 418.302Z" fill="#065082"/>
<path d="M258.546 389.741L254.44 384.228C253.063 382.412 251.68 380.608 250.214 378.887C248.788 377.139 247.26 375.481 245.639 373.923C244.033 372.333 242.232 370.967 240.282 369.86C242.492 370.487 244.551 371.584 246.327 373.079C248.127 374.527 249.776 376.164 251.249 377.964C252.73 379.738 254.086 381.619 255.307 383.592C256.546 385.548 257.629 387.604 258.546 389.741ZM258.546 513.45C255.203 510.175 252.338 506.418 250.038 502.295C248.887 500.227 247.893 498.07 247.065 495.843C246.257 493.608 245.729 491.275 245.492 488.902C246.238 491.116 247.091 493.29 248.05 495.415C249.045 497.508 250.086 499.571 251.221 501.587C252.351 503.606 253.554 505.583 254.776 507.557C256.018 509.517 257.255 511.49 258.546 513.45ZM205.081 375.913C206.006 377.788 206.574 379.83 206.754 381.926C206.972 384.075 206.696 386.246 205.949 388.264C205.541 389.272 205.011 390.224 204.372 391.095C203.687 391.919 202.896 392.642 202.021 393.244C201.17 393.845 200.247 394.331 199.275 394.689C198.308 394.994 197.323 395.237 196.327 395.417C197.22 394.91 198.159 394.585 198.998 394.058C199.842 393.572 200.639 393.005 201.379 392.363C202.107 391.744 202.768 391.044 203.348 390.275L204.092 389.048C204.322 388.628 204.519 388.189 204.68 387.736C205.362 385.897 205.705 383.943 205.691 381.974C205.694 379.937 205.489 377.906 205.081 375.913Z" fill="#065082"/>
<path d="M199.899 404.328L204.704 410.997L217.127 419.448L228.344 410.829L224.893 399.373C223.293 397.046 221.694 394.718 220.095 392.391C214.19 397.704 207.326 401.76 199.899 404.328Z" fill="#F9977A"/>
<path d="M182.075 457.004L181.993 456.889C181.357 456.007 180.972 454.96 180.879 453.865C180.785 452.771 180.988 451.67 181.465 450.688L202.037 408.266C202.238 407.851 202.574 407.522 202.986 407.337C203.398 407.153 203.86 407.123 204.292 407.254L217.095 411.154C217.549 411.293 218.037 411.252 218.464 411.041C218.892 410.83 219.228 410.462 219.408 410.01L223.589 399.529C223.718 399.205 223.928 398.922 224.197 398.71C224.467 398.497 224.786 398.362 225.122 398.319C225.458 398.276 225.8 398.325 226.112 398.462C226.424 398.6 226.694 398.82 226.897 399.101L237.776 414.203C238.079 414.624 238.208 415.153 238.134 415.672C238.061 416.191 237.79 416.659 237.382 416.972L184.756 457.41C184.348 457.723 183.837 457.857 183.334 457.78C182.832 457.704 182.379 457.425 182.075 457.004Z" fill="#FFBA55"/>
<path d="M283.318 258.329C283.318 258.329 286.555 295.544 256.275 259.898C256.275 259.898 227.909 267.969 223.025 274.358C218.142 280.747 214.56 280.747 213.258 328.835C213.258 328.835 201.862 372.887 240.282 369.86C244.161 367.554 247.05 363.817 248.371 359.401L301.819 362.911C302.897 362.553 303.88 361.942 304.69 361.125C305.5 360.308 306.115 359.308 306.486 358.203C306.486 358.203 306.269 366.386 311.478 387.683C316.688 408.98 317.122 415.93 323.2 417.499C329.278 419.069 353.806 409.877 353.806 409.877C353.806 409.877 321.355 300.251 320.052 292.181C318.75 284.11 318.424 267.969 301.819 263.261C285.214 258.553 283.318 258.329 283.318 258.329Z" fill="#8B9D36"/>
<path d="M294.369 202.305L293.467 215.796C293.174 221.269 293.444 226.759 294.272 232.173C295.222 238.996 293.436 244.965 289.521 247.87C287.697 249.174 285.537 249.884 283.319 249.908V263.479C284.037 274.356 280.352 283.367 275.447 284.783C269.769 286.421 259.67 278.689 256.276 263.479V231.738C256.276 231.738 245.225 229.635 251.623 218.373C255.425 211.799 257.667 204.389 258.166 196.749L270.088 187.439L294.369 202.305Z" fill="#F9977A"/>
<path d="M267.325 208.112C267.147 208.112 266.974 208.051 266.832 207.939C266.691 207.827 266.589 207.67 266.544 207.492C266.498 207.314 266.51 207.126 266.579 206.956C266.648 206.786 266.769 206.645 266.924 206.553C271.326 203.958 276.074 206.43 276.273 206.536C276.367 206.586 276.451 206.655 276.52 206.739C276.588 206.822 276.64 206.919 276.673 207.023C276.705 207.127 276.717 207.237 276.709 207.346C276.7 207.455 276.67 207.562 276.622 207.659C276.573 207.757 276.507 207.843 276.426 207.914C276.345 207.985 276.251 208.038 276.15 208.072C276.049 208.105 275.943 208.118 275.837 208.109C275.732 208.1 275.629 208.069 275.534 208.019C275.492 207.998 271.354 205.863 267.725 208.002C267.603 208.074 267.465 208.112 267.325 208.112ZM283.319 208.112C283.14 208.112 282.967 208.051 282.826 207.939C282.684 207.827 282.583 207.67 282.537 207.492C282.491 207.314 282.504 207.126 282.573 206.956C282.642 206.786 282.763 206.645 282.918 206.553C287.32 203.958 292.068 206.43 292.267 206.536C292.457 206.637 292.601 206.812 292.666 207.023C292.732 207.234 292.713 207.463 292.615 207.659C292.517 207.856 292.348 208.004 292.144 208.072C291.94 208.139 291.718 208.121 291.528 208.019C291.487 207.998 287.348 205.863 283.718 208.002C283.597 208.074 283.459 208.112 283.319 208.112ZM288.407 219.074C289.035 219.051 289.63 218.778 290.067 218.311C290.504 217.844 290.748 217.22 290.748 216.571C290.748 215.922 290.504 215.298 290.067 214.831C289.63 214.364 289.035 214.091 288.407 214.068C287.779 214.091 287.184 214.364 286.747 214.831C286.31 215.298 286.066 215.922 286.066 216.571C286.066 217.22 286.31 217.844 286.747 218.311C287.184 218.778 287.779 219.051 288.407 219.074ZM271.832 218.924C272.46 218.901 273.055 218.627 273.492 218.161C273.929 217.694 274.173 217.07 274.173 216.421C274.173 215.772 273.929 215.148 273.492 214.681C273.055 214.214 272.46 213.94 271.832 213.918C271.204 213.94 270.609 214.214 270.172 214.681C269.735 215.148 269.491 215.772 269.491 216.421C269.491 217.07 269.735 217.694 270.172 218.161C270.609 218.627 271.204 218.901 271.832 218.924Z" fill="#1E1D22"/>
<path d="M281.283 214.15C282.106 215.123 282.816 216.193 283.397 217.338C283.996 218.478 284.482 219.678 284.85 220.919C285.251 222.202 285.392 223.557 285.263 224.899C285.188 225.623 284.896 226.305 284.429 226.85C284.191 227.097 283.903 227.287 283.585 227.405C283.267 227.523 282.928 227.567 282.592 227.533C283.142 227.338 283.605 226.945 283.897 226.425C284.127 225.925 284.231 225.373 284.197 224.82C284.119 223.629 283.897 222.452 283.538 221.317C282.873 218.957 281.975 216.636 281.283 214.15Z" fill="#DD765E"/>
<path d="M271.999 234.065C271.999 236.18 274.077 237.895 276.641 237.895C279.205 237.895 281.283 236.18 281.283 234.065" fill="#DD2F22"/>
<path d="M283.319 249.908C283.319 249.908 274.595 249.448 270.379 245.323C270.379 245.323 275.759 256.365 283.319 257.867V249.908Z" fill="#DD765E"/>
<path d="M300.766 198.251C300.766 198.251 300.621 192.094 290.152 189.391C279.684 186.688 277.648 180.681 271.614 182.333C267.717 183.586 264.29 186.051 261.8 189.391C261.8 189.391 242.85 186.397 252.034 217.627C252.034 217.627 258.892 225.881 259.619 218.523C260.346 211.165 261.945 198.551 265.871 195.247C269.797 191.944 275.903 195.247 278.23 197.049C280.556 198.851 295.096 209.513 296.549 208.612C298.003 207.711 303.819 205.909 300.766 198.251Z" fill="#1E1D22"/>
<path d="M344.141 413.22V416.098L361.891 417.68C361.891 417.68 373.124 423.833 372.31 424.841C371.496 425.85 370.357 427.195 366.124 424.001C365.039 423.374 363.893 422.867 362.705 422.487C362.705 422.487 368.566 427.364 367.915 428.036C367.264 428.709 366.124 431.063 360.752 425.682C360.752 425.682 353.914 422.151 347.891 424.673C347.891 424.673 352.612 426.355 353.1 428.372C353.589 430.39 357.821 433.416 355.705 434.257C353.589 435.098 352.938 433.416 349.193 430.39C345.449 427.364 342.03 428.372 337.797 425.178C335.154 422.996 333.331 419.93 332.641 416.509L344.141 413.22Z" fill="#F9977A"/>
<path d="M353.806 420.47C354.552 420.145 355.346 419.954 356.155 419.903C356.957 419.835 357.764 419.87 358.558 420.007C359.366 420.146 360.149 420.412 360.878 420.797C361.626 421.176 362.258 421.761 362.705 422.487C361.282 421.984 359.817 421.616 358.329 421.39C356.863 421.113 355.379 420.924 353.806 420.47Z" fill="#DD765E"/>
<path d="M302.796 286.128L303.288 295.25C303.443 298.288 303.625 301.325 303.852 304.356C304.291 310.416 304.751 316.481 305.667 322.46C306.548 328.438 307.822 334.413 308.594 340.473C309.012 343.51 309.22 346.574 309.214 349.642C309.177 351.185 308.978 352.72 308.618 354.218C308.291 355.73 307.551 357.113 306.486 358.203C308.441 355.828 308.593 352.598 308.543 349.642C308.418 346.619 308.087 343.609 307.553 340.635C306.571 334.648 305.317 328.717 304.316 322.673C303.515 316.617 303.011 310.524 302.805 304.416C302.589 298.32 302.549 292.22 302.796 286.128ZM231.383 282.989C229.835 281.579 228.465 280.167 226.996 278.868C226.271 278.209 225.509 277.614 224.736 277.015C223.946 276.437 223.123 275.925 222.226 275.37C223.274 275.368 224.311 275.602 225.263 276.056C226.211 276.51 227.094 277.096 227.888 277.797C228.665 278.502 229.362 279.295 229.964 280.163C230.579 281.022 231.058 281.976 231.383 282.989ZM309.517 266.958C308.344 268.496 307.062 269.942 305.68 271.283L303.68 273.274C303.021 273.949 302.357 274.603 301.711 275.37C301.884 274.361 302.275 273.405 302.855 272.573C303.397 271.739 304.025 270.967 304.726 270.271C305.418 269.579 306.166 268.947 306.96 268.384C307.753 267.803 308.612 267.324 309.517 266.958ZM295.633 334.551C295.791 336.117 295.72 337.698 295.423 339.242C295.261 340.017 295.049 340.78 294.786 341.525L294.389 342.647L293.877 343.72C292.434 346.572 290.31 348.997 287.707 350.765C285.122 352.496 282.264 353.747 279.262 354.459C277.761 354.734 276.264 355.014 274.766 355.227C273.248 355.284 271.741 355.388 270.237 355.401C271.718 355.069 273.197 354.829 274.663 354.542C276.117 354.194 277.557 353.801 278.987 353.41C279.68 353.138 280.372 352.873 281.069 352.626C281.772 352.404 282.455 352.117 283.109 351.77L285.094 350.796C285.723 350.415 286.325 349.99 286.943 349.593C289.377 347.94 291.431 345.757 292.96 343.196C294.498 340.572 295.414 337.61 295.633 334.551Z" fill="#5E7C24"/>
<path d="M277.578 341.371L289.944 306.105L310.785 305.667L298.837 341.631L277.578 341.371Z" fill="#065082"/>
<path d="M300.842 313.758C301.194 313.746 301.527 313.593 301.772 313.331C302.017 313.07 302.153 312.721 302.153 312.357C302.153 311.994 302.017 311.644 301.772 311.383C301.527 311.122 301.194 310.968 300.842 310.956C300.49 310.968 300.157 311.122 299.913 311.383C299.668 311.644 299.531 311.994 299.531 312.357C299.531 312.721 299.668 313.07 299.913 313.331C300.157 313.593 300.49 313.746 300.842 313.758Z" fill="#D6D6D6"/>
<path d="M290.098 305.667L288.128 304.797L276.531 341.428L279.851 341.535L290.098 305.667Z" fill="#6C7FD8"/>
<path d="M259.817 323.79H265.353C265.353 323.79 265.81 320.322 274.211 318.601C277.19 318.024 280.052 316.931 282.678 315.368C283.1 315.062 283.574 314.84 284.074 314.711C284.888 314.711 287.18 317.233 282.941 319.251L278.47 320.958L286.384 322.056C286.903 322.128 287.43 322.12 287.947 322.033L297.746 320.371C298.105 320.285 298.482 320.341 298.805 320.526C299.127 320.711 299.372 321.013 299.491 321.373C299.709 322.248 298.963 323.459 297.524 323.865C297.784 323.77 298.06 323.733 298.335 323.757C298.609 323.781 298.876 323.866 299.116 324.005C299.356 324.144 299.565 324.334 299.729 324.563C299.892 324.793 300.006 325.055 300.063 325.334C300.121 325.612 300.119 325.9 300.06 326.178C300.001 326.455 299.885 326.717 299.72 326.945C299.555 327.173 299.345 327.362 299.103 327.499C298.862 327.636 298.595 327.718 298.32 327.74L285.415 330.5C288.997 330.167 292.571 329.734 296.16 329.502C297.974 329.384 298.131 330.397 298.15 330.735C298.267 332.88 283.786 335.718 283.749 335.728C283.749 335.728 283.379 336.72 283.835 337.213C284.033 337.355 284.262 337.447 284.501 337.481C284.741 337.515 284.985 337.491 285.214 337.409C287.62 336.759 289.97 335.902 292.237 334.845C292.414 334.791 293.671 334.416 293.988 334.908C294.184 335.213 293.935 335.717 293.842 335.896C292.702 338.082 288.307 341.445 285.539 341.613C282.772 341.781 257.769 340.688 257.769 340.688C259.864 335.336 260.571 329.511 259.817 323.79Z" fill="#F9977A"/>
<path d="M248.423 359.212C250.082 356.537 251.61 353.777 253 350.943C254.401 348.127 255.642 345.229 256.719 342.265C257.8 339.322 258.604 336.279 259.118 333.176C259.653 330.116 259.681 326.984 259.201 323.915L259.189 323.851L259.196 323.692C259.166 323.322 259.032 322.969 258.81 322.677C258.511 322.338 258.159 322.053 257.768 321.833C257.338 321.603 256.885 321.422 256.417 321.295C255.937 321.143 255.445 321.034 254.948 320.966C252.895 320.694 250.821 320.648 248.758 320.828C247.715 320.867 246.673 321.006 245.63 321.127C244.585 321.229 243.546 321.405 242.507 321.58C240.422 321.882 238.361 322.368 236.29 322.776L235.609 322.91L235.555 322.216C235.124 316.695 234.807 311.165 234.451 305.638C234.088 300.111 233.812 294.578 233.554 289.042C234.163 294.548 234.756 300.055 235.261 305.57C235.773 311.084 236.325 316.594 236.762 322.115L236.028 321.555C238.116 321.12 240.188 320.608 242.301 320.277C243.353 320.089 244.404 319.899 245.47 319.783C246.533 319.648 247.593 319.494 248.669 319.442C250.833 319.229 253.014 319.287 255.164 319.616C255.717 319.698 256.262 319.827 256.795 320C257.35 320.16 257.886 320.383 258.393 320.665C258.999 320.941 259.515 321.393 259.878 321.965C260.241 322.537 260.437 323.205 260.44 323.889L260.436 323.667C260.914 326.892 260.855 330.178 260.262 333.383C259.657 336.54 258.746 339.626 257.543 342.595C256.384 345.561 255.023 348.438 253.469 351.204C251.949 353.979 250.264 356.653 248.423 359.212Z" fill="#5E7C24"/>
<path d="M285.534 326.554C287.472 325.83 289.467 325.285 291.498 324.924C292.499 324.745 293.492 324.551 294.495 324.399C295.5 324.232 296.489 324.093 297.525 323.865C296.716 324.58 295.778 325.122 294.765 325.459C293.783 325.823 292.775 326.106 291.749 326.303C289.704 326.725 287.606 326.81 285.534 326.554Z" fill="#DD765E"/>
<path d="M288.128 304.797L309.47 304.419L310.785 305.667L290.098 306.102L288.128 304.797Z" fill="#6C7FD8"/>
<path d="M290.098 306.102C289.683 306.106 289.275 305.983 288.928 305.747C288.762 305.637 288.61 305.505 288.478 305.352C288.411 305.363 288.343 305.354 288.281 305.325C288.219 305.297 288.166 305.251 288.129 305.192C288.092 305.133 288.073 305.065 288.072 304.995C288.072 304.925 288.091 304.857 288.128 304.798C288.164 304.739 288.217 304.692 288.278 304.663C288.34 304.634 288.409 304.624 288.476 304.634C288.543 304.645 288.605 304.675 288.656 304.721C288.707 304.767 288.744 304.827 288.762 304.895C288.951 304.955 289.131 305.042 289.297 305.152C289.65 305.379 289.929 305.71 290.098 306.102Z" fill="#065082"/>
</g>
<defs>
<clipPath id="clip0_499_1796">
<rect width="630" height="571" fill="white"/>
</clipPath>
</defs>
</svg>
