<svg width="148" height="148" viewBox="0 0 148 148" fill="none" xmlns="http://www.w3.org/2000/svg">
<g clip-path="url(#clip0_95_9750)">
<rect width="148" height="148" rx="74" fill="white"/>
<circle cx="74" cy="74" r="74" fill="#E5FFDE"/>
<path d="M105.568 57.171C105.568 57.171 110.807 56.5346 111.281 61.5222C111.754 66.5098 110.082 70.343 106.974 72.0006C106.974 72.0006 106.308 72.3262 104.784 72.5926L105.568 57.1858V57.171Z" fill="#FFB69F"/>
<path d="M46.2941 57.171C46.2941 57.171 41.0549 56.5346 40.5813 61.5222C40.1077 66.5098 41.7801 70.343 44.8881 72.0006C44.8881 72.0006 45.5541 72.3262 47.0785 72.5926L46.2941 57.1858V57.171Z" fill="#FFB69F"/>
<path d="M4.43994 155.001C4.43994 155.001 4.43994 134.074 16.6943 129.945C28.9487 125.816 56.6395 109.965 56.6395 109.965H75.3763V155.001H4.43994Z" fill="#F49037"/>
<path d="M145.158 155.001C145.158 155.001 145.158 134.074 132.903 129.945C120.649 125.816 93.254 109.965 93.254 109.965H74.2212V155.001H145.158Z" fill="#F49037"/>
<path d="M61.3014 95.4888L59.5698 109.963H90.0282L88.1338 95.4888H61.3014Z" fill="#FFB69F"/>
<path d="M74.799 118.623C83.2099 118.623 90.0282 115.661 90.0282 112.008C90.0282 108.354 83.2099 105.392 74.799 105.392C66.3882 105.392 59.5698 108.354 59.5698 112.008C59.5698 115.661 66.3882 118.623 74.799 118.623Z" fill="#FFB69F"/>
<path d="M60.1467 105.168C60.1467 105.168 80.9407 107.077 88.2667 97.9602V87.4818L61.9079 90.0126L60.1467 105.168Z" fill="#FF9988"/>
<path d="M76.0425 99.6926C92.807 99.6926 106.397 82.3188 106.397 60.887C106.397 39.4553 92.807 22.0814 76.0425 22.0814C59.278 22.0814 45.6877 39.4553 45.6877 60.887C45.6877 82.3188 59.278 99.6926 76.0425 99.6926Z" fill="#FFB69F"/>
<path d="M102.549 29.8971C102.549 29.8971 102.579 29.8231 102.549 29.7787C101.543 27.3663 100.314 15.2451 80.5712 13.4099C75.5096 12.9363 68.2724 13.7799 63.6844 15.9703C57.3944 18.9599 50.3644 20.6767 44.1484 20.6619C43.882 20.6619 43.7784 21.0171 44.0152 21.1503L48.8696 25.0131C49.062 25.1167 49.0472 25.3979 48.84 25.4867L42.7424 27.3367C42.5204 27.4255 42.5204 27.7511 42.7424 27.8251C43.734 28.1507 46.25 29.2607 48.5292 30.0451C44.7996 36.6459 45.658 46.1327 45.658 57.5287C45.658 57.5287 45.5396 69.3391 49.5208 82.8811C53.872 97.6811 63.418 104.03 76.8712 104.075C91.1976 104.134 98.6716 91.8499 100.67 87.4839C103.718 80.7943 106.338 68.3623 106.353 60.8883C106.353 60.8883 111.858 42.0035 102.52 29.8971H102.549ZM90.3836 84.7311C87.4236 86.2407 88.9184 78.3819 83.028 78.0563C81.0596 77.9379 74.37 77.4791 68.746 77.9527C64.4688 78.3227 63.4328 82.1707 63.2404 84.1243C63.1516 84.9679 62.8556 85.3527 62.0564 85.0567C60.2804 84.4055 56.5064 82.3039 54.7304 80.3503C52.8952 78.3375 49.58 72.9059 49.2692 61.4359L49.5948 45.0523C49.5948 45.0523 56.1808 39.5319 57.3204 35.6099C57.3204 35.6099 86.7428 40.3163 95.2676 35.6099C95.2676 35.6099 98.8344 42.4327 102.727 44.4899C103.926 45.1115 103.718 52.8963 103.615 58.2687C103.511 58.9939 103.422 59.8227 103.378 60.7995C102.594 76.1471 93.314 83.2363 90.3688 84.7459L90.3836 84.7311Z" fill="#B54D4D"/>
<path d="M90.3841 63.9937C91.3731 63.9937 92.1749 62.6022 92.1749 60.8857C92.1749 59.1692 91.3731 57.7777 90.3841 57.7777C89.395 57.7777 88.5933 59.1692 88.5933 60.8857C88.5933 62.6022 89.395 63.9937 90.3841 63.9937Z" fill="#441D39"/>
<path d="M63.5215 63.3578C64.5105 63.3578 65.3123 61.9663 65.3123 60.2498C65.3123 58.5333 64.5105 57.1418 63.5215 57.1418C62.5325 57.1418 61.7307 58.5333 61.7307 60.2498C61.7307 61.9663 62.5325 63.3578 63.5215 63.3578Z" fill="#441D39"/>
<path d="M78.1294 74.8584H75.3026C74.0446 74.8584 72.9346 74.37 72.3426 73.556C71.9134 72.9788 71.795 72.298 72.0022 71.632C72.6386 69.5896 73.4674 61.9676 73.4674 61.8936C73.5118 61.4792 73.867 61.198 74.2814 61.2424C74.681 61.2868 74.977 61.6568 74.9326 62.0564C74.903 62.382 74.0742 69.8856 73.4082 72.076C73.349 72.298 73.3786 72.4904 73.5266 72.6976C73.8374 73.112 74.533 73.3932 75.3026 73.3932H78.1294C78.5438 73.3932 78.8694 73.7188 78.8694 74.1332C78.8694 74.5476 78.5438 74.8732 78.1294 74.8732V74.8584Z" fill="#FF9988"/>
<path d="M91.9518 68.8638C94.8045 68.8638 97.117 68.3338 97.117 67.6798C97.117 67.0259 94.8045 66.4958 91.9518 66.4958C89.0992 66.4958 86.7866 67.0259 86.7866 67.6798C86.7866 68.3338 89.0992 68.8638 91.9518 68.8638Z" fill="#FF9988"/>
<path d="M61.8041 68.8638C64.6568 68.8638 66.9693 68.3338 66.9693 67.6798C66.9693 67.0259 64.6568 66.4958 61.8041 66.4958C58.9515 66.4958 56.6389 67.0259 56.6389 67.6798C56.6389 68.3338 58.9515 68.8638 61.8041 68.8638Z" fill="#FF9988"/>
<path d="M96.658 53.6635C91.7296 52.2131 87.9556 53.1307 85.6616 53.4267C84.6848 53.5451 84.4776 52.3463 84.4776 52.3463C84.2852 51.5323 85.3804 50.9699 86.15 50.8219C88.74 50.3483 92.0552 50.1115 96.9688 51.8135C97.916 52.1391 97.9752 52.9383 97.9752 52.9383C97.8716 53.8263 97.3092 53.8411 96.658 53.6487V53.6635Z" fill="#B54D4D"/>
<path d="M56.9795 53.7543C61.8783 52.2151 65.6671 53.0735 67.9611 53.3251C68.9379 53.4287 69.1303 52.2299 69.1303 52.2299C69.3079 51.4159 68.1979 50.8683 67.4283 50.7351C64.8235 50.3059 61.5083 50.1135 56.6391 51.9043C55.6919 52.2447 55.6475 53.0439 55.6475 53.0439C55.7659 53.9319 56.3283 53.9319 56.9647 53.7395L56.9795 53.7543Z" fill="#B54D4D"/>
<path d="M75.8797 86.8773C72.3869 86.8773 69.6045 86.1373 69.4269 86.0929C69.0273 85.9893 68.8053 85.5749 68.9089 85.1901C69.0125 84.8053 69.4269 84.5685 69.8117 84.6721C69.8857 84.6869 76.6937 86.4925 82.1845 84.3465C82.5693 84.1985 82.9985 84.3909 83.1465 84.7609C83.2945 85.1457 83.1021 85.5749 82.7321 85.7229C80.4677 86.6109 78.0405 86.8921 75.8945 86.8921L75.8797 86.8773Z" fill="#9B3D3D"/>
<path d="M60.2213 105.242L72.0021 113.648L66.3041 127.294L51.0601 113.101L60.2213 105.242Z" fill="#FFA242"/>
<path d="M72.0021 113.648L72.7125 118.695L70.0337 118.355L72.0021 113.648Z" fill="#F49037"/>
<path d="M78.7215 113.382L77.6855 118.696L80.5863 118.207L78.7215 113.382Z" fill="#F49037"/>
<path d="M78.7214 113.382L89.5106 105.464L99.619 113.575L84.5822 128.597L78.7214 113.382Z" fill="#FFA242"/>
<path d="M77.6702 120.634H72.7122V154.985H77.6702V120.634Z" fill="white"/>
<path d="M72.6086 117.987L72.7122 121.006C72.7122 121.006 75.021 122.013 77.6702 121.006L77.7442 118.268L72.5938 117.972L72.6086 117.987Z" fill="#FFB69F"/>
<path d="M77.6702 127.887H72.7122V129.367H77.6702V127.887Z" fill="#D6D6D6"/>
<path d="M77.6702 134.561H72.7122V136.041H77.6702V134.561Z" fill="#D6D6D6"/>
<path d="M77.6702 141.236H72.7122V142.716H77.6702V141.236Z" fill="#D6D6D6"/>
<path d="M77.6702 147.91H72.7122V149.39H77.6702V147.91Z" fill="#D6D6D6"/>
<path d="M81.8886 135.998C82.6079 135.998 83.191 135.415 83.191 134.696C83.191 133.977 82.6079 133.394 81.8886 133.394C81.1693 133.394 80.5862 133.977 80.5862 134.696C80.5862 135.415 81.1693 135.998 81.8886 135.998Z" fill="#FFA242"/>
<path d="M81.8886 150.53C82.6079 150.53 83.191 149.947 83.191 149.227C83.191 148.508 82.6079 147.925 81.8886 147.925C81.1693 147.925 80.5862 148.508 80.5862 149.227C80.5862 149.947 81.1693 150.53 81.8886 150.53Z" fill="#FFA242"/>
</g>
<defs>
<clipPath id="clip0_95_9750">
<rect width="148" height="148" rx="74" fill="white"/>
</clipPath>
</defs>
</svg>
