<svg width="148" height="148" viewBox="0 0 148 148" fill="none" xmlns="http://www.w3.org/2000/svg">
<g clip-path="url(#clip0_95_9743)">
<rect width="148" height="148" rx="74" fill="white"/>
<circle cx="74" cy="74" r="74" fill="#FFDEDE"/>
<path d="M74.1919 18.6171C75.1243 18.8391 76.0567 18.9427 77.0039 18.8539C81.6807 18.4543 97.5907 18.2767 104.458 33.4319C112.539 51.3103 116.934 56.1499 111.296 76.9291C105.657 97.7083 110.156 96.9239 113.072 107.506L113.16 107.817C114.729 113.515 110.112 119.02 104.206 118.532L92.9139 117.57C92.0999 117.496 91.2711 117.555 90.4719 117.718C84.0487 119.05 53.3683 125.133 41.6023 122.054C37.5767 121.004 34.1283 119.731 31.2571 118.458C26.3435 116.282 24.8043 110.155 27.8531 105.73C29.1407 103.88 30.1471 101.852 30.3543 99.9135C30.9759 93.9343 26.8171 88.5471 28.4599 78.4091C31.1979 61.4335 36.3927 63.0023 37.3103 52.4055C37.8431 46.3375 46.9747 12.1199 74.1771 18.6171H74.1919Z" fill="#EB3F3A"/>
<path d="M74.1919 18.6171C75.1243 18.8391 76.0567 18.9427 77.0039 18.8539C81.6807 18.4543 97.5907 18.2767 104.458 33.4319C112.539 51.3103 116.934 56.1499 111.296 76.9291C105.657 97.7083 110.156 96.9239 113.072 107.506L113.16 107.817C114.729 113.515 110.112 119.02 104.206 118.532L92.9139 117.57C92.0999 117.496 91.2711 117.555 90.4719 117.718C84.0487 119.05 53.3683 125.133 41.6023 122.054C37.5767 121.004 34.1283 119.731 31.2571 118.458C26.3435 116.282 24.8043 110.155 27.8531 105.73C29.1407 103.88 30.1471 101.852 30.3543 99.9135C30.9759 93.9343 26.8171 88.5471 28.4599 78.4091C31.1979 61.4335 36.3927 63.0023 37.3103 52.4055C37.8431 46.3375 46.9747 12.1199 74.1771 18.6171H74.1919Z" fill="#EB3F3A"/>
<path d="M132.889 129.943C120.635 125.814 90.0136 109.963 90.0136 109.963L88.1192 95.4889H61.3015L59.5699 109.963C59.5699 109.963 28.9635 125.814 16.6943 129.943C4.42514 134.073 4.43994 155 4.43994 155H145.158C145.158 155 145.158 134.073 132.904 129.943H132.889Z" fill="#FFB69F"/>
<path d="M74.799 114.538C83.2099 114.538 90.0282 112.491 90.0282 109.965C90.0282 107.44 83.2099 105.392 74.799 105.392C66.3882 105.392 59.5698 107.44 59.5698 109.965C59.5698 112.491 66.3882 114.538 74.799 114.538Z" fill="#FFB69F"/>
<path d="M60.1467 105.168C60.1467 105.168 80.9407 107.077 88.2667 97.9602V87.4818L61.9079 90.0126L60.1467 105.168Z" fill="#FF9988"/>
<path d="M76.0425 99.6926C92.807 99.6926 106.397 82.3188 106.397 60.887C106.397 39.4553 92.807 22.0814 76.0425 22.0814C59.278 22.0814 45.6877 39.4553 45.6877 60.887C45.6877 82.3188 59.278 99.6926 76.0425 99.6926Z" fill="#FFB69F"/>
<path d="M105.435 57.171C105.435 57.171 110.674 56.5346 111.148 61.5222C111.621 66.5098 109.949 70.343 106.841 72.0006C106.841 72.0006 106.175 72.3262 104.651 72.5926L105.435 57.1858V57.171Z" fill="#FFB69F"/>
<path d="M46.2941 57.171C46.2941 57.171 41.0549 56.5346 40.5813 61.5222C40.1077 66.5098 41.7801 70.343 44.8881 72.0006C44.8881 72.0006 45.5541 72.3262 47.0785 72.5926L46.2941 57.1858V57.171Z" fill="#FFB69F"/>
<path d="M45.6874 57.5278C45.6874 57.5278 43.4822 21.8006 76.0422 22.2298V59.6146L45.6874 57.5278Z" fill="#FFB69F"/>
<path d="M106.382 57.5278C106.382 57.5278 108.587 21.8006 76.0273 22.2298V59.6146L106.382 57.5278Z" fill="#FFB69F"/>
<path d="M55.2332 53.1032C60.2356 52.2004 64.6608 52.9108 66.9104 53.34C67.5912 53.4732 68.272 53.1476 68.4792 52.5852C68.716 51.9488 68.272 51.2976 67.5024 51.1496C64.942 50.6612 60.3392 49.9212 55.5144 51.6084C54.7744 51.8748 53.4572 52.6 53.8568 53.1772C54.0788 53.3844 54.5672 53.2068 55.2332 53.0884V53.1032Z" fill="#EB3F3A"/>
<path d="M97.1623 53.1186C92.1599 52.2158 87.7347 52.9262 85.4851 53.3554C84.8043 53.4886 84.1235 53.1482 83.9163 52.5858C83.6795 51.9494 84.1235 51.2834 84.8931 51.1354C87.4535 50.6322 92.0563 49.8922 96.8811 51.609C97.6211 51.8754 98.9383 52.6006 98.5387 53.1926C98.3167 53.3998 97.8283 53.2222 97.1623 53.1038V53.1186Z" fill="#EB3F3A"/>
<path d="M90.3841 63.9937C91.3731 63.9937 92.1749 62.6022 92.1749 60.8857C92.1749 59.1692 91.3731 57.7777 90.3841 57.7777C89.395 57.7777 88.5933 59.1692 88.5933 60.8857C88.5933 62.6022 89.395 63.9937 90.3841 63.9937Z" fill="#441D39"/>
<path d="M63.5215 63.3578C64.5105 63.3578 65.3123 61.9663 65.3123 60.2498C65.3123 58.5333 64.5105 57.1418 63.5215 57.1418C62.5325 57.1418 61.7307 58.5333 61.7307 60.2498C61.7307 61.9663 62.5325 63.3578 63.5215 63.3578Z" fill="#441D39"/>
<path d="M78.1294 74.858H75.3026C74.0446 74.858 72.9346 74.3696 72.3426 73.5556C71.9134 72.9784 71.795 72.2976 72.0022 71.6316C72.6534 69.5004 73.201 67.4728 73.201 67.4728C73.3046 67.0732 73.719 66.8512 74.1038 66.9548C74.5034 67.0584 74.7402 67.4728 74.6218 67.8576C74.6218 67.8576 74.0742 69.9148 73.4082 72.0608C73.349 72.2828 73.3786 72.4752 73.5266 72.6824C73.8374 73.0968 74.533 73.378 75.3026 73.378H78.1294C78.5438 73.378 78.8694 73.7036 78.8694 74.118C78.8694 74.5324 78.5438 74.858 78.1294 74.858Z" fill="#FF9988"/>
<path d="M71.7054 84.4924C70.329 84.4924 69.4262 84.4184 69.3226 84.4036C68.923 84.374 68.6122 84.004 68.6566 83.6044C68.6862 83.19 69.0562 82.9088 69.4558 82.9236C69.5446 82.9236 77.8918 83.6044 84.0782 80.5556C84.4482 80.378 84.8922 80.526 85.0698 80.896C85.2474 81.266 85.0994 81.71 84.7294 81.8876C80.2006 84.1224 74.769 84.4776 71.7202 84.4776L71.7054 84.4924Z" fill="#FF9988"/>
<path d="M91.8637 68.8638C94.7164 68.8638 97.0289 68.3338 97.0289 67.6798C97.0289 67.0259 94.7164 66.4958 91.8637 66.4958C89.011 66.4958 86.6985 67.0259 86.6985 67.6798C86.6985 68.3338 89.011 68.8638 91.8637 68.8638Z" fill="#FF9988"/>
<path d="M61.7304 68.8638C64.583 68.8638 66.8956 68.3338 66.8956 67.6798C66.8956 67.0259 64.583 66.4958 61.7304 66.4958C58.8777 66.4958 56.5652 67.0259 56.5652 67.6798C56.5652 68.3338 58.8777 68.8638 61.7304 68.8638Z" fill="#FF9988"/>
<path d="M90.0274 109.965C90.0274 109.965 89.5982 104.993 89.3318 104.682C82.657 106.798 70.0622 106.561 60.2498 104.282C60.2498 104.282 59.4062 107.597 47.0778 116.285L28.9034 124.943L27.231 155.002H120.678L117.57 123.641L90.0422 109.965H90.0274Z" fill="#1C2642"/>
<path d="M86.1508 20.9431C86.1064 20.8691 86.0768 20.7803 86.0324 20.7211C85.0704 19.1227 70.2556 18.4715 69.0272 18.8563C68.0356 19.1671 55.2632 26.5227 50.4088 29.3347C49.21 30.0303 48.2924 31.1107 47.8188 32.4131L37.962 59.1419C37.7252 59.7783 37.6068 60.4591 37.592 61.1547L37.2072 115.056C37.1924 118.105 35.5496 120.118 38.5836 120.429L51.9332 121.953C54.8488 122.249 57.5276 120.384 58.2676 117.557L59.3036 111.682C59.6588 110.32 59.2444 109.255 59.4072 107.597C59.9696 102.062 50.9416 89.2895 52.2292 85.4119C53.8276 80.5871 56.018 75.4219 56.4028 68.8803C56.7876 62.3387 52.5548 50.7947 58.5192 36.7643C63.3144 25.4867 74.444 27.7363 78.6176 29.0535C78.9284 29.1571 79.254 29.2163 79.5796 29.2607C79.5796 29.2607 103.556 36.6903 104.177 63.3599C104.177 63.3599 105.154 64.8695 105.776 63.0935C110.053 50.7651 104.503 23.5923 86.136 20.9579L86.1508 20.9431Z" fill="#EB3F3A"/>
<path d="M106.352 70.3586C106.908 70.3586 107.359 69.908 107.359 69.3522C107.359 68.7964 106.908 68.3458 106.352 68.3458C105.797 68.3458 105.346 68.7964 105.346 69.3522C105.346 69.908 105.797 70.3586 106.352 70.3586Z" fill="white"/>
</g>
<defs>
<clipPath id="clip0_95_9743">
<rect width="148" height="148" rx="74" fill="white"/>
</clipPath>
</defs>
</svg>
