<svg width="149" height="148" viewBox="0 0 149 148" fill="none" xmlns="http://www.w3.org/2000/svg">
<g clip-path="url(#clip0_95_11123)">
<path d="M74.5744 148.087C115.163 148.087 148.078 114.95 148.078 74.087C148.078 33.224 115.163 0.0869751 74.5744 0.0869751C33.9857 0.0869751 1.07104 33.224 1.07104 74.087C1.07104 114.95 33.9857 148.087 74.5744 148.087Z" fill="#F7F8FB"/>
<path d="M74.5744 148.087C115.163 148.087 148.078 114.95 148.078 74.087C148.078 33.224 115.163 0.0869751 74.5744 0.0869751C33.9857 0.0869751 1.07104 33.224 1.07104 74.087C1.07104 114.95 33.9857 148.087 74.5744 148.087Z" />
<path fill-rule="evenodd" clip-rule="evenodd" d="M74.4035 46.0341H74.8782C85.323 46.3414 93.6992 56.4129 93.6992 68.806C93.6992 81.1991 85.323 91.3047 74.8782 91.5779H74.3695C62.4666 91.5779 55.0739 79.7993 55.0739 68.7719C55.0739 56.3788 63.45 46.2731 73.8948 46H74.4035V46.0341ZM32.2853 132.41C32.2853 132.41 46.4264 104.312 56.6677 99.5326C65.0439 95.6406 83.797 95.6406 92.1392 99.5326C102.381 104.278 116.522 132.41 116.522 132.41C102.584 143.847 85.0178 146.852 76.7434 147.637V147.91C76.7434 147.91 75.8956 147.91 74.4035 147.808C72.9114 147.91 72.0636 147.91 72.0636 147.91V147.637C63.7891 146.852 46.2229 143.847 32.2853 132.41Z" fill="#4FC3F7"/>
<path d="M147.5 74C147.5 114.317 115.027 147 74.9966 147C34.9666 147 2.49329 114.317 2.49329 74C2.49329 33.683 34.9666 1 74.9966 1C115.027 1 147.5 33.683 147.5 74Z" stroke="#F7F8FB" stroke-width="2"/>
</g>
<defs>
<clipPath id="clip0_95_11123">
<rect width="148" height="148" fill="white" transform="translate(0.5)"/>
</clipPath>
</defs>
</svg>
