<svg width="628" height="252" viewBox="0 0 628 252" fill="none" xmlns="http://www.w3.org/2000/svg">
<path d="M608.285 139.446H274.752C263.864 139.446 255.037 148.272 255.037 159.161V231.381C255.037 242.269 263.864 251.096 274.752 251.096H608.285C619.173 251.096 628 242.269 628 231.381V159.161C628 148.272 619.173 139.446 608.285 139.446Z" fill="#F7F8FB"/>
<path d="M311.874 234.687C334.067 234.687 352.059 216.695 352.059 194.502C352.059 172.308 334.067 154.316 311.874 154.316C289.68 154.316 271.688 172.308 271.688 194.502C271.688 216.695 289.68 234.687 311.874 234.687Z" fill="#E5E7EB"/>
<path d="M589.541 157.852H381.422C376.712 157.852 372.894 161.67 372.894 166.38C372.894 171.09 376.712 174.908 381.422 174.908H589.541C594.251 174.908 598.07 171.09 598.07 166.38C598.07 161.67 594.251 157.852 589.541 157.852Z" fill="#E5E7EB"/>
<path d="M541.772 186.189H381.422C376.712 186.189 372.894 190.008 372.894 194.718C372.894 199.428 376.712 203.246 381.422 203.246H541.772C546.482 203.246 550.301 199.428 550.301 194.718C550.301 190.008 546.482 186.189 541.772 186.189Z" fill="#E5E7EB"/>
<path d="M419.152 217.631H381.422C376.712 217.631 372.894 221.449 372.894 226.159C372.894 230.869 376.712 234.687 381.422 234.687H419.152C423.862 234.687 427.68 230.869 427.68 226.159C427.68 221.449 423.862 217.631 419.152 217.631Z" fill="#E5E7EB"/>
<path d="M369.44 19.7959H35.9071C25.0189 19.7959 16.1923 28.6225 16.1923 39.5107V111.731C16.1923 122.619 25.0189 131.446 35.9071 131.446H369.44C380.328 131.446 389.155 122.619 389.155 111.731V39.5107C389.155 28.6225 380.328 19.7959 369.44 19.7959Z" fill="#F7F8FB"/>
<path d="M353.248 0.904297H19.7147C8.82651 0.904297 -0.00012207 9.73093 -0.00012207 20.6191V92.8394C-0.00012207 103.728 8.82651 112.554 19.7147 112.554H353.248C364.136 112.554 372.962 103.728 372.962 92.8394V20.6191C372.962 9.73093 364.136 0.904297 353.248 0.904297Z" fill="#E5E7EB"/>
<path d="M56.8366 96.1456C79.0303 96.1456 97.0219 78.154 97.0219 55.9602C97.0219 33.7665 79.0303 15.7749 56.8366 15.7749C34.6428 15.7749 16.6512 33.7665 16.6512 55.9602C16.6512 78.154 34.6428 96.1456 56.8366 96.1456Z" fill="white"/>
<path d="M334.504 19.2964H126.385C121.675 19.2964 117.857 23.1146 117.857 27.8246C117.857 32.5347 121.675 36.3529 126.385 36.3529H334.504C339.214 36.3529 343.033 32.5347 343.033 27.8246C343.033 23.1146 339.214 19.2964 334.504 19.2964Z" fill="white"/>
<path d="M286.735 47.634H126.385C121.675 47.634 117.857 51.4523 117.857 56.1623C117.857 60.8723 121.675 64.6905 126.385 64.6905H286.735C291.445 64.6905 295.264 60.8723 295.264 56.1623C295.264 51.4523 291.445 47.634 286.735 47.634Z" fill="white"/>
<path d="M164.115 79.0757H126.385C121.675 79.0757 117.857 82.8939 117.857 87.6039C117.857 92.314 121.675 96.1322 126.385 96.1322H164.115C168.825 96.1322 172.643 92.314 172.643 87.6039C172.643 82.8939 168.825 79.0757 164.115 79.0757Z" fill="white"/>
</svg>
