<svg width="400" height="300" viewBox="150 150 630 600" fill="none" xmlns="http://www.w3.org/2000/svg">
<path d="M760.285 458.637H426.752C415.864 458.637 407.037 467.464 407.037 478.352V550.572C407.037 561.461 415.864 570.287 426.752 570.287H760.285C771.173 570.287 780 561.461 780 550.572V478.352C780 467.464 771.173 458.637 760.285 458.637Z" fill="#F7F8FB"/>
<path d="M463.874 553.878C486.068 553.878 504.059 535.887 504.059 513.693C504.059 491.499 486.068 473.508 463.874 473.508C441.68 473.508 423.689 491.499 423.689 513.693C423.689 535.887 441.68 553.878 463.874 553.878Z" fill="#E5E7EB"/>
<path d="M741.542 477.043H533.423C528.713 477.043 524.895 480.861 524.895 485.571C524.895 490.281 528.713 494.1 533.423 494.1H741.542C746.252 494.1 750.07 490.281 750.07 485.571C750.07 480.861 746.252 477.043 741.542 477.043Z" fill="#E5E7EB"/>
<path d="M693.773 505.381H533.423C528.713 505.381 524.895 509.199 524.895 513.909C524.895 518.619 528.713 522.437 533.423 522.437H693.773C698.483 522.437 702.301 518.619 702.301 513.909C702.301 509.199 698.483 505.381 693.773 505.381Z" fill="#E5E7EB"/>
<path d="M571.152 536.822H533.423C528.713 536.822 524.895 540.64 524.895 545.35C524.895 550.061 528.713 553.879 533.423 553.879H571.152C575.862 553.879 579.68 550.061 579.68 545.35C579.68 540.64 575.862 536.822 571.152 536.822Z" fill="#E5E7EB"/>
<path d="M521.44 338.987H187.907C177.019 338.987 168.193 347.814 168.193 358.702V430.922C168.193 441.811 177.019 450.637 187.907 450.637H521.44C532.329 450.637 541.155 441.811 541.155 430.922V358.702C541.155 347.814 532.329 338.987 521.44 338.987Z" fill="#F7F8FB"/>
<path d="M505.248 320.096H171.715C160.827 320.096 152 328.922 152 339.811V412.031C152 422.919 160.827 431.746 171.715 431.746H505.248C516.136 431.746 524.963 422.919 524.963 412.031V339.811C524.963 328.922 516.136 320.096 505.248 320.096Z" fill="#E5E7EB"/>
<path d="M208.837 415.337C231.031 415.337 249.022 397.345 249.022 375.152C249.022 352.958 231.031 334.966 208.837 334.966C186.643 334.966 168.652 352.958 168.652 375.152C168.652 397.345 186.643 415.337 208.837 415.337Z" fill="white"/>
<path d="M486.505 338.488H278.386C273.676 338.488 269.857 342.306 269.857 347.016C269.857 351.726 273.676 355.544 278.386 355.544H486.505C491.215 355.544 495.033 351.726 495.033 347.016C495.033 342.306 491.215 338.488 486.505 338.488Z" fill="white"/>
<path d="M438.736 366.825H278.386C273.676 366.825 269.857 370.644 269.857 375.354C269.857 380.064 273.676 383.882 278.386 383.882H438.736C443.446 383.882 447.264 380.064 447.264 375.354C447.264 370.644 443.446 366.825 438.736 366.825Z" fill="white"/>
<path d="M316.115 398.267H278.386C273.676 398.267 269.857 402.085 269.857 406.795C269.857 411.505 273.676 415.324 278.386 415.324H316.115C320.825 415.324 324.643 411.505 324.643 406.795C324.643 402.085 320.825 398.267 316.115 398.267Z" fill="white"/>
</svg>
