<svg width="607" height="505" viewBox="0 0 607 505" fill="none" xmlns="http://www.w3.org/2000/svg">
<g clip-path="url(#clip0_1741_7)">
<path d="M85.5998 276.957H44.5752V236.972C44.5752 231.513 46.7363 226.278 50.5831 222.418C54.4299 218.558 59.6473 216.389 65.0875 216.389C70.5277 216.389 75.745 218.558 79.5918 222.418C83.4386 226.278 85.5997 231.513 85.5997 236.972L85.5998 276.957Z" fill="#FFBA55"/>
<path d="M65.8058 253.359C74.2843 253.359 81.1575 246.462 81.1575 237.955C81.1575 229.447 74.2843 222.551 65.8058 222.551C57.3273 222.551 50.4541 229.447 50.4541 237.955C50.4541 246.462 57.3273 253.359 65.8058 253.359Z" fill="white"/>
<path d="M70.1827 225.828C69.1176 230.013 67.755 234.091 66.3156 238.14L66.0888 237.491C69.8974 239.832 73.6559 242.255 77.2379 244.968C73.1987 243.006 69.3359 240.754 65.5234 238.419L65.1438 238.186L65.2965 237.769C66.7748 233.734 68.33 229.727 70.1827 225.828Z" fill="#080200"/>
<path d="M200.641 133.564C135.638 184.478 96.8648 398.802 218.748 400.324C282.905 401.125 397.017 443.434 472.251 482.708C545.405 520.895 529.147 312.361 454.144 215.948C379.141 119.534 265.644 82.6498 200.641 133.564Z" fill="#FFE3CB"/>
<path d="M504.503 503.903C498.984 503.903 492.924 502.213 486.426 498.82L486.985 497.743C502.061 505.611 514.175 504.211 522.987 493.579C539.085 474.159 542.486 425.411 531.862 366.354C520.707 304.343 496.221 244.408 466.365 206.028C426.646 154.971 375.91 117.473 323.499 100.441C271.174 83.4339 223.454 88.8754 189.13 115.76L188.385 114.801C223.036 87.6599 271.154 82.149 323.873 99.284C376.511 116.389 427.454 154.034 467.32 205.28C497.293 243.809 521.866 303.942 533.054 366.138C543.741 425.539 540.24 474.668 523.919 494.356C518.651 500.71 512.089 503.903 504.503 503.903Z" fill="#FFE3CB"/>
<path d="M607.307 505.169H1.3463C1.01028 505.169 0.688028 505.035 0.450428 504.796C0.212827 504.558 0.0793457 504.234 0.0793457 503.897C0.0793457 503.56 0.212827 503.237 0.450428 502.998C0.688028 502.76 1.01028 502.626 1.3463 502.626H607.307C607.643 502.626 607.965 502.76 608.203 502.998C608.44 503.237 608.574 503.56 608.574 503.897C608.574 504.234 608.44 504.558 608.203 504.796C607.965 505.035 607.643 505.169 607.307 505.169Z" fill="#935B50"/>
<path d="M283.219 283.303H20.5032V493.829H283.219V283.303Z" fill="#D6694B"/>
<path d="M301.463 276.896H1.34619V283.303H301.463V276.896Z" fill="#E19974"/>
<path d="M277.062 289.711H26.6602V339.138H277.062V289.711Z" fill="#935B50"/>
<path d="M277.062 339.138H26.6602V388.566H277.062V339.138Z" fill="#935B50"/>
<path d="M277.062 388.566H26.6602V437.993H277.062V388.566Z" fill="#935B50"/>
<path d="M277.062 437.993H26.6602V487.421H277.062V437.993Z" fill="#935B50"/>
<path d="M162.351 459.503H141.37V465.911H162.351V459.503Z" fill="#D6694B"/>
<path d="M162.351 410.076H141.37V416.483H162.351V410.076Z" fill="#D6694B"/>
<path d="M162.351 360.648H141.37V367.055H162.351V360.648Z" fill="#D6694B"/>
<path d="M162.351 311.22H141.37V317.628H162.351V311.22Z" fill="#D6694B"/>
<path d="M55.9776 493.828H33.1724V503.897H55.9776V493.828Z" fill="#E19974"/>
<path d="M270.549 493.828H247.744V503.897H270.549V493.828Z" fill="#E19974"/>
<path d="M277.062 338.504H26.6602V339.775H277.062V338.504Z" fill="#E19974"/>
<path d="M277.062 387.93H26.6602V389.201H277.062V387.93Z" fill="#E19974"/>
<path d="M277.062 437.358H26.6602V438.629H277.062V437.358Z" fill="#E19974"/>
<path d="M478.972 364.789C482.613 367.628 489.028 374.37 489.201 379.427C489.201 379.427 500.992 366.563 497.64 355.562C495.654 351.451 492.359 348.121 488.277 346.099C488.277 346.099 492.9 343.497 497.755 349.885C497.755 349.885 496.021 332.614 472.037 338.884C472.037 338.884 462.674 319.721 444.122 337.819C444.122 337.819 456.605 336.222 454.178 340.126C454.178 340.126 446.664 342.137 441.723 346.435C440.48 347.539 439.469 348.881 438.75 350.383C438.03 351.884 437.617 353.514 437.533 355.178C437.244 359.85 436.801 369.097 437.707 369.225C438.92 369.402 446.896 362.128 452.271 362.66C457.646 363.192 439.96 379.161 439.96 379.161C439.96 379.161 443.602 393.001 445.162 392.824C446.722 392.646 452.387 388.684 450.074 392.824L446.087 396.017L451.288 403.233L464.35 397.437C464.35 397.437 458.57 381.586 463.888 385.904C463.888 385.904 467.933 391.286 467.991 395.308C467.991 395.308 485.474 387.678 483.74 382.444C481.852 377.587 479.645 372.861 477.132 368.298C476.711 367.527 476.464 366.672 476.41 365.795C476.352 364.464 476.699 363.015 478.972 364.789ZM476.824 346.415C478.461 345.281 482.488 346.011 484 349.707C485.618 353.66 485.551 358.066 483.913 359.2C482.276 360.333 477.623 358.855 476.458 355.03C475.167 350.772 475.186 347.548 476.824 346.415Z" fill="#8B9D36"/>
<path d="M472.036 338.884C470.171 341.012 468.448 343.261 466.876 345.615C465.39 348.009 464.164 350.556 463.219 353.213C462.266 355.863 461.499 358.581 460.811 361.33C460.113 364.082 459.447 366.83 458.891 369.605C458.303 372.373 457.788 375.159 457.367 377.956C456.934 380.753 456.684 383.567 456.342 386.396C455.677 392.078 453.988 397.592 451.357 402.668C452.478 400.066 453.404 397.382 454.126 394.641C454.874 391.918 455.367 389.131 455.597 386.316C456.014 380.635 456.796 374.986 457.94 369.406C458.528 366.618 459.229 363.853 459.955 361.108C460.64 358.335 461.498 355.609 462.524 352.945C463.565 350.277 464.892 347.731 466.482 345.351C468.167 343.057 470.024 340.895 472.036 338.884Z" fill="#5E7C24"/>
<path d="M465.228 347.9C464.268 348.085 463.319 348.325 462.387 348.617C461.45 348.878 460.528 349.19 459.615 349.521C457.794 350.195 456 350.935 454.239 351.752C452.469 352.551 450.75 353.46 449.022 354.362C447.299 355.276 445.619 356.272 443.89 357.218C444.64 356.581 445.423 355.984 446.199 355.375C447.012 354.821 447.812 354.243 448.644 353.713C450.308 352.647 452.041 351.696 453.833 350.866C455.629 350.034 457.487 349.346 459.39 348.809C461.286 348.244 463.25 347.938 465.228 347.9ZM457.326 375.341C455.982 376.387 454.584 377.242 453.218 378.135C452.534 378.575 451.866 379.03 451.213 379.5C450.54 379.948 449.974 380.539 449.554 381.231C449.646 380.35 450.056 379.532 450.707 378.933C451.307 378.323 451.972 377.78 452.69 377.316C454.107 376.388 455.676 375.719 457.326 375.341ZM460.004 362.703C461.586 364.191 463.063 365.788 464.422 367.484C465.806 369.166 467.076 370.939 468.224 372.791C469.398 374.638 470.392 376.594 471.192 378.631C472.036 380.657 472.498 382.822 472.556 385.016C472.135 382.907 471.445 380.86 470.504 378.927C469.583 376.992 468.546 375.116 467.399 373.307C466.285 371.473 465.06 369.705 463.829 367.937C462.586 366.177 461.303 364.441 460.004 362.703Z" fill="#5E7C24"/>
<path d="M444.006 418.137L448.861 422.632C448.861 422.632 453.6 417.605 454.12 421.094C454.12 421.094 453.369 424.584 452.444 424.88C452.444 424.88 464.06 434.254 466.401 426.536C467.342 423.083 468.53 419.703 469.956 416.422C469.956 416.422 472.556 417.841 470.302 429.02C470.302 429.02 479.293 426.369 482.631 421.506C483.014 420.932 483.219 420.256 483.218 419.565C483.25 416.785 483.616 408.959 486.774 411.897C486.774 411.897 488.594 412.785 487.207 418.729C487.207 418.729 494.524 410.452 491.048 405.365C490.362 404.412 489.367 403.727 488.234 403.427C487.1 403.127 485.899 403.23 484.833 403.719C482.801 404.604 479.031 406.234 472.036 409.236C463.031 413.185 453.635 416.168 444.006 418.137Z" fill="#8B9D36"/>
<path d="M460.005 424.998C460.454 422.441 461.259 419.96 462.394 417.626C462.955 416.442 463.643 415.323 464.447 414.289C464.857 413.764 465.33 413.292 465.857 412.885C466.38 412.46 467.031 412.226 467.704 412.223C467.104 412.402 466.571 412.758 466.173 413.243C465.76 413.707 465.389 414.206 465.063 414.735C464.403 415.807 463.804 416.915 463.268 418.055C462.152 420.332 461.158 422.677 460.005 424.998ZM475.794 421.331C475.661 419.041 475.869 416.744 476.409 414.515C476.679 413.39 477.059 412.295 477.544 411.245C477.99 410.148 478.801 409.24 479.839 408.674C479.089 409.488 478.542 410.47 478.245 411.538C477.906 412.59 477.615 413.661 477.354 414.745C476.828 416.917 476.391 419.117 475.794 421.331ZM556.59 340.751C556.59 340.751 544.916 342.432 555.319 350.712C555.319 350.712 557.977 352.96 566.646 355.562C566.646 355.562 572.079 331.855 556.59 340.751Z" fill="#5E7C24"/>
<path d="M566.646 355.562C566.43 354.785 566.288 354.008 566.093 353.244C565.858 352.49 565.693 351.721 565.414 350.992C564.908 349.528 564.252 348.12 563.457 346.792C562.642 345.487 561.653 344.299 560.517 343.263C559.358 342.21 558.03 341.361 556.59 340.751C558.191 341.022 559.701 341.684 560.987 342.679C562.299 343.663 563.416 344.883 564.282 346.277C565.123 347.675 565.745 349.193 566.129 350.78C566.328 351.563 566.418 352.37 566.56 353.158C566.599 353.964 566.648 354.765 566.646 355.562Z" fill="#50661A"/>
<path d="M541.773 292.853C541.773 292.853 554.716 284.578 558.593 302.951C558.593 302.951 551.876 297.15 551.787 300.506C553.963 303.062 555.618 306.021 556.659 309.216C557.263 311.597 556.927 314.12 555.723 316.259C554.078 319.263 550.754 325.165 550.17 324.898C549.387 324.54 547.525 316.955 544.159 315.214C540.793 313.472 544.987 330.19 544.987 330.19C544.987 330.19 537.474 337.369 536.625 336.658C535.777 335.946 533.986 331.308 533.737 334.765L534.842 338.282L528.983 340.751L523.557 332.123C523.557 332.123 533.108 324.522 528.307 325.15C528.307 325.15 523.839 326.928 522.244 329.4C522.244 329.4 514.931 317.931 517.982 315.353C520.963 313.082 524.087 311.006 527.335 309.14C527.99 308.767 528.538 308.23 528.926 307.582C529.357 306.838 529.44 306.045 527.639 306.243C524.397 306.601 518.009 308.309 515.943 311.378C515.943 311.378 514.009 298.857 520.25 293.328C522.969 291.561 526.202 290.765 529.427 291.068C529.427 291.068 527.72 287.672 522.387 289.762C522.387 289.762 530.111 279.722 541.773 292.853Z" fill="#5E7C24"/>
<path d="M547.573 313.421C546.512 310.839 545.536 308.27 544.32 305.833C543.739 304.615 543.038 303.459 542.228 302.382C541.472 301.257 540.32 300.461 539.003 300.154C539.725 300.131 540.442 300.274 541.1 300.573C541.758 300.872 542.338 301.318 542.797 301.878C543.765 302.924 544.572 304.11 545.189 305.396C546.429 307.917 547.235 310.63 547.573 313.421ZM520.988 319.602C521.648 318.168 522.479 316.82 523.462 315.587C524.433 314.325 525.562 313.194 526.819 312.221C528.083 311.217 529.531 310.471 531.081 310.026C532.634 309.612 534.275 309.666 535.798 310.179C534.278 310.048 532.746 310.244 531.307 310.753C529.903 311.299 528.589 312.055 527.41 312.995C526.2 313.927 525.071 314.96 524.034 316.083C522.986 317.209 521.956 318.369 520.988 319.602Z" fill="#50661A"/>
<path d="M533.125 294.525C533.602 293.885 534.201 293.348 534.887 292.943C535.573 292.539 536.332 292.275 537.121 292.169C537.913 292.045 538.717 292.023 539.514 292.104C539.912 292.143 540.303 292.224 540.699 292.287L541.858 292.589L542.145 292.663L542.026 292.963C540.514 296.795 539.23 300.732 537.961 304.66C536.72 308.6 535.601 312.577 534.506 316.561C533.454 320.557 532.468 324.571 531.55 328.603C530.627 332.634 529.814 336.691 528.983 340.751C529.491 336.639 530.101 332.535 530.901 328.467C531.629 324.382 532.617 320.351 533.619 316.327C534.63 312.303 535.831 308.329 537.124 304.388C538.409 300.441 539.848 296.552 541.52 292.742L541.688 293.116L540.584 292.786C540.208 292.714 539.834 292.62 539.456 292.558C538.699 292.435 537.928 292.41 537.164 292.483C535.605 292.614 534.158 293.346 533.125 294.525Z" fill="#50661A"/>
<path d="M537.126 330.042C536.75 328.625 536.231 327.251 535.576 325.941C535.27 325.352 534.812 324.856 534.249 324.506C533.599 324.215 532.89 324.082 532.178 324.12C532.531 323.91 532.922 323.775 533.328 323.72C533.734 323.666 534.146 323.694 534.541 323.803C535.345 324.105 536.011 324.69 536.416 325.45C537.176 326.852 537.427 328.475 537.126 330.042Z" fill="#50661A"/>
<path d="M493.94 424.998C493.94 424.998 491.639 417.029 485.798 421.534C483.813 423.117 482.393 425.304 481.751 427.765C480.697 431.58 479.787 438.492 482.381 448.301C482.381 448.301 488.361 440.001 492.784 437.064C497.773 433.752 500.991 426.181 493.94 424.998Z" fill="#C4CE6E"/>
<path d="M493.941 424.998C493.062 425.649 492.296 426.44 491.672 427.339C491.012 428.205 490.414 429.117 489.883 430.069C488.818 431.974 487.857 433.936 487.004 435.946C486.147 437.96 485.371 440.01 484.606 442.07L482.382 448.301C482.572 447.21 482.823 446.133 483.043 445.046C483.296 443.969 483.612 442.908 483.895 441.835C484.511 439.702 485.251 437.607 486.111 435.561C486.982 433.508 488.033 431.537 489.252 429.672C490.399 427.743 492.011 426.136 493.941 424.998ZM502.371 314.288C502.371 314.288 502.566 305.981 495.657 308.439C493.294 309.323 491.285 310.961 489.939 313.102C487.795 316.403 484.859 322.697 484.393 332.849C484.393 332.849 492.57 326.821 497.66 325.412C503.4 323.822 508.729 317.624 502.371 314.288Z" fill="#8B9D36"/>
<path d="M502.37 314.289C501.34 314.633 500.373 315.145 499.509 315.806C498.621 316.423 497.778 317.104 496.987 317.844C495.403 319.324 493.9 320.891 492.487 322.537C491.069 324.186 489.717 325.893 488.372 327.615L484.393 332.849C484.9 331.872 485.461 330.927 485.994 329.962C486.558 329.017 487.176 328.107 487.766 327.175C488.99 325.339 490.321 323.577 491.752 321.898C493.196 320.216 494.787 318.668 496.507 317.272C498.177 315.794 500.195 314.767 502.37 314.289Z" fill="#5E7C24"/>
<path d="M554.513 424.998C554.513 424.998 556.814 417.029 562.655 421.534C564.64 423.117 566.061 425.304 566.702 427.765C567.756 431.58 568.666 438.492 566.072 448.301C566.072 448.301 560.092 440.001 555.669 437.064C550.68 433.752 547.462 426.181 554.513 424.998Z" fill="#8B9D36"/>
<path d="M554.513 424.998C556.442 426.136 558.055 427.743 559.201 429.672C560.421 431.537 561.472 433.508 562.342 435.561C563.203 437.607 563.943 439.703 564.559 441.836C564.841 442.908 565.157 443.969 565.411 445.046C565.63 446.134 565.882 447.21 566.072 448.301L563.848 442.07C563.082 440.01 562.306 437.96 561.449 435.946C560.596 433.936 559.635 431.974 558.57 430.069C558.039 429.118 557.442 428.205 556.781 427.34C556.157 426.44 555.391 425.649 554.513 424.998Z" fill="#5E7C24"/>
<path d="M520.457 461.515L519.485 461.466C524.283 368.73 537.694 343.914 548.1 339.426C549.515 338.765 551.084 338.504 552.635 338.673C554.187 338.841 555.664 339.431 556.906 340.38L556.275 341.123C555.167 340.29 553.855 339.777 552.478 339.638C551.101 339.498 549.713 339.738 548.462 340.332C540.157 343.938 525.477 364.476 520.457 461.515Z" fill="#50661A"/>
<path d="M522.726 461.653C514.115 437.156 527.911 344.606 528.503 340.678L529.464 340.825C529.32 341.784 515.114 437.06 523.643 461.328L522.726 461.653ZM517.196 461.608C517.118 461.292 509.207 429.864 499.086 425.297C498.315 424.921 497.466 424.737 496.61 424.76C495.753 424.783 494.915 425.013 494.165 425.43L493.715 424.566C494.595 424.081 495.578 423.814 496.581 423.787C497.584 423.759 498.58 423.972 499.485 424.407C510.035 429.168 517.814 460.06 518.14 461.372L517.196 461.608Z" fill="#50661A"/>
<path d="M519.699 448.607L518.728 448.55C518.803 447.261 526.037 319.648 509.244 312.135C507.372 311.302 505.178 312.137 502.716 314.633L502.025 313.945C504.799 311.134 507.362 310.225 509.64 311.243C527.043 319.03 520.008 443.319 519.699 448.607ZM531.257 461.608L530.313 461.372C530.639 460.06 538.418 429.168 548.968 424.407C549.873 423.971 550.869 423.759 551.872 423.786C552.876 423.814 553.858 424.081 554.738 424.565L554.288 425.43C553.539 425.012 552.7 424.782 551.844 424.759C550.987 424.735 550.138 424.92 549.367 425.297C539.244 429.865 531.335 461.291 531.257 461.608Z" fill="#50661A"/>
<path d="M521.204 460.573C514.68 424.691 505.011 411.713 498.048 407.143C493.581 404.21 490.378 404.922 490.347 404.931L490.117 403.983C490.26 403.948 493.699 403.152 498.511 406.28C505.656 410.925 515.559 424.085 522.16 460.396L521.204 460.573ZM524.674 460.603C503.039 373.43 496.889 367.242 496.638 367.021L497.207 366.232C497.455 366.397 503.515 371.307 525.618 460.367L524.674 460.603ZM529.07 461.515L528.099 461.465C530.13 422.34 552.039 387.125 552.26 386.773L553.083 387.295C552.863 387.644 531.088 422.651 529.07 461.515Z" fill="#50661A"/>
<path d="M494.056 451.157V459.257C494.049 460.002 494.337 460.718 494.856 461.25C495.375 461.781 496.084 462.084 496.826 462.092H552.317C553.059 462.084 553.768 461.781 554.287 461.25C554.806 460.718 555.094 460.002 555.087 459.257V451.793C555.094 451.054 554.81 450.342 554.298 449.811C553.785 449.281 553.084 448.974 552.348 448.959L496.857 448.323C496.487 448.323 496.12 448.396 495.779 448.538C495.437 448.681 495.127 448.89 494.867 449.154C494.606 449.417 494.4 449.73 494.261 450.074C494.122 450.418 494.052 450.786 494.056 451.157Z" fill="#D6694B"/>
<path d="M496.705 462.092L498.678 503.897H549.16L552.439 462.092H496.705Z" fill="#E19974"/>
<path d="M543.585 384.651C543.662 380.837 551.522 387.757 551.522 387.757C546.841 366.671 531.882 375.464 531.882 375.464C518.204 359.969 509.323 371.019 509.323 371.019C515.497 368.899 517.51 372.842 517.51 372.842C513.824 372.322 510.072 373.073 506.866 374.971C499.671 380.965 502.031 395.298 502.031 395.298C504.401 391.907 511.817 390.27 515.574 390.014C517.934 389.856 517.52 391.02 516.884 391.907C516.458 392.482 515.908 392.953 515.276 393.287C511.519 395.251 507.899 397.468 504.439 399.921C500.914 402.7 509.525 416.097 509.525 416.097C511.355 413.366 516.528 411.552 516.528 411.552C522.105 411.069 511.076 419.261 511.076 419.261L517.462 429.335L524.253 426.802L522.933 422.751C523.193 418.827 525.312 424.19 526.305 425.037C527.296 425.895 535.966 418.088 535.966 418.088C535.966 418.088 530.938 398.866 534.858 401.015C538.788 403.154 541.023 411.868 541.938 412.312C542.622 412.647 546.427 406.091 548.315 402.75C548.998 401.557 549.441 400.24 549.616 398.875C549.791 397.509 549.696 396.123 549.336 394.795C548.074 391.08 546.123 387.638 543.585 384.651ZM521.652 384.494C519.147 386.574 515.294 385.42 514.678 383.873C514.052 382.335 515.969 379.269 518.839 377.318C521.527 375.484 524.619 376.854 525.235 378.402C525.861 379.94 524.436 382.168 521.652 384.494Z" fill="#5E7C24"/>
<path d="M531.88 375.464C532.378 377.762 532.704 380.094 532.855 382.441C532.901 384.807 532.692 387.171 532.23 389.492C531.759 391.802 531.14 394.08 530.375 396.309C529.652 398.537 528.904 400.769 528.067 402.966C526.362 407.344 524.37 411.604 522.105 415.719C520.999 417.763 520.087 419.907 519.382 422.123C518.646 424.34 518.073 426.609 517.668 428.911C518.085 424.206 519.363 419.619 521.438 415.379C522.459 413.262 523.546 411.207 524.492 409.076C525.449 406.952 526.334 404.793 527.161 402.614C528.018 400.446 528.787 398.246 529.536 396.03C530.291 393.819 530.97 391.595 531.501 389.338C532.038 387.079 532.333 384.769 532.381 382.448C532.359 380.112 532.191 377.779 531.88 375.464Z" fill="#50661A"/>
<path d="M532.54 384.832C533.908 385.759 535.14 386.874 536.202 388.143C537.282 389.394 538.259 390.731 539.122 392.142C539.984 393.549 540.745 395.016 541.401 396.531C541.729 397.287 542.014 398.061 542.317 398.824C542.565 399.611 542.829 400.389 543.041 401.185L540.729 396.862C539.93 395.446 539.155 394.024 538.295 392.654C537.454 391.272 536.555 389.929 535.62 388.609C535.148 387.951 534.661 387.303 534.141 386.681C533.64 386.037 533.105 385.42 532.54 384.832ZM525.743 407.362C526.757 408.352 527.567 409.533 528.126 410.838C528.413 411.495 528.623 412.183 528.753 412.888C528.925 413.615 528.819 414.38 528.456 415.032C528.442 414.36 528.294 413.697 528.019 413.084C527.768 412.465 527.509 411.847 527.235 411.229C526.655 409.974 526.156 408.682 525.743 407.362ZM529.533 397.434C527.874 398.054 526.226 398.662 524.594 399.303C522.968 399.956 521.342 400.6 519.764 401.341C518.174 402.046 516.626 402.844 515.128 403.73C513.617 404.609 512.222 405.675 510.974 406.901C511.964 405.403 513.236 404.113 514.717 403.103C516.171 402.063 517.728 401.175 519.362 400.452C520.979 399.715 522.647 399.094 524.353 398.596C526.047 398.075 527.779 397.686 529.533 397.434Z" fill="#50661A"/>
<path d="M578.465 360.816C578.465 360.816 589.741 343.915 603.843 363.874C603.843 363.874 592.799 360.53 594.418 364.606C598.345 366.501 601.855 369.163 604.746 372.434C606.7 374.984 607.595 378.193 607.245 381.39C606.816 385.881 605.862 394.754 605.024 394.748C603.901 394.74 597.764 386.642 592.83 386.365C587.895 386.088 601.527 403.891 601.527 403.891C601.527 403.891 596.203 416.553 594.819 416.156C593.436 415.759 588.9 411.159 590.381 415.441L593.515 419.066L587.754 425.185L576.805 417.754C576.805 417.754 584.356 403.488 578.918 406.828C578.918 406.828 574.471 411.368 573.828 415.194C573.828 415.194 559.153 405.37 561.489 400.633C563.893 396.309 566.569 392.143 569.502 388.16C570.092 387.365 570.477 386.435 570.62 385.454C570.766 384.313 570.477 383.276 568.392 384.499C564.685 386.674 557.898 392.166 556.998 396.961C556.998 396.961 548.236 382.978 552.881 372.98C555.228 369.404 558.693 366.711 562.732 365.325C562.732 365.325 558.937 362.17 553.611 367.551C553.611 367.551 557.716 351.341 578.465 360.816Z" fill="#C4CE6E"/>
<path d="M578.466 360.817C580.437 365.907 582.066 371.124 583.343 376.433C584.666 381.731 585.689 387.104 586.491 392.508C587.27 397.917 587.775 403.362 588.003 408.821C588.238 414.276 588.155 419.74 587.755 425.186C587.712 419.731 587.685 414.288 587.256 408.862C587.094 406.148 586.826 403.442 586.575 400.735C586.249 398.037 585.969 395.332 585.53 392.649C584.812 387.259 583.779 381.916 582.618 376.604C581.449 371.292 580.102 366.016 578.466 360.817Z" fill="#8B9D36"/>
<path d="M581.28 369.813C580.368 370.952 579.553 372.165 578.843 373.442C578.135 374.702 577.497 376.002 576.931 377.333C576.362 378.663 575.868 380.027 575.41 381.409C574.957 382.794 574.551 384.199 574.12 385.62C574.145 384.88 574.219 384.142 574.286 383.401C574.409 382.671 574.497 381.928 574.678 381.206C575.004 379.75 575.459 378.325 576.037 376.949C576.626 375.574 577.353 374.261 578.206 373.033C579.044 371.794 580.083 370.706 581.28 369.813ZM585.972 392.199C587.465 392.536 588.873 393.179 590.108 394.086C591.343 394.994 592.378 396.147 593.149 397.474C593.665 398.352 594.031 399.311 594.232 400.31C593.662 399.471 593.133 398.654 592.521 397.901C591.931 397.142 591.285 396.427 590.589 395.765C589.9 395.09 589.169 394.461 588.401 393.879C587.624 393.299 586.829 392.726 585.972 392.199Z" fill="#8B9D36"/>
<path d="M425.99 185.241C425.99 185.241 426.012 167.333 430.47 164.186C434.927 161.038 434.927 166.671 434.927 166.671C434.927 166.671 439.055 164.02 439.055 168.99C439.055 168.99 442.687 168.879 442.191 174.235C442.191 174.235 445.989 171.972 444.668 178.432C443.518 183.367 442.013 188.212 440.165 192.929L425.99 185.241Z" fill="#FFC79E"/>
<path d="M429.644 171.64C431.617 172.391 433.534 173.256 435.452 174.117C437.36 175 439.254 175.912 441.125 176.868L441.313 176.965L441.357 177.146C441.492 177.623 441.518 178.124 441.432 178.612C441.346 179.1 441.151 179.563 440.861 179.964C440.538 180.315 440.146 180.597 439.711 180.791C439.276 180.986 438.805 181.089 438.329 181.096C437.454 181.132 436.579 181.047 435.728 180.844C434.894 180.649 434.075 180.396 433.276 180.089C434.124 180.202 434.948 180.394 435.79 180.442C436.61 180.54 437.438 180.541 438.258 180.445C439.005 180.367 439.699 180.016 440.205 179.458C440.393 179.154 440.516 178.814 440.565 178.459C440.615 178.105 440.59 177.744 440.493 177.399L440.724 177.676C438.836 176.755 436.969 175.789 435.116 174.796C433.274 173.779 431.431 172.766 429.644 171.64Z" fill="#DD765E"/>
<path d="M434.927 166.67C434.983 167.852 434.867 169.036 434.582 170.184C434.335 171.34 433.918 172.454 433.345 173.488C433.287 172.307 433.403 171.123 433.69 169.975C433.939 168.819 434.356 167.706 434.927 166.67ZM439.054 168.99C439.128 170.133 439.03 171.282 438.763 172.396C438.533 173.519 438.133 174.599 437.577 175.601C437.501 174.457 437.599 173.309 437.869 172.195C438.101 171.073 438.501 169.992 439.054 168.99ZM440.925 177.273C440.828 176.699 440.901 176.109 441.135 175.576C441.022 175.42 440.962 175.23 440.966 175.037C440.969 174.843 441.036 174.656 441.156 174.504C441.276 174.352 441.441 174.243 441.628 174.195C441.815 174.146 442.013 174.16 442.191 174.235C442.369 174.31 442.518 174.441 442.615 174.608C442.712 174.776 442.751 174.971 442.727 175.163C442.704 175.355 442.618 175.534 442.483 175.673C442.348 175.812 442.172 175.903 441.981 175.931C441.768 176.472 441.4 176.939 440.925 177.273Z" fill="#DD765E"/>
<path d="M326.566 58.4844C326.566 58.4844 338.801 45.4473 337.713 40.0882C336.625 34.7292 332.771 38.8248 332.771 38.8248C332.771 38.8248 331.583 34.0545 328.183 37.6683C328.183 37.6683 325.619 35.0855 322.314 39.322C322.314 39.322 321.101 35.0605 317.642 40.6683C315.102 45.0488 312.882 49.6085 310.999 54.3114L326.566 58.4844Z" fill="#FFC79E"/>
<path d="M333.213 46.0775C331.143 45.6656 329.11 45.1322 327.075 44.6027C325.048 44.0491 323.03 43.4655 321.026 42.8343L321.384 42.7921C321.077 42.9758 320.813 43.2215 320.606 43.5134C320.4 43.8053 320.256 44.1372 320.184 44.4878C320.172 45.2421 320.435 45.9749 320.925 46.547C321.456 47.1813 322.059 47.751 322.722 48.2443C323.367 48.7895 324.098 49.2171 324.792 49.7192C324.001 49.3925 323.232 49.0117 322.492 48.5797C321.734 48.1407 321.04 47.5993 320.429 46.9707C320.086 46.638 319.815 46.2388 319.632 45.7975C319.448 45.3561 319.356 44.8819 319.362 44.4037C319.425 43.9122 319.6 43.4416 319.871 43.0274C320.143 42.6133 320.505 42.2665 320.929 42.0131L321.085 41.911L321.287 41.9708C323.303 42.5645 325.303 43.2059 327.295 43.8773C329.279 44.5728 331.265 45.2644 333.213 46.0775Z" fill="#DD765E"/>
<path d="M332.771 38.8244C332.478 39.9702 332.019 41.0669 331.41 42.0796C330.833 43.1116 330.108 44.0524 329.257 44.8714C329.548 43.725 330.007 42.628 330.618 41.6163C331.196 40.5853 331.921 39.6448 332.771 38.8244ZM328.183 37.6679C327.9 38.7782 327.451 39.8393 326.852 40.8153C326.286 41.8108 325.572 42.7137 324.734 43.4928C325.015 42.3819 325.464 41.3205 326.064 40.3455C326.632 39.3511 327.347 38.4485 328.183 37.6679ZM321.156 42.4022C321.039 41.8322 321.091 41.2402 321.306 40.6997C321.498 40.1503 321.849 39.6706 322.313 39.3216C322.433 39.8915 322.381 40.4841 322.164 41.0242C321.969 41.5726 321.619 42.0518 321.156 42.4022Z" fill="#DD765E"/>
<path d="M368.012 82.1793C363.876 81.2623 359.582 81.3448 355.485 82.4199C353.561 82.963 346.527 84.9496 342.745 91.2548C341.309 93.6494 340.824 96.613 339.853 102.54C339.247 106.242 337.64 108.815 337.341 113.36C337.172 117.047 337.532 120.74 338.41 124.324C339.712 129.929 338.433 132.978 339.195 134.061C342.268 138.423 352.644 135.853 352.439 141.264C352.312 144.605 343.651 151.992 344.719 155.76C350.521 176.227 364.673 186.936 369.642 184.727C370.319 184.426 376.467 158.642 376.209 152.7C376.071 149.526 375.823 122.278 376.205 120.388C377.587 113.555 381.105 112.945 384.387 104.793C385.267 102.75 385.608 100.514 385.379 98.3006C385.15 96.087 384.359 93.9696 383.08 92.1513C379.378 87.1571 374.044 83.6274 368.012 82.1793Z" fill="#FFC79E"/>
<path d="M347.795 105.81C347.981 105.81 348.161 105.752 348.312 105.643C348.462 105.534 348.575 105.381 348.633 105.204C348.692 105.028 348.694 104.837 348.638 104.66C348.583 104.482 348.473 104.327 348.325 104.216C346.847 103.077 345.064 102.406 343.204 102.288C341.344 102.17 339.491 102.611 337.882 103.555C337.687 103.684 337.551 103.885 337.504 104.115C337.456 104.344 337.502 104.583 337.63 104.779C337.758 104.975 337.958 105.113 338.186 105.161C338.415 105.209 338.653 105.164 338.849 105.037C340.149 104.275 341.649 103.924 343.151 104.031C344.653 104.137 346.088 104.696 347.268 105.633C347.42 105.748 347.605 105.81 347.795 105.81ZM360.833 106.68C361.018 106.68 361.199 106.622 361.349 106.513C361.5 106.405 361.612 106.251 361.671 106.075C361.729 105.898 361.731 105.708 361.676 105.53C361.62 105.353 361.511 105.197 361.362 105.086C359.884 103.947 358.101 103.276 356.241 103.158C354.381 103.041 352.528 103.482 350.919 104.425C350.724 104.554 350.587 104.755 350.54 104.985C350.492 105.215 350.537 105.454 350.665 105.65C350.793 105.847 350.993 105.984 351.222 106.032C351.451 106.081 351.689 106.036 351.885 105.908C353.185 105.143 354.685 104.791 356.187 104.897C357.69 105.003 359.126 105.564 360.306 106.504C360.458 106.618 360.643 106.68 360.833 106.68Z" fill="#1E1D22"/>
<path d="M348.912 106.248C348.954 107.707 348.594 109.148 347.871 110.414C347.208 111.703 346.39 112.905 345.435 113.993L344.675 114.789C344.359 115.09 344.169 115.501 344.145 115.938C344.158 116.344 344.259 116.743 344.44 117.107C344.621 117.471 344.879 117.791 345.196 118.045C345.805 118.501 346.508 118.813 347.253 118.959C347.999 119.104 348.767 119.08 349.502 118.887C348.792 118.965 348.073 118.901 347.387 118.7C346.701 118.499 346.062 118.164 345.505 117.714C345.01 117.265 344.713 116.636 344.68 115.968C344.673 115.373 345.369 114.967 345.865 114.395C346.838 113.256 347.648 111.987 348.27 110.623C348.953 109.274 349.178 107.738 348.912 106.248ZM371.734 108.362C372.198 108.55 372.633 108.803 373.026 109.113C373.414 109.409 373.768 109.748 374.08 110.123C374.727 110.893 375.318 111.708 375.849 112.563C375.809 112.303 375.734 112.054 375.675 111.795L375.384 111.063C375.152 110.586 374.861 110.138 374.52 109.732C374.183 109.313 373.759 108.974 373.278 108.737C372.797 108.5 372.27 108.372 371.734 108.362Z" fill="#DD765E"/>
<path d="M372.386 115.697C372.306 114.614 372.39 113.524 372.635 112.466C372.743 111.944 372.907 111.434 373.126 110.948C373.32 110.443 373.6 109.978 373.856 109.469C373.405 109.82 373.022 110.25 372.724 110.738C372.424 111.233 372.201 111.77 372.063 112.332C371.788 113.458 371.902 114.644 372.386 115.697Z" fill="#DD765E"/>
<path d="M368.062 117.954C368.072 115.97 368.513 114.012 369.353 112.217C370.518 109.736 371.969 106.347 374.468 106.281C376.309 106.233 377.076 105.797 377.617 107.613C378.512 110.617 376.406 113.724 374.94 115.889C372.841 118.986 371.194 119.582 371.017 121.81C370.882 123.509 375.492 127.284 376.453 126.681C378.413 125.451 377.658 121.325 383.399 112.008C387.025 106.125 388.582 105.08 389.207 101.298C389.429 99.9552 390.347 94.3959 387.207 90.9175C385.75 89.3041 384.834 89.705 378.255 86.3772C376.425 85.5037 374.644 84.5311 372.919 83.4636C367.723 80.1486 367.943 78.6363 364.848 77.5259C362.051 76.5229 361.801 77.7328 356.38 77.0464C351.153 76.3848 350.765 75.1814 348.294 75.7138C344.002 76.6381 341.68 81.0171 341.056 82.1937C339.833 84.221 339.121 86.5171 338.981 88.883C339.053 91.2975 339.787 93.6454 341.102 95.669C341.74 96.4139 344.781 92.568 346.394 91.1523C347.975 89.7655 349.619 90.4862 351.904 90.7824C354.132 91.0712 353.917 92.4614 357.146 93.9099C358.296 94.4259 363.162 92.6169 364.513 95.3428C365.953 98.2471 367.194 98.6701 366.259 101.221C365.675 102.815 365.837 104.831 366.163 108.865C366.396 111.759 363.422 121.617 363.422 121.617C362.45 123.314 368.032 122.379 368.062 117.954Z" fill="#7D5200"/>
<path d="M351.99 125.233C350.29 125.976 348.464 126.387 346.61 126.444C345.737 126.441 344.874 126.26 344.072 125.913C343.203 125.531 342.369 125.071 341.582 124.538C342.007 125.488 342.689 126.299 343.548 126.881C343.991 127.186 344.472 127.429 344.98 127.603C345.502 127.747 346.037 127.832 346.577 127.854C347.638 127.865 348.686 127.624 349.635 127.149C350.562 126.709 351.37 126.052 351.99 125.233Z" fill="#DD765E"/>
<path d="M347.226 118.921C344.263 118.62 343.806 117.094 338.235 123.537C338.235 123.537 344.113 122.116 355.353 125.647C355.353 125.647 351.468 119.352 347.226 118.921Z" fill="#7D5200"/>
<path d="M351.637 143.432C357.002 143.385 364.242 135.692 364.242 135.692C359.931 137.613 355.232 138.496 350.52 138.271C351.117 138.498 351.626 138.911 351.971 139.45C352.317 139.989 352.481 140.624 352.439 141.263C352.34 142.038 352.065 142.78 351.637 143.432Z" fill="#DD765E"/>
<path d="M351.99 109.469C353.146 109.737 354.327 109.878 355.512 109.89C356.079 109.891 356.645 109.849 357.205 109.764C357.789 109.694 358.369 109.551 359.046 109.469C358.625 110.003 358.089 110.432 357.477 110.726C356.865 111.019 356.194 111.167 355.516 111.16C354.832 111.164 354.155 111.018 353.533 110.732C352.91 110.467 352.374 110.029 351.99 109.469ZM338.981 109.025C339.958 109.246 340.948 109.404 341.944 109.499C342.393 109.53 342.844 109.504 343.287 109.421C343.796 109.317 344.298 109.185 344.793 109.025C344.575 109.585 344.17 110.052 343.647 110.345C343.113 110.657 342.498 110.804 341.881 110.768C341.285 110.73 340.706 110.552 340.192 110.247C339.682 109.962 339.262 109.539 338.981 109.025Z" fill="#1E1D22"/>
<path d="M348.033 148.283C346.579 158.28 354.195 166.544 362.121 166.505C368.684 166.473 375.16 160.746 376.209 152.7L390.575 159.484C393.108 160.68 395.35 162.417 397.145 164.573C398.939 166.73 400.243 169.253 400.964 171.967L411.869 213L424.636 184.506L440.925 193.342C440.925 193.342 427.057 245.69 411.428 245.469C407.187 244.369 403.313 242.159 400.202 239.063L405.322 261.045C405.322 261.045 391.838 258.611 375.989 269.213C360.14 279.815 329.762 269.213 329.762 269.213L326.13 203.612C326.13 203.612 319.756 170.08 307.164 147.927L281.995 106.758C281.995 106.758 279.794 103.445 284.637 94.8302C289.479 86.2161 310.391 50.6547 310.391 50.6547L328.882 59.711L312.813 103.224L332.824 136.322C336.275 142.032 341.682 146.284 348.033 148.283Z" fill="#F73C4F"/>
<path d="M297.074 101.899C298.137 100.956 299.462 100.363 300.871 100.198C302.267 99.9869 303.687 100.002 305.079 100.242C305.777 100.33 306.448 100.53 307.13 100.682C307.795 100.89 308.461 101.097 309.11 101.346C309.749 101.618 310.389 101.888 311.009 102.194C311.613 102.54 312.227 102.856 312.813 103.224L308.883 102.027C307.586 101.659 306.269 101.367 304.938 101.151C303.622 100.919 302.285 100.838 300.951 100.909C299.601 100.947 298.277 101.285 297.074 101.899ZM400.202 239.063C398.253 236.609 396.61 233.925 395.309 231.071C393.983 228.224 392.894 225.272 392.053 222.245C391.245 219.211 390.678 216.116 390.357 212.992C390.16 211.435 390.147 209.863 390.065 208.302C390.047 206.736 390.121 205.17 390.187 203.613C390.39 206.733 390.572 209.837 391.058 212.905C391.48 215.976 392.108 219.016 392.937 222.002C393.733 224.997 394.74 227.931 395.95 230.783C397.131 233.659 398.554 236.429 400.202 239.063ZM345.611 258.942C348.988 260.05 352.514 260.635 356.066 260.679C359.587 260.747 363.083 260.079 366.331 258.717C369.571 257.338 372.461 255.246 374.788 252.597C377.132 249.918 379.091 246.924 380.611 243.702C379.396 247.104 377.606 250.27 375.32 253.062C372.984 255.871 370.029 258.097 366.689 259.563C363.317 260.941 359.685 261.563 356.048 261.383C352.448 261.23 348.908 260.402 345.611 258.942ZM411.979 231.112C411.054 228.187 410.607 225.132 410.657 222.064C410.662 220.534 410.763 219.005 410.958 217.487C411.148 215.971 411.452 214.47 411.869 213L411.672 217.548C411.603 219.055 411.583 220.561 411.573 222.065C411.565 223.57 411.608 225.074 411.667 226.58C411.744 228.085 411.816 229.594 411.979 231.112ZM312.813 148.614C314.725 149.754 316.483 151.137 318.043 152.728C319.628 154.312 321.018 156.081 322.185 157.996C323.366 159.911 324.256 161.993 324.826 164.171C325.405 166.334 325.622 168.578 325.47 170.812C325.267 169.713 325.282 168.606 324.978 167.541L324.645 165.935L324.15 164.373C323.464 162.306 322.542 160.326 321.402 158.473C320.265 156.61 318.971 154.85 317.532 153.211C316.81 152.389 316.058 151.591 315.262 150.834C314.494 150.045 313.66 149.328 312.813 148.614Z" fill="#B02336"/>
<path d="M461.16 338.918L403.724 254.966L403.231 254.863C385.617 265.765 365.136 271.086 344.462 270.131L330.605 269.492L324.651 466.645C324.604 468.205 325.13 469.727 326.129 470.922C327.128 472.118 328.53 472.903 330.068 473.128L349.802 476.016C350.634 476.137 351.482 476.092 352.296 475.881C353.111 475.671 353.875 475.3 354.545 474.79C355.215 474.28 355.777 473.641 356.198 472.911C356.62 472.18 356.892 471.373 356.999 470.536L367.664 387.32L444.002 377.43C448.187 376.888 452.163 375.276 455.549 372.75C458.935 370.223 461.618 366.866 463.34 363.001C465.062 359.135 465.766 354.891 465.384 350.674C465.003 346.457 463.548 342.409 461.16 338.918ZM371.649 356.227L378.3 304.333L419.573 343.759L371.649 356.227Z" fill="#6C7FD8"/>
<path d="M419.816 343.369L419.33 344.149L429.896 350.776L430.382 349.997L419.816 343.369Z" fill="#065082"/>
<path d="M371.036 267.556C371.689 269.8 372.243 272.065 372.783 274.332C373.333 276.598 373.812 278.878 374.291 281.158C374.749 283.442 375.205 285.727 375.591 288.026C375.986 290.324 376.368 292.624 376.649 294.945C375.994 292.701 375.44 290.436 374.9 288.169C374.351 285.903 373.871 283.623 373.393 281.343C372.937 279.058 372.481 276.774 372.095 274.474C371.699 272.177 371.318 269.877 371.036 267.556Z" fill="#065082"/>
<path d="M371.185 356.168L367.222 387.262L368.132 387.379L372.095 356.285L371.185 356.168Z" fill="#065082"/>
<path d="M330.531 473.195L329.102 483.078C329.102 483.078 333.56 498.981 339.008 495.833C344.456 492.686 350.069 486.391 350.069 486.391V476.054L330.531 473.195Z" fill="#FFC79E"/>
<path d="M287.586 502.142V502.014C287.586 501.039 287.856 500.083 288.365 499.253C288.875 498.423 289.604 497.751 290.472 497.312L327.933 478.368C328.3 478.182 328.719 478.132 329.119 478.226C329.519 478.32 329.873 478.552 330.119 478.881L337.441 488.66C337.701 489.007 338.08 489.245 338.504 489.328C338.929 489.411 339.369 489.334 339.74 489.11L348.335 483.936C348.6 483.776 348.903 483.69 349.212 483.686C349.522 483.682 349.827 483.761 350.096 483.914C350.366 484.067 350.59 484.289 350.746 484.557C350.902 484.826 350.984 485.131 350.984 485.441V502.142C350.984 502.607 350.8 503.054 350.472 503.383C350.143 503.712 349.698 503.897 349.235 503.897H289.335C288.871 503.897 288.426 503.712 288.098 503.383C287.77 503.054 287.586 502.607 287.586 502.142Z" fill="#FFBA55"/>
<path d="M256.584 218.189H120.187C117.682 218.189 115.65 220.227 115.65 222.741V272.345C115.65 274.859 117.682 276.897 120.187 276.897H256.584C259.09 276.897 261.121 274.859 261.121 272.345V222.741C261.121 220.227 259.09 218.189 256.584 218.189Z" fill="#F65B2B"/>
<path d="M238.98 218.188H235.351V209.156C235.351 208.673 235.159 208.21 234.819 207.869C234.479 207.527 234.017 207.335 233.536 207.335H142.581C142.1 207.335 141.639 207.527 141.298 207.869C140.958 208.21 140.767 208.673 140.766 209.156V218.188H137.137V209.156C137.139 207.708 137.713 206.319 138.733 205.295C139.754 204.271 141.138 203.695 142.581 203.694H233.536C234.979 203.695 236.363 204.271 237.384 205.295C238.404 206.319 238.978 207.708 238.98 209.156V218.188Z" fill="#7CA1B1"/>
<path d="M207.222 243.282H170.311V264.915H207.222V243.282Z" fill="#FFBA55"/>
<path d="M207.222 230.171H170.311V237.054H207.222V230.171Z" fill="#FFBA55"/>
<path d="M179.62 258.469C182.025 258.469 183.976 256.512 183.976 254.098C183.976 251.684 182.025 249.727 179.62 249.727C177.214 249.727 175.264 251.684 175.264 254.098C175.264 256.512 177.214 258.469 179.62 258.469Z" fill="#A2AEE6"/>
<path d="M197.912 258.469C200.318 258.469 202.268 256.512 202.268 254.098C202.268 251.684 200.318 249.727 197.912 249.727C195.507 249.727 193.556 251.684 193.556 254.098C193.556 256.512 195.507 258.469 197.912 258.469Z" fill="#A2AEE6"/>
<path d="M145.049 265.733C155.061 265.733 163.178 257.588 163.178 247.542C163.178 237.495 155.061 229.351 145.049 229.351C135.037 229.351 126.92 237.495 126.92 247.542C126.92 257.588 135.037 265.733 145.049 265.733Z" fill="#A2AEE6"/>
<path d="M231.721 265.733C241.733 265.733 249.85 257.588 249.85 247.542C249.85 237.495 241.733 229.351 231.721 229.351C221.708 229.351 213.592 237.495 213.592 247.542C213.592 257.588 221.708 265.733 231.721 265.733Z" fill="#A2AEE6"/>
<path d="M212.177 213.436H204.991V218.188H212.177V213.436Z" fill="#A2AEE6"/>
<path d="M221.404 213.436H214.218V218.188H221.404V213.436Z" fill="#A2AEE6"/>
<path d="M230.633 213.436H223.447V218.188H230.633V213.436Z" fill="#A2AEE6"/>
<path d="M129.889 96.7793C128.364 94.6743 126.19 94.5981 123.711 95.4397C123.578 95.4767 123.45 95.5285 123.329 95.594C122.757 94.4829 122.109 93.1823 121.498 91.9951C122.551 90.7147 123.226 89.1633 123.444 87.5174C123.466 87.1647 123.413 86.8113 123.289 86.4808C123.164 86.1502 122.971 85.8501 122.722 85.6003C122.473 85.3505 122.174 85.1568 121.844 85.0321C121.514 84.9075 121.162 84.8547 120.811 84.8772C120.293 84.8591 119.775 84.9366 119.285 85.1057C118.621 85.2949 118.051 85.7246 117.684 86.3115C117.318 86.8984 117.182 87.6009 117.302 88.2829C117.579 89.5077 118.07 90.6739 118.752 91.7275L118.637 91.8427L118.713 91.7666C118.18 92.4168 117.608 93.1062 117.072 93.8326C116.277 94.8691 115.694 96.053 115.356 97.3163C114.975 98.5311 114.972 99.8334 115.347 101.05C115.722 102.267 116.457 103.34 117.454 104.128C118.548 105.034 119.893 105.582 121.307 105.698C122.789 105.745 124.262 105.457 125.618 104.856C125.77 104.817 125.845 105.506 125.884 105.582C125.954 106 125.967 106.425 125.923 106.846C125.808 107.65 125.16 107.918 124.625 107.572C124.207 107.305 124.168 106.961 124.016 106.807C123.932 106.677 123.82 106.569 123.687 106.489C123.555 106.41 123.407 106.361 123.253 106.348C123.074 106.341 122.898 106.4 122.758 106.512C122.618 106.625 122.523 106.784 122.49 106.961C122.424 107.288 122.478 107.628 122.642 107.918C122.879 108.332 123.222 108.675 123.635 108.912C125.655 110.099 128.097 108.453 127.753 105.43C127.716 105.124 127.677 104.78 127.64 104.473C127.601 104.282 127.601 104.051 127.562 103.86V103.823C130.843 101.527 131.11 98.5407 129.889 96.7793ZM120.429 86.7519C121.689 86.8281 120.505 89.0093 120.202 89.5073C120.13 89.3842 120.066 89.2563 120.011 89.1245C119.82 88.6656 119.057 86.6757 120.429 86.7519ZM121.689 103.477C121.028 103.4 120.393 103.177 119.827 102.826C119.262 102.475 118.78 102.003 118.416 101.444C118.052 100.886 117.815 100.254 117.722 99.5931C117.628 98.9325 117.68 98.2592 117.874 97.621C118.279 96.2657 118.969 95.0132 119.896 93.9478C120.887 95.7854 121.307 96.5508 121.346 96.627C120.63 97.1712 120.141 97.9622 119.972 98.8473C119.957 98.9406 119.961 99.0362 119.983 99.128C120.006 99.2198 120.047 99.306 120.105 99.3812C120.162 99.4564 120.234 99.5191 120.316 99.5653C120.399 99.6115 120.489 99.6403 120.583 99.6499C120.806 99.7014 121.04 99.6767 121.247 99.5798C121.454 99.4828 121.623 99.3192 121.728 99.1148C121.843 98.7993 122.025 98.5123 122.261 98.2732C123.253 99.9955 123.635 100.378 124.892 102.712C123.891 103.193 122.798 103.454 121.689 103.477ZM126.686 101.564C125.16 98.8082 124.855 98.4645 124.244 97.3163C124.283 97.3163 124.32 97.2772 124.359 97.2772C125.845 96.8945 126.914 96.8554 127.64 98.1579C127.891 98.7498 127.933 99.4097 127.759 100.029C127.586 100.648 127.207 101.189 126.686 101.564ZM247.478 44.5667C245.952 42.4616 243.779 42.3855 241.299 43.2271C241.167 43.2641 241.039 43.3158 240.918 43.3814C240.346 42.2703 239.698 40.9697 239.087 39.7824C240.14 38.5021 240.814 36.9507 241.033 35.3048C241.055 34.9521 241.002 34.5987 240.877 34.2682C240.753 33.9376 240.56 33.6374 240.311 33.3877C240.061 33.1379 239.762 32.9442 239.433 32.8195C239.103 32.6949 238.751 32.6421 238.399 32.6646C237.881 32.6465 237.364 32.724 236.874 32.8931C236.21 33.0823 235.639 33.5119 235.273 34.0989C234.907 34.6858 234.77 35.3883 234.891 36.0702C235.168 37.2951 235.659 38.4612 236.34 39.5149L236.226 39.6301L236.302 39.554C235.768 40.2042 235.196 40.8935 234.661 41.62C233.866 42.6565 233.283 43.8404 232.945 45.1037C232.564 46.3185 232.561 47.6208 232.936 48.8374C233.31 50.054 234.045 51.1274 235.042 51.9149C236.136 52.8218 237.481 53.3698 238.896 53.485C240.377 53.5319 241.85 53.2442 243.206 52.6433C243.358 52.6043 243.434 53.2936 243.473 53.3698C243.542 53.7873 243.555 54.2122 243.512 54.6332C243.397 55.4377 242.749 55.7052 242.214 55.3596C241.795 55.0921 241.756 54.7484 241.605 54.5942C241.521 54.4646 241.408 54.356 241.276 54.2765C241.144 54.1969 240.995 54.1486 240.842 54.1352C240.663 54.1286 240.487 54.1868 240.347 54.2994C240.207 54.412 240.112 54.5713 240.079 54.7484C240.013 55.0753 240.067 55.415 240.231 55.7052C240.468 56.119 240.81 56.4621 241.223 56.6992C243.243 57.8865 245.686 56.2403 245.341 53.2174C245.304 52.9108 245.265 52.5671 245.228 52.2606C245.189 52.0692 245.189 51.8388 245.151 51.6474V51.6103C248.432 49.3138 248.698 46.3281 247.478 44.5667ZM238.018 34.5393C239.277 34.6154 238.094 36.7967 237.79 37.2946C237.718 37.1716 237.654 37.0437 237.6 36.9119C237.409 36.4529 236.646 34.4631 238.018 34.5393ZM239.277 51.2647C238.617 51.1869 237.981 50.9645 237.416 50.6132C236.85 50.262 236.369 49.7904 236.005 49.2318C235.641 48.6732 235.404 48.0412 235.31 47.3805C235.217 46.7198 235.269 46.0466 235.463 45.4083C235.868 44.0531 236.557 42.8006 237.485 41.7352C238.475 43.5727 238.896 44.3382 238.935 44.4144C238.219 44.9585 237.729 45.7496 237.561 46.6347C237.545 46.728 237.549 46.8236 237.572 46.9154C237.595 47.0072 237.636 47.0934 237.693 47.1686C237.751 47.2438 237.823 47.3064 237.905 47.3526C237.987 47.3988 238.078 47.4276 238.172 47.4372C238.395 47.4888 238.628 47.4641 238.836 47.3671C239.043 47.2702 239.212 47.1066 239.316 46.9022C239.432 46.5867 239.614 46.2997 239.849 46.0606C240.842 47.7829 241.223 48.1657 242.481 50.4993C241.479 50.98 240.387 51.2409 239.277 51.2647ZM244.275 49.351C242.749 46.5956 242.444 46.2519 241.832 45.1037C241.871 45.1037 241.908 45.0646 241.947 45.0646C243.434 44.6819 244.503 44.6429 245.228 45.9453C245.479 46.5372 245.521 47.1971 245.348 47.8163C245.175 48.4354 244.796 48.9768 244.275 49.351ZM252.986 137.439C251.339 138.242 248.812 138.589 247.963 137.109C247.11 135.618 248.846 133.835 250.522 133.019C251.147 132.668 251.836 132.448 252.548 132.373C253.26 132.298 253.98 132.37 254.663 132.584V124.656L242.986 129.367C242.978 138.794 243.011 138.257 242.961 138.394C243.23 139.841 241.626 141.273 240.211 141.968C238.564 142.772 236.038 143.119 235.188 141.638C234.332 140.145 236.077 138.362 237.753 137.549C238.406 137.166 239.138 136.937 239.893 136.882C240.648 136.826 241.406 136.944 242.108 137.228V124.131C242.109 124.043 242.136 123.958 242.185 123.885C242.235 123.813 242.305 123.758 242.386 123.726L254.936 118.662C255.003 118.637 255.074 118.628 255.145 118.635C255.216 118.643 255.285 118.668 255.344 118.707C255.405 118.747 255.454 118.802 255.488 118.866C255.523 118.93 255.541 119.001 255.541 119.074C255.541 132.467 255.553 133.283 255.538 133.327L255.547 133.341C256.41 134.833 254.656 136.615 252.986 137.439ZM112.777 154.105C111.13 154.908 108.604 155.256 107.754 153.775C106.902 152.285 108.638 150.501 110.314 149.685C110.938 149.334 111.627 149.114 112.339 149.039C113.051 148.964 113.771 149.036 114.455 149.25V141.322L102.778 146.033C102.77 155.46 102.802 154.923 102.753 155.061C103.022 156.507 101.418 157.939 100.003 158.634C98.3558 159.438 95.8291 159.786 94.9797 158.304C94.1239 156.811 95.8686 155.028 97.5443 154.215C98.1977 153.832 98.9299 153.603 99.6848 153.548C100.44 153.492 101.197 153.61 101.9 153.894V140.797C101.9 140.709 101.927 140.624 101.977 140.552C102.026 140.48 102.096 140.424 102.178 140.392L114.727 135.328C114.794 135.303 114.866 135.294 114.937 135.302C115.008 135.31 115.076 135.334 115.136 135.373C115.196 135.414 115.246 135.468 115.28 135.532C115.314 135.596 115.333 135.667 115.333 135.74C115.333 149.133 115.345 149.949 115.329 149.993L115.338 150.008C116.201 151.5 114.448 153.281 112.777 154.105ZM182.912 107.256C182.101 108.807 180.382 110.372 178.939 109.619C177.499 108.874 177.783 106.545 178.594 104.996C178.863 104.359 179.28 103.795 179.812 103.354C180.343 102.912 180.972 102.605 181.647 102.458L176.276 94.6335C176.114 94.397 176.025 94.1183 176.019 93.8316C176.013 93.5449 176.09 93.2626 176.241 93.0193L179.378 87.9577C179.407 87.9106 179.445 87.8697 179.489 87.8374C179.534 87.805 179.585 87.7818 179.638 87.7691C179.692 87.7564 179.747 87.7545 179.802 87.7634C179.856 87.7724 179.908 87.7919 179.955 87.8211C180.002 87.8503 180.043 87.8884 180.075 87.9334C180.107 87.9783 180.13 88.0292 180.142 88.083C180.155 88.1369 180.156 88.1927 180.147 88.2472C180.138 88.3017 180.118 88.3539 180.089 88.4008L176.948 93.4639C176.884 93.5689 176.852 93.6901 176.855 93.813C176.858 93.9359 176.897 94.0552 176.966 94.1567C183.227 103.302 182.887 102.731 182.92 102.893C183.807 103.716 183.825 105.499 182.912 107.256ZM202.419 177.591C201.121 178.762 198.967 179.629 197.876 178.419C196.783 177.219 197.857 175.134 199.154 173.965C199.627 173.461 200.214 173.079 200.865 172.85C201.516 172.621 202.213 172.553 202.896 172.651L200.573 163.44C200.503 163.162 200.516 162.87 200.609 162.599C200.703 162.328 200.873 162.09 201.1 161.915L205.795 158.264C205.838 158.23 205.888 158.204 205.941 158.19C205.994 158.175 206.05 158.171 206.104 158.178C206.159 158.184 206.212 158.202 206.26 158.229C206.308 158.257 206.35 158.293 206.384 158.337C206.417 158.381 206.442 158.431 206.457 158.484C206.471 158.537 206.475 158.593 206.468 158.648C206.461 158.703 206.443 158.756 206.416 158.804C206.389 158.852 206.352 158.894 206.308 158.927L201.608 162.578C201.512 162.654 201.44 162.757 201.4 162.873C201.36 162.989 201.355 163.115 201.385 163.234C204.085 173.993 203.964 173.34 203.939 173.503C204.485 174.584 203.884 176.262 202.419 177.591Z" fill="#A2AEE6"/>
</g>
<defs>
<clipPath id="clip0_1741_7">
<rect width="607" height="505" fill="white"/>
</clipPath>
</defs>
</svg>
