<svg width="631" height="458" viewBox="0 0 631 458" fill="none" xmlns="http://www.w3.org/2000/svg">
<g clip-path="url(#clip0_1741_2046)">
<path d="M70.5399 276.504C91.1447 372.159 299.366 523.984 364.034 394.591C398.074 326.482 502.164 226.401 582.911 166.281C661.426 107.822 430.905 17.7563 289.417 48.1934C147.93 78.6304 49.9353 180.849 70.5399 276.504Z" fill="#FFE3CB"/>
<path d="M331.908 164.274H188.621C186.237 164.274 184.304 166.205 184.304 168.588V250.903C184.304 253.285 186.237 255.217 188.621 255.217H331.908C334.292 255.217 336.225 253.285 336.225 250.903V168.588C336.225 166.205 334.292 164.274 331.908 164.274Z" fill="#57DEFF"/>
<path d="M261.54 252.059C263.773 252.059 265.584 250.249 265.584 248.018C265.584 245.786 263.773 243.977 261.54 243.977C259.307 243.977 257.497 245.786 257.497 248.018C257.497 250.249 259.307 252.059 261.54 252.059Z" fill="#E5E1E5"/>
<path d="M622.169 142.752C619.314 148.647 614.38 154.25 607.405 159.442L606.546 158.29C622.726 146.244 627.499 132.581 620.734 117.692C608.378 90.4946 558.213 61.7469 489.817 42.6709C417.998 22.6396 341.496 17.9135 285.173 30.0309C130.599 63.2827 23.1363 175.248 45.6228 279.626L44.2151 279.928C21.5628 174.777 129.521 62.0435 284.871 28.6241C341.411 16.4618 418.171 21.194 490.204 41.2853C558.998 60.4731 609.517 89.5227 622.044 117.096C626.086 125.996 626.093 134.65 622.169 142.752Z" fill="#FFE3CB"/>
<path d="M75.468 416.419C74.0494 414.059 40.6643 358.458 35.264 344.066L36.6116 343.561C41.9656 357.83 76.3547 415.102 76.7018 415.678L75.468 416.419Z" fill="#8B9D36"/>
<path d="M47.5934 313.529C46.1378 317.128 45.0249 320.856 44.2693 324.664C43.4968 328.393 42.9296 332.161 42.5704 335.952C42.2015 339.743 42.0453 343.55 42.1024 347.358C42.1241 351.241 42.517 355.112 43.2758 358.92C44.7384 355.323 45.8541 351.595 46.6076 347.786C47.3814 344.057 47.9461 340.288 48.2989 336.497C48.6609 332.706 48.8146 328.898 48.7591 325.09C48.7352 321.209 48.3449 317.338 47.5934 313.529ZM60.2856 330.872C58.5132 334.224 57.0687 337.74 55.9722 341.37C54.8666 344.918 53.9618 348.526 53.2622 352.176C52.5533 355.824 52.0539 359.509 51.7663 363.214C51.4379 366.992 51.4794 370.794 51.89 374.564C53.669 371.214 55.1162 367.698 56.2111 364.067C57.3173 360.519 58.2196 356.911 58.9134 353.26C59.6161 349.611 60.113 345.925 60.4015 342.22C60.728 338.442 60.6891 334.642 60.2856 330.872ZM67.2788 351.062C65.7179 354.178 64.4873 357.448 63.6069 360.82C62.718 364.104 62.0319 367.44 61.5524 370.808C61.0638 374.175 60.7862 377.569 60.7212 380.971C60.6203 384.455 60.8888 387.94 61.5222 391.367C63.0899 388.253 64.3234 384.983 65.2019 381.61C66.092 378.326 66.7756 374.99 67.2486 371.621C67.7311 368.253 68.0061 364.858 68.0721 361.456C68.1712 357.973 67.9053 354.489 67.2788 351.062ZM76.0854 371.214C74.5184 373.824 73.2685 376.612 72.3623 379.518C71.4556 382.325 70.7493 385.193 70.2488 388.1C69.7386 391.005 69.4392 393.943 69.3529 396.892C69.2296 399.934 69.4743 402.98 70.0816 405.964C71.6553 403.357 72.9079 400.569 73.8125 397.661C74.7203 394.855 75.4242 391.986 75.9189 389.078C76.4223 386.172 76.7191 383.233 76.8071 380.285C76.9283 377.244 76.686 374.198 76.0854 371.214ZM83.8558 383.81C82.2571 386.074 80.9374 388.522 79.9253 391.101C78.9334 393.565 78.1078 396.092 77.4542 398.665C76.8065 401.219 76.3082 403.809 75.9618 406.422C75.8002 407.738 75.6519 409.047 75.5536 410.382C75.5027 411.742 75.3576 413.097 75.1194 414.437C75.4518 414.259 75.7711 414.057 76.0749 413.834L76.8506 413.057C77.3451 412.527 77.7987 411.96 78.2074 411.361C78.995 410.207 79.6925 408.994 80.2935 407.733C81.4609 405.281 82.378 402.718 83.0309 400.083C83.6968 397.471 84.128 394.805 84.3195 392.117C84.5518 389.34 84.3958 386.544 83.8558 383.81ZM40.0465 352.718C37.4351 349.856 34.4968 347.309 31.2919 345.131C28.204 342.987 24.9707 341.061 21.6154 339.365C18.2649 337.659 14.798 336.193 11.2404 334.976C7.58623 333.682 3.7913 332.825 -0.0648193 332.425C2.54077 335.294 5.4779 337.843 8.68493 340.02C11.7721 342.165 15.0074 344.089 18.3663 345.778C21.7202 347.477 25.1883 348.94 28.7455 350.158C32.3994 351.45 36.1923 352.309 40.0465 352.718ZM48.646 368.769C45.3065 366.04 41.687 363.672 37.8481 361.705C34.1199 359.751 30.2738 358.029 26.3321 356.551C22.3946 355.062 18.3669 353.823 14.273 352.842C10.0877 351.794 5.80207 351.197 1.48947 351.062C4.82415 353.798 8.44272 356.169 12.2832 358.135C16.0107 360.091 19.8582 361.809 23.8027 363.28C27.743 364.761 31.7716 365.997 35.8653 366.979C40.0503 368.026 44.3344 368.626 48.646 368.769ZM58.7686 386.611C55.7953 383.974 52.5295 381.686 49.0352 379.791C45.6583 377.917 42.1582 376.273 38.5591 374.872C34.9644 373.459 31.2765 372.296 27.5216 371.391C23.6664 370.417 19.7112 369.892 15.7351 369.828C18.7037 372.472 21.9687 374.764 25.465 376.657C28.8412 378.533 32.3427 380.174 35.9447 381.568C39.5424 382.973 43.2311 384.133 46.9857 385.04C50.8404 386.011 54.7938 386.539 58.7686 386.611ZM66.7686 400.344C64.1785 398.102 61.3042 396.21 58.2198 394.717C55.2691 393.25 52.2066 392.02 49.0611 391.037C45.9188 390.044 42.7014 389.306 39.4402 388.83C36.0538 388.296 32.6114 388.215 29.2037 388.589C31.7894 390.839 34.6633 392.734 37.7497 394.225C40.6999 395.694 43.764 396.921 46.9119 397.896C50.0565 398.882 53.2743 399.617 56.535 400.094C59.9205 400.625 63.3612 400.71 66.7686 400.344Z" fill="#8B9D36"/>
<path d="M73.0836 412.666C70.2361 409.935 67.083 407.541 63.6867 405.531C60.4079 403.547 56.9974 401.789 53.479 400.268C49.9652 398.737 46.3493 397.452 42.6573 396.422C38.8665 395.32 34.96 394.664 31.0169 394.466C33.8591 397.205 37.0113 399.602 40.4096 401.61C43.6877 403.596 47.0999 405.352 50.6215 406.865C54.1384 408.388 57.7553 409.67 61.4469 410.701C65.2373 411.801 69.142 412.461 73.0836 412.666ZM37.252 345.885C37.7775 342.05 37.6828 338.156 36.9716 334.352C36.3457 330.765 35.3606 327.25 34.0312 323.86C32.7143 320.466 31.0538 317.214 29.0756 314.157C27.0137 310.879 24.4327 307.956 21.4332 305.505C20.8961 309.34 20.9863 313.237 21.7002 317.043C22.325 320.63 23.3145 324.143 24.6533 327.529C25.9804 330.92 27.6451 334.169 29.6223 337.227C31.685 340.503 34.2611 343.426 37.252 345.885Z" fill="#8B9D36"/>
<path d="M80.7523 418.769C80.7368 417.811 78.9887 322.603 60.6601 293.602L61.877 292.835C80.4213 322.176 82.1273 414.817 82.1912 418.746L80.7523 418.769Z" fill="#50661A"/>
<path d="M67.2265 306.068C66.6562 301.77 66.5117 297.426 66.7952 293.1C67.0343 288.884 67.5025 284.685 68.1976 280.52C68.8693 276.371 69.7833 272.264 70.8584 268.191C71.932 264.091 73.2881 260.147 74.7369 255.945C75.1462 256.988 75.4569 258.068 75.665 259.169C75.8971 260.251 76.0665 261.344 76.1723 262.445C76.3969 264.606 76.4946 266.777 76.4646 268.949C76.4011 273.221 76.0095 277.482 75.2933 281.695C74.5961 285.895 73.6101 290.041 72.3423 294.105C71.0885 298.271 69.3726 302.283 67.2265 306.068ZM44.4328 247.403C47.6201 250.475 50.3534 253.984 52.5502 257.826C54.69 261.47 56.5103 265.292 57.9907 269.25C59.4844 273.203 60.6271 277.279 61.4053 281.432C62.2755 285.772 62.5155 290.216 62.1178 294.624C58.9212 291.56 56.1831 288.051 53.9878 284.206C51.8461 280.563 50.0298 276.739 48.56 272.777C47.0764 268.821 45.9381 264.743 45.1579 260.591C44.2905 256.252 44.0463 251.811 44.4328 247.403ZM29.1508 271.014C32.9324 274.05 36.5038 277.339 39.8405 280.857C43.1442 284.28 46.2969 287.779 49.3814 291.297L58.5457 301.807C60.0831 303.528 61.6366 305.224 63.2779 306.83C64.8996 308.532 66.7885 309.958 68.87 311.052C67.6005 311.274 66.2995 311.241 65.0429 310.955C63.7755 310.702 62.5392 310.314 61.3555 309.796C59.0388 308.778 56.8372 307.517 54.7881 306.033C50.8112 303.123 47.1814 299.767 43.9698 296.031C40.7753 292.37 37.8993 288.444 35.3732 284.295C32.7729 280.134 30.6837 275.674 29.1508 271.014ZM29.1508 294.624C33.8124 296.951 38.2593 299.684 42.4395 302.792C46.5761 305.815 50.5556 309.047 54.3623 312.476C58.1773 315.896 61.8119 319.511 65.2516 323.307C68.7837 327.136 71.9664 331.273 74.7615 335.669C70.0951 333.35 65.6455 330.619 61.4658 327.508C57.3283 324.487 53.3508 321.252 49.5493 317.817C45.7397 314.392 42.1076 310.775 38.6671 306.979C35.1371 303.149 31.9526 299.015 29.1508 294.624ZM30.7049 313.149C35.4012 315.334 39.8941 317.93 44.1306 320.909C48.321 323.803 52.3598 326.91 56.2312 330.219C60.1102 333.518 63.8141 337.017 67.3277 340.703C70.9347 344.419 74.2002 348.452 77.085 352.753C72.3841 350.576 67.8884 347.982 63.6522 345.001C59.4613 342.108 55.4246 338.998 51.5587 335.683C47.6847 332.378 43.9831 328.877 40.4685 325.192C36.8635 321.475 33.5961 317.445 30.7049 313.149ZM31.7406 332.951C36.4141 334.707 40.9158 336.89 45.1888 339.471C49.4068 341.969 53.4883 344.691 57.4158 347.625C61.3506 350.549 65.1237 353.684 68.7182 357.017C72.4106 360.377 75.7816 364.073 78.7875 368.058C74.1104 366.31 69.6063 364.13 65.3337 361.547C61.1151 359.049 57.0353 356.324 53.1123 353.384C49.1824 350.454 45.4116 347.317 41.8163 343.985C38.1259 340.624 34.7531 336.93 31.7406 332.951ZM30.7049 347.317C35.5943 349.283 40.3024 351.672 44.7756 354.456C49.1992 357.16 53.4833 360.085 57.6118 363.221C61.7479 366.346 65.7206 369.682 69.5143 373.215C73.4022 376.772 76.9678 380.665 80.1695 384.85C75.2763 382.892 70.5658 380.505 66.0932 377.718C61.6689 375.015 57.3863 372.087 53.2626 368.946C49.1314 365.814 45.161 362.476 41.3665 358.944C37.4806 355.386 33.9131 351.495 30.7049 347.317ZM27.0787 360.777C32.1694 363.143 37.0845 365.869 41.7867 368.934C46.4563 371.922 50.9742 375.08 55.3789 378.376C59.7963 381.653 64.0914 385.069 68.3107 388.599C72.5735 392.099 76.6002 395.744 81.0106 399.354C78.1785 398.889 75.4133 398.082 72.7752 396.952C70.1631 395.861 67.6104 394.633 65.1278 393.273C60.2446 390.543 55.5495 387.49 51.074 384.134C46.6145 380.793 42.3517 377.198 38.3066 373.367C34.185 369.524 30.4265 365.309 27.0787 360.777ZM22.6755 374.754C28.1768 376.891 33.5147 379.426 38.6468 382.339C43.7471 385.179 48.6971 388.227 53.5332 391.437C58.3701 394.645 63.0903 398.018 67.6939 401.557C69.9949 403.331 72.274 405.138 74.5311 406.976C76.7143 408.91 79.0338 410.685 81.4716 412.287C79.9429 412.288 78.4254 412.027 76.9846 411.517C75.5386 411.089 74.1348 410.568 72.7464 410.027C69.9774 408.928 67.3018 407.671 64.6775 406.34C59.4682 403.659 54.4172 400.681 49.5493 397.421C44.6822 394.185 39.9824 390.705 35.4681 386.993C30.8729 383.273 26.5941 379.18 22.6755 374.754ZM71.691 322.512C71.9248 317.842 72.6162 313.206 73.7553 308.67C74.8307 304.217 76.1599 299.83 77.7364 295.529C79.3015 291.223 81.1154 287.013 83.1691 282.918C85.2253 278.716 87.6933 274.729 90.5367 271.014C90.3114 275.685 89.6232 280.323 88.4823 284.859C87.4076 289.312 86.075 293.699 84.4914 297.997C82.919 302.3 81.1021 306.51 79.0496 310.605C76.992 314.805 74.5274 318.793 71.691 322.512ZM74.7615 338.675C75.6439 334.03 76.9753 329.481 78.7369 325.092C80.4245 320.776 82.3546 316.558 84.5181 312.46C86.6708 308.355 89.0575 304.378 91.6666 300.547C94.2916 296.612 97.2966 292.944 100.638 289.595C99.764 294.243 98.4355 298.794 96.672 303.183C94.9851 307.499 93.0518 311.715 90.8817 315.81C88.722 319.911 86.3326 323.887 83.7248 327.718C81.0982 331.651 78.0964 335.321 74.7615 338.675ZM77.0851 354.306C78.5986 349.59 80.5467 345.025 82.9042 340.669C85.1818 336.373 87.6889 332.202 90.4145 328.174C93.1305 324.14 96.0653 320.258 99.2057 316.545C102.37 312.732 105.885 309.224 109.704 306.068C108.198 310.787 106.253 315.354 103.893 319.71C101.617 324.007 99.1067 328.176 96.3741 332.199C93.6519 336.229 90.7147 340.109 87.5752 343.824C84.4103 347.634 80.8986 351.143 77.0851 354.306ZM78.7875 371.55C81.1611 366.453 83.9474 361.558 87.1185 356.914C90.2149 352.296 93.5189 347.848 97.0304 343.57C100.53 339.282 104.233 335.159 108.138 331.202C112.059 327.169 116.308 323.469 120.842 320.138C118.477 325.241 115.693 330.138 112.518 334.78C109.422 339.398 106.116 343.844 102.599 348.119C99.0912 352.401 95.386 356.521 91.4839 360.48C87.5608 364.51 83.3145 368.212 78.7875 371.55ZM80.1695 389.432C83.0796 384.586 86.379 379.985 90.0351 375.674C93.6143 371.381 97.3825 367.277 101.34 363.365C105.286 359.441 109.416 355.703 113.732 352.151C118.07 348.525 122.701 345.263 127.576 342.399C124.675 347.25 121.377 351.854 117.718 356.163C114.139 360.456 110.368 364.557 106.407 368.466C102.453 372.382 98.3202 376.118 94.0078 379.673C89.6674 383.295 85.0394 386.559 80.1695 389.432ZM81.0106 400.898C84.2385 396.717 87.8249 392.826 91.7291 389.267C95.5418 385.735 99.53 382.396 103.679 379.265C107.82 376.123 112.119 373.195 116.56 370.493C121.049 367.707 125.776 365.322 130.685 363.365C127.463 367.552 123.878 371.446 119.972 375.003C116.16 378.536 112.17 381.873 108.017 384.998C103.87 388.133 99.5692 391.058 95.1291 393.762C90.6393 396.546 85.9152 398.933 81.0106 400.898ZM81.4715 410.475C85.344 406.659 89.533 403.179 93.9937 400.07C98.3724 396.959 102.884 394.081 107.53 391.436C112.168 388.778 116.935 386.347 121.833 384.143C126.775 381.873 131.903 380.031 137.16 378.637C133.293 382.459 129.105 385.943 124.642 389.05C120.263 392.16 115.75 395.035 111.102 397.675C106.459 400.325 101.689 402.753 96.7936 404.961C91.8513 407.228 86.7256 409.072 81.4715 410.475ZM81.1139 416.687C85.7601 413.483 90.6598 410.663 95.7643 408.254C100.791 405.829 105.916 403.668 111.124 401.734C116.332 399.798 121.631 398.107 127.021 396.662C132.463 395.159 138.02 394.108 143.635 393.521C138.994 396.733 134.095 399.557 128.988 401.963C123.961 404.387 118.84 406.557 113.625 408.474C108.414 410.4 103.118 412.101 97.7246 413.537C92.2825 415.036 86.7272 416.089 81.1139 416.687Z" fill="#50661A"/>
<path d="M83.7046 416.419L82.4708 415.678C82.8179 415.102 117.206 357.83 122.561 343.561L123.909 344.066C118.508 358.458 85.1232 414.059 83.7046 416.419Z" fill="#5E7C24"/>
<path d="M111.579 313.529C113.035 317.128 114.148 320.856 114.903 324.664C115.676 328.393 116.243 332.161 116.602 335.952C116.971 339.743 117.127 343.55 117.07 347.358C117.049 351.241 116.656 355.112 115.897 358.92C114.434 355.323 113.319 351.595 112.565 347.786C111.791 344.057 111.227 340.288 110.874 336.497C110.512 332.706 110.358 328.898 110.414 325.09C110.438 321.209 110.828 317.338 111.579 313.529ZM98.8872 330.872C100.66 334.224 102.104 337.74 103.201 341.37C104.306 344.918 105.211 348.526 105.911 352.176C106.619 355.824 107.119 359.509 107.406 363.214C107.735 366.992 107.693 370.794 107.283 374.564C105.504 371.214 104.057 367.698 102.962 364.067C101.855 360.519 100.953 356.911 100.259 353.26C99.5567 349.611 99.0598 345.925 98.7712 342.22C98.4448 338.442 98.4836 334.642 98.8872 330.872ZM91.894 351.062C93.4548 354.178 94.6855 357.448 95.5659 360.82C96.4548 364.104 97.1409 367.44 97.6203 370.808C98.109 374.175 98.3866 377.569 98.4516 380.971C98.5525 384.455 98.284 387.94 97.6506 391.367C96.0828 388.253 94.8494 384.983 93.9709 381.61C93.0808 378.326 92.3972 374.99 91.9242 371.621C91.4417 368.253 91.1666 364.858 91.1007 361.456C91.0016 357.973 91.2675 354.489 91.894 351.062ZM83.0873 371.214C84.6544 373.824 85.9043 376.612 86.8105 379.518C87.7172 382.325 88.4234 385.193 88.924 388.1C89.4342 391.005 89.7336 393.943 89.8198 396.892C89.9432 399.934 89.6985 402.98 89.0912 405.964C87.5175 403.357 86.2648 400.569 85.3603 397.661C84.4525 394.855 83.7485 391.986 83.2538 389.078C82.7505 386.172 82.4537 383.233 82.3657 380.285C82.2445 377.244 82.4867 374.198 83.0873 371.214ZM75.317 383.81C76.9157 386.074 78.2354 388.522 79.2474 391.101C80.2393 393.565 81.0649 396.091 81.7186 398.665C82.3662 401.219 82.8645 403.809 83.2109 406.422C83.3725 407.738 83.5208 409.047 83.6192 410.382C83.67 411.742 83.8151 413.097 84.0534 414.437C83.721 414.259 83.4016 414.057 83.0978 413.834L82.3221 413.057C81.8276 412.527 81.3741 411.96 80.9653 411.361C80.1777 410.207 79.4802 408.994 78.8793 407.733C77.7119 405.281 76.7948 402.718 76.1418 400.083C75.476 397.471 75.0447 394.805 74.8532 392.117C74.6209 389.34 74.777 386.544 75.317 383.81ZM119.126 352.718C121.738 349.856 124.676 347.309 127.881 345.131C130.969 342.987 134.202 341.061 137.557 339.365C140.908 337.659 144.375 336.193 147.932 334.976C151.587 333.682 155.381 332.825 159.238 332.425C156.632 335.294 153.695 337.843 150.488 340.02C147.401 342.165 144.165 344.089 140.806 345.778C137.453 347.477 133.984 348.94 130.427 350.158C126.773 351.45 122.98 352.309 119.126 352.718ZM110.527 368.769C113.866 366.04 117.486 363.672 121.325 361.705C125.053 359.751 128.899 358.029 132.841 356.551C136.778 355.062 140.806 353.823 144.9 352.842C149.085 351.794 153.371 351.197 157.683 351.062C154.349 353.798 150.73 356.169 146.89 358.135C143.162 360.091 139.315 361.809 135.37 363.28C131.43 364.761 127.401 365.997 123.307 366.979C119.122 368.026 114.838 368.626 110.527 368.769ZM100.404 386.611C103.377 383.974 106.643 381.686 110.138 379.791C113.514 377.917 117.015 376.273 120.614 374.872C124.208 373.459 127.896 372.296 131.651 371.391C135.506 370.417 139.462 369.892 143.438 369.828C140.469 372.472 137.204 374.764 133.708 376.657C130.332 378.533 126.83 380.174 123.228 381.568C119.63 382.973 115.942 384.133 112.187 385.04C108.332 386.011 104.379 386.539 100.404 386.611ZM92.4041 400.344C94.9942 398.102 97.8685 396.21 100.953 394.717C103.904 393.25 106.966 392.02 110.112 391.037C113.254 390.044 116.471 389.306 119.733 388.83C123.119 388.296 126.561 388.215 129.969 388.589C127.383 390.839 124.509 392.734 121.423 394.225C118.473 395.694 115.409 396.921 112.261 397.896C109.116 398.882 105.898 399.617 102.638 400.094C99.2523 400.625 95.8115 400.71 92.4041 400.344Z" fill="#5E7C24"/>
<path d="M86.0893 412.666C88.9368 409.935 92.0899 407.541 95.4862 405.531C98.765 403.547 102.176 401.789 105.694 400.268C109.208 398.737 112.824 397.452 116.516 396.422C120.306 395.32 124.213 394.664 128.156 394.466C125.314 397.205 122.162 399.602 118.763 401.61C115.485 403.596 112.073 405.352 108.551 406.865C105.035 408.388 101.418 409.67 97.7261 410.701C93.9356 411.801 90.0309 412.461 86.0893 412.666ZM121.921 345.885C121.395 342.05 121.49 338.156 122.201 334.352C122.827 330.765 123.812 327.25 125.142 323.86C126.459 320.466 128.119 317.214 130.097 314.157C132.159 310.879 134.74 307.956 137.74 305.505C138.277 309.34 138.187 313.237 137.473 317.043C136.848 320.63 135.859 324.143 134.52 327.529C133.193 330.92 131.528 334.169 129.551 337.227C127.488 340.503 124.912 343.426 121.921 345.885Z" fill="#5E7C24"/>
<path d="M91.7898 456.942H65.7856L57.4198 412.588C57.3706 412.333 57.378 412.071 57.4415 411.82C57.5051 411.569 57.6233 411.335 57.7876 411.135C57.952 410.934 58.1585 410.773 58.3924 410.661C58.6264 410.55 58.8821 410.491 59.1412 410.49H98.4343C98.6934 410.491 98.9491 410.55 99.1831 410.661C99.417 410.773 99.6235 410.934 99.7879 411.135C99.9522 411.335 100.07 411.569 100.134 411.82C100.198 412.071 100.205 412.333 100.156 412.588L91.7898 456.942Z" fill="#E19974"/>
<path d="M99.5513 415.792L100.156 412.588C100.205 412.333 100.198 412.071 100.134 411.82C100.071 411.569 99.9524 411.335 99.788 411.135C99.6237 410.934 99.4172 410.773 99.1832 410.661C98.9492 410.55 98.6936 410.491 98.4344 410.49H59.1413C58.8821 410.491 58.6264 410.55 58.3924 410.661C58.1585 410.773 57.952 410.934 57.7876 411.135C57.6233 411.335 57.5051 411.569 57.4415 411.82C57.378 412.071 57.3706 412.333 57.4198 412.588L58.0243 415.792H99.5513Z" fill="#D6694B"/>
<path d="M67.864 444.379L62.3715 438.838L67.864 433.298L73.358 438.838L67.864 444.379Z" fill="#D6694B"/>
<path d="M78.8503 444.379L73.3577 438.838L78.8503 433.298L84.3443 438.838L78.8503 444.379Z" fill="#D6694B"/>
<path d="M89.71 444.379L84.2174 438.838L89.71 433.298L95.204 438.838L89.71 444.379Z" fill="#D6694B"/>
<path d="M430.006 247.777C429.808 247.539 429.561 247.346 429.282 247.21C429.003 247.075 428.699 247 428.389 246.991C427.568 247.102 427.608 248.183 426.166 249.551C424.99 250.666 422.719 252.075 420.899 251.482C419.381 250.988 419.593 249.563 417.806 248.295C416.782 247.599 415.601 247.168 414.369 247.041C415.96 253.434 418.904 257.741 422.283 257.741C425.53 257.741 428.377 253.762 430.006 247.777ZM421.333 266.405C419.888 266.473 419.114 268.015 416.307 272.683C414.928 274.976 413.904 276.619 413.142 277.837C413.13 278.291 413.113 278.743 413.113 279.204H431.453C431.453 278.748 431.436 278.303 431.424 277.854C430.379 276.53 428.799 274.546 426.456 271.427C423.696 267.753 422.757 266.338 421.333 266.405Z" fill="#FFBA55"/>
<path d="M422.284 258.814C416.54 258.814 412.04 248.876 412.04 236.189V235.116H432.527V236.189C432.527 248.876 428.027 258.814 422.284 258.814ZM414.198 237.262C414.434 248.916 418.489 256.667 422.284 256.667C426.078 256.667 430.133 248.916 430.369 237.262H414.198Z" fill="white"/>
<path d="M432.527 280.277H412.04V279.204C412.04 266.516 416.54 256.579 422.284 256.579C428.027 256.579 432.527 266.516 432.527 279.204V280.277ZM414.198 278.13H430.369C430.133 266.477 426.078 258.725 422.284 258.725C418.489 258.725 414.434 266.477 414.198 278.13Z" fill="white"/>
<path d="M438.789 278.131H435.568V237.262H438.789C439.074 237.262 439.347 237.149 439.549 236.948C439.75 236.747 439.863 236.474 439.863 236.189C439.863 235.904 439.75 235.631 439.549 235.43C439.347 235.229 439.074 235.116 438.789 235.116H405.778C405.493 235.116 405.22 235.229 405.019 235.43C404.818 235.631 404.704 235.904 404.704 236.189C404.704 236.474 404.818 236.747 405.019 236.948C405.22 237.149 405.493 237.262 405.778 237.262H409V278.131H405.778C405.493 278.131 405.22 278.244 405.019 278.445C404.818 278.646 404.704 278.919 404.704 279.204C404.704 279.488 404.818 279.761 405.019 279.962C405.22 280.164 405.493 280.277 405.778 280.277H438.789C439.074 280.277 439.347 280.164 439.549 279.962C439.75 279.761 439.863 279.488 439.863 279.204C439.863 278.919 439.75 278.646 439.549 278.445C439.347 278.244 439.074 278.131 438.789 278.131ZM411.148 237.262H433.42V278.131H411.148V237.262Z" fill="#7CA1B1"/>
<path d="M324.074 173.54H196.454C194.865 173.54 193.577 174.827 193.577 176.416V237.32C193.577 238.909 194.865 240.196 196.454 240.196H324.074C325.663 240.196 326.952 238.909 326.952 237.32V176.416C326.952 174.827 325.663 173.54 324.074 173.54Z" fill="#E5E1E5"/>
<path d="M326.952 173.54H298.621V240.196H326.952V173.54Z" fill="#A5A5A5"/>
<path d="M290.197 226.416H207.288V230.422H290.197V226.416Z" fill="#A5A5A5"/>
<path d="M290.197 207.729H207.288V211.735H290.197V207.729Z" fill="#A5A5A5"/>
<path d="M290.197 190.659H207.288V194.665H290.197V190.659Z" fill="#A5A5A5"/>
<path d="M262.712 255.215H260.367V275.542H262.712V255.215Z" fill="#E5E1E5"/>
<path d="M299.655 280.192H223.427V269.686L261.541 263.829L299.655 269.686V280.192Z" fill="#E5E1E5"/>
<path d="M207.532 192.761L204.967 189.259H201.807V181.678H213.502V189.259H208.234L207.532 192.761Z" fill="#FFBA55"/>
<path d="M207.532 209.836L204.967 206.334H201.807V198.753H213.502V206.334H208.234L207.532 209.836Z" fill="#FFBA55"/>
<path d="M207.532 228.419L204.967 224.917H201.807V217.336H213.502V224.917H208.234L207.532 228.419Z" fill="#FFBA55"/>
<path d="M275.643 259.017C275.643 259.017 243.188 237.011 242.701 237.219C242.214 237.427 239 239.142 255.129 251.159C255.129 251.159 250.915 253.622 254.067 262.446C254.576 263.858 255.4 265.135 256.477 266.18C257.554 267.225 258.856 268.01 260.283 268.477C263.827 269.64 268.643 270.824 270.829 269.579L275.643 259.017ZM237.636 414.757L232.71 429.298C232.71 429.298 214.448 444.047 190.938 448.165C190.938 448.165 183.772 451.526 183.816 456.737L254.735 456.145L254.509 429.116L256.582 415.229L237.636 414.757Z" fill="#F9977A"/>
<path d="M184.946 453.198L253.94 452.623C254.172 452.621 254.401 452.664 254.616 452.751C254.831 452.838 255.026 452.966 255.191 453.128C255.356 453.29 255.487 453.483 255.578 453.696C255.668 453.909 255.716 454.138 255.718 454.369V454.375C255.719 454.606 255.676 454.836 255.589 455.05C255.502 455.265 255.374 455.46 255.212 455.625C255.05 455.79 254.856 455.921 254.643 456.011C254.43 456.102 254.201 456.149 253.97 456.151L182.842 456.745C182.842 456.745 180.793 454.623 184.946 453.198Z" fill="#D6694B"/>
<path d="M205.429 453.91C205.429 453.91 206.069 450.268 202.404 445.266C203.193 444.426 204.167 443.781 205.248 443.384C206.33 442.987 207.49 442.848 208.635 442.978C209.476 444.364 210.164 445.837 210.686 447.372C211.582 449.817 212.218 452.758 211.181 454.744L205.429 453.91ZM222.573 436.078C222.573 436.078 228.532 445.344 225.011 453.842L231.762 453.786C231.762 453.786 235.413 440.374 228.08 432.628C228.08 432.628 223.56 432.783 222.573 436.078Z" fill="#D6694B"/>
<path d="M222.839 367.563L217.728 382.04C217.728 382.04 199.279 396.556 175.719 400.374C175.719 400.374 168.511 403.643 168.488 408.855L239.408 409.166L239.527 382.136L241.777 368.276L222.839 367.563Z" fill="#F9977A"/>
<path d="M169.662 405.331L238.658 405.634C238.89 405.635 239.119 405.681 239.332 405.771C239.546 405.86 239.74 405.991 239.902 406.155C240.065 406.319 240.194 406.514 240.282 406.728C240.37 406.942 240.414 407.172 240.413 407.403V407.409C240.411 407.876 240.223 408.323 239.891 408.652C239.56 408.981 239.11 409.164 238.643 409.162L167.513 408.85C167.513 408.85 165.491 406.702 169.662 405.331Z" fill="#D6694B"/>
<path d="M190.135 406.304C190.135 406.304 190.822 402.67 187.221 397.621C188.02 396.792 189.002 396.16 190.089 395.776C191.176 395.393 192.337 395.269 193.48 395.414C194.304 396.81 194.973 398.292 195.475 399.833C196.34 402.289 196.939 405.239 195.877 407.211L190.135 406.304ZM207.506 388.691C207.506 388.691 213.345 398.032 209.717 406.485L216.468 406.515C216.468 406.515 220.29 393.151 213.056 385.312C213.056 385.312 208.534 385.409 207.506 388.691Z" fill="#D6694B"/>
<path d="M308.083 309.189L261.264 292.908C255.424 290.876 249.02 291.214 243.428 293.851C237.835 296.487 233.5 301.21 231.356 307.006C223.085 329.068 216.77 351.812 212.483 374.979C212.362 375.679 212.504 376.399 212.882 377.001C213.26 377.603 213.847 378.045 214.53 378.241L229.308 382.493L230.77 419.98C230.799 420.723 231.114 421.425 231.651 421.941C232.187 422.456 232.902 422.744 233.646 422.744H254.841C255.525 422.744 256.187 422.5 256.707 422.057C257.228 421.613 257.574 420.999 257.682 420.324L267.755 357.663L291.032 359.754C291.032 359.754 413.172 384.584 393.818 295.196L341.509 297.814L335.404 303.472C331.798 306.813 327.35 309.111 322.537 310.118C317.724 311.125 312.727 310.804 308.083 309.189Z" fill="#6C7FD8"/>
<path d="M317.966 362.75C305.466 356.715 292.879 350.87 280.297 345.016L261.367 336.358C255.065 333.455 248.744 330.593 242.405 327.771L242.495 327.82C241.854 327.455 241.144 327.23 240.41 327.158C239.677 327.086 238.936 327.169 238.237 327.403C236.92 327.887 235.768 328.737 234.917 329.852C233.36 331.969 232.208 334.356 231.517 336.891C230.168 341.832 229.347 346.903 229.068 352.017C228.447 362.169 228.528 372.352 229.309 382.493C229.25 377.416 229.142 372.342 229.267 367.271C229.388 362.203 229.557 357.136 230.049 352.101C230.457 347.079 231.349 342.109 232.711 337.258C233.372 334.888 234.461 332.659 235.925 330.68C236.624 329.765 237.568 329.068 238.648 328.669C239.159 328.504 239.697 328.445 240.231 328.495C240.765 328.545 241.283 328.703 241.754 328.96L241.821 328.998L241.844 329.009C248.148 331.907 254.468 334.772 260.803 337.603L279.794 346.124C292.492 351.724 305.186 357.333 317.966 362.75Z" fill="#065082"/>
<path d="M214.078 366.591C216.36 367.965 218.775 369.104 221.287 369.99C223.777 370.935 226.358 371.622 228.989 372.039C226.71 370.662 224.294 369.523 221.781 368.64C219.289 367.697 216.709 367.011 214.078 366.591ZM258.971 412.306C254.238 411.797 249.48 411.557 244.72 411.588C239.96 411.554 235.203 411.794 230.47 412.306C235.203 412.819 239.96 413.059 244.72 413.025C249.48 413.056 254.238 412.816 258.971 412.306ZM267.754 357.663C268.802 356.66 269.653 355.47 270.264 354.155C270.926 352.865 271.339 351.462 271.481 350.018C270.432 351.02 269.58 352.21 268.971 353.526C268.312 354.818 267.9 356.22 267.754 357.663Z" fill="#065082"/>
<path d="M444.259 288.425H433.628V456.942H444.259V288.425Z" fill="#935B50"/>
<path d="M462.779 280.277H146.979C145.966 280.277 145.145 281.097 145.145 282.109V286.593C145.145 287.605 145.966 288.425 146.979 288.425H462.779C463.792 288.425 464.613 287.605 464.613 286.593V282.109C464.613 281.097 463.792 280.277 462.779 280.277Z" fill="#935B50"/>
<path d="M176.978 288.425H166.347V456.942H176.978V288.425Z" fill="#935B50"/>
<path d="M157.865 288.425H452.618V311.413C452.618 312.384 452.232 313.316 451.544 314.003C450.857 314.69 449.925 315.076 448.953 315.076H161.531C160.559 315.076 159.626 314.69 158.939 314.003C158.252 313.316 157.865 312.384 157.865 311.413L157.865 288.425Z" fill="#C38F86"/>
<path d="M188.601 124.202L247.096 124.467L264.221 143.293V124.467H286.163C287.307 124.467 288.405 124.013 289.215 123.204C290.025 122.395 290.479 121.298 290.479 120.153V64.8899C290.479 63.7458 290.025 62.6485 289.215 61.8394C288.405 61.0304 287.307 60.5759 286.163 60.5759H188.621C187.476 60.5759 186.378 61.0304 185.568 61.8394C184.759 62.6485 184.304 63.7458 184.304 64.8899V119.888C184.304 121.028 184.756 122.123 185.561 122.931C186.367 123.74 187.46 124.197 188.601 124.202Z" fill="#FFBA55"/>
<mask id="mask0_1741_2046" style="mask-type:luminance" maskUnits="userSpaceOnUse" x="184" y="60" width="107" height="84">
<path d="M188.601 124.202L247.096 124.467L264.221 143.293V124.467H286.163C287.307 124.467 288.405 124.013 289.215 123.204C290.025 122.395 290.479 121.298 290.479 120.153V64.8899C290.479 63.7458 290.025 62.6485 289.215 61.8394C288.405 61.0304 287.307 60.5759 286.163 60.5759H188.621C187.476 60.5759 186.378 61.0304 185.568 61.8394C184.759 62.6485 184.304 63.7458 184.304 64.8899V119.888C184.304 121.028 184.756 122.123 185.561 122.931C186.367 123.74 187.46 124.197 188.601 124.202Z" fill="white"/>
</mask>
<g mask="url(#mask0_1741_2046)">
<path d="M290.48 60.5759V62.8106L251.068 92.3792L290.48 121.948V124.182L290.265 124.467H287.887L248.095 94.6009L237.392 102.635L226.689 94.6009L186.897 124.467H184.518L184.304 124.182V121.948L223.716 92.3792L184.304 62.8106V60.5759H187.277L237.392 98.1787L287.507 60.5759H290.48Z" fill="#E5E1E5"/>
</g>
<path d="M369.233 215.74L370.63 165.308L332.949 167.374L334.602 197.482C334.688 199.051 335.083 200.588 335.763 202.005C336.444 203.421 337.397 204.69 338.568 205.739C339.739 206.788 341.105 207.595 342.589 208.116C344.073 208.637 345.644 208.861 347.215 208.775L348.074 208.728L348.354 217.337L369.233 215.74Z" fill="#F9977A"/>
<path d="M347.935 208.728L353.96 208.397L348.215 217.336L347.935 208.728Z" fill="#DD765E"/>
<path d="M335.404 303.472C339.3 299.861 339.661 294.868 339.704 289.558L341.635 282.563C334.973 297.739 318.789 294.633 318.789 294.633C310.681 294.371 267.993 270.106 267.993 270.106L272.604 256.96L316.401 267.556C316.401 267.556 324.051 254.03 331.702 238.936C339.352 223.842 348.354 217.336 348.354 217.336L371.7 213.835C413.547 217.494 393.818 295.196 393.818 295.196C413.172 384.584 291.032 359.754 291.032 359.754C288.498 352.363 287.702 344.488 288.706 336.739C289.709 328.991 292.485 321.578 296.818 315.075C303.466 315.075 312.983 315.762 323.417 311.59C327.964 309.803 332.059 307.031 335.404 303.472Z" fill="#F73C4F"/>
<path d="M388.574 357.854H381.38V456.303H388.574V357.854Z" fill="#C38F86"/>
<path d="M318.065 357.854H310.87V456.303H318.065V357.854Z" fill="#C38F86"/>
<path d="M316.401 267.556C316.24 268.363 316.306 269.2 316.592 269.972C316.853 270.754 317.329 271.446 317.965 271.969C318.237 271.165 318.231 270.293 317.947 269.492C317.664 268.692 317.119 268.01 316.401 267.556ZM338.371 288.4C340.748 285.193 342.905 281.828 344.826 278.329C346.804 274.861 348.541 271.261 350.026 267.556C347.646 270.761 345.489 274.127 343.571 277.627C341.595 281.097 339.858 284.696 338.371 288.4Z" fill="#B02336"/>
<path d="M165.438 272.872H209.519V279.441H165.438C164.665 279.441 163.923 279.134 163.377 278.588C162.83 278.041 162.523 277.3 162.523 276.527V275.785C162.523 275.403 162.598 275.024 162.745 274.67C162.891 274.317 163.106 273.996 163.377 273.725C163.647 273.454 163.969 273.24 164.323 273.093C164.676 272.947 165.055 272.872 165.438 272.872Z" fill="white"/>
<path d="M210.895 279.61C210.89 279.772 210.821 279.926 210.702 280.038C210.583 280.15 210.425 280.21 210.262 280.205H164.604C163.703 279.987 162.901 279.473 162.328 278.744C161.755 278.016 161.443 277.117 161.443 276.19C161.443 275.264 161.755 274.364 162.328 273.636C162.901 272.907 163.703 272.393 164.604 272.175H210.262C210.425 272.17 210.583 272.23 210.702 272.342C210.821 272.454 210.89 272.608 210.895 272.77V273.239C210.89 273.402 210.821 273.556 210.702 273.667C210.583 273.779 210.425 273.839 210.262 273.834H164.604C164.075 273.962 163.605 274.264 163.268 274.691C162.932 275.118 162.749 275.646 162.749 276.19C162.749 276.734 162.932 277.262 163.268 277.689C163.605 278.116 164.075 278.418 164.604 278.546H210.262C210.425 278.541 210.583 278.601 210.702 278.713C210.821 278.824 210.89 278.978 210.895 279.141V279.61Z" fill="#F65B2B"/>
<path d="M158.575 264.842H202.656V271.412H158.575C157.801 271.412 157.06 271.105 156.513 270.558C155.966 270.012 155.659 269.271 155.659 268.498V267.756C155.659 266.983 155.966 266.242 156.513 265.695C157.06 265.149 157.801 264.842 158.575 264.842Z" fill="white"/>
<path d="M204.032 271.58C204.027 271.743 203.957 271.897 203.839 272.008C203.72 272.12 203.562 272.18 203.399 272.175H157.741C156.84 271.957 156.038 271.443 155.465 270.715C154.891 269.987 154.58 269.087 154.58 268.16C154.58 267.234 154.891 266.334 155.465 265.606C156.038 264.878 156.84 264.363 157.741 264.145H203.399C203.562 264.141 203.72 264.201 203.839 264.312C203.957 264.424 204.027 264.578 204.032 264.741V265.209C204.027 265.372 203.957 265.526 203.839 265.638C203.72 265.749 203.562 265.809 203.399 265.804H157.741C157.212 265.932 156.742 266.234 156.405 266.661C156.069 267.089 155.886 267.617 155.886 268.16C155.886 268.704 156.069 269.232 156.405 269.659C156.742 270.086 157.212 270.388 157.741 270.516H203.399C203.562 270.511 203.72 270.571 203.839 270.683C203.957 270.795 204.027 270.949 204.032 271.111V271.58Z" fill="#FFBA55"/>
<path d="M172.624 256.812H216.705V263.382H172.624C171.85 263.382 171.109 263.075 170.562 262.528C170.015 261.982 169.708 261.241 169.708 260.468V259.726C169.708 258.953 170.015 258.212 170.562 257.666C171.109 257.119 171.85 256.812 172.624 256.812Z" fill="white"/>
<path d="M218.081 263.55C218.076 263.712 218.006 263.867 217.888 263.978C217.769 264.09 217.611 264.15 217.448 264.145H171.79C170.889 263.927 170.087 263.413 169.514 262.685C168.94 261.956 168.628 261.057 168.628 260.13C168.628 259.204 168.94 258.304 169.514 257.576C170.087 256.848 170.889 256.333 171.79 256.115H217.448C217.611 256.111 217.769 256.171 217.888 256.282C218.006 256.394 218.076 256.548 218.081 256.711V257.179C218.076 257.342 218.006 257.496 217.888 257.607C217.769 257.719 217.611 257.779 217.448 257.774H171.79C171.261 257.902 170.791 258.204 170.454 258.631C170.118 259.058 169.935 259.586 169.935 260.13C169.935 260.674 170.118 261.202 170.454 261.629C170.791 262.056 171.261 262.358 171.79 262.486H217.448C217.611 262.481 217.769 262.541 217.888 262.653C218.006 262.764 218.076 262.918 218.081 263.081V263.55Z" fill="#F65B2B"/>
<path d="M326.956 152.556C326.956 152.556 325.985 141.873 336.553 149.154C336.553 149.154 342.568 132.912 361.404 154.502C361.404 154.502 389.051 155.393 378.63 178.603C380.118 182.003 382.133 185.146 384.6 187.919C392.164 196.656 396.773 195.645 403.249 205.52C408.334 213.272 408.847 219.01 408.948 220.533C409.353 225.564 408.272 230.604 405.84 235.028C401.722 242.3 393.266 248.249 384.082 247.97C373.544 247.65 368.22 238.237 361.807 232.44C348.073 220.025 347.573 194.269 346.078 189.853C346.078 189.853 352.999 185.573 347.306 181.226C346.682 180.735 345.957 180.388 345.184 180.208C344.41 180.029 343.607 180.022 342.83 180.188C342.304 180.237 341.814 180.477 341.452 180.862C341.091 181.247 340.882 181.75 340.866 182.278L332.949 167.374C332.949 167.374 325.775 169.493 325.685 160.87C325.685 160.87 317.984 156.883 326.956 152.556Z" fill="#FFBA55"/>
<path d="M410.948 341.85C410.948 341.85 419.971 314.799 412.91 259.519C412.91 259.519 410.163 240.896 391.725 239.524C373.286 238.152 359.751 268.02 354.259 298.564C348.767 329.108 336.605 356.41 296.785 357.167C296.785 357.167 244.169 366.157 356.197 371.254C356.197 371.254 404.083 371.646 410.948 341.85Z" fill="#935B50"/>
<path d="M345.944 197.179C351.499 197.179 351.509 188.551 345.944 188.551C340.389 188.551 340.379 197.179 345.944 197.179Z" fill="#F73C4F"/>
<path d="M683.517 455.761H-0.0639648V458.378H683.517V455.761Z" fill="#935B50"/>
</g>
<defs>
<clipPath id="clip0_1741_2046">
<rect width="631" height="458" fill="white"/>
</clipPath>
</defs>
</svg>
