<svg width="148" height="148" viewBox="0 0 148 148" fill="none" xmlns="http://www.w3.org/2000/svg">
<circle cx="74" cy="74" r="74" fill="#A9FFA2"/>
<path d="M108.671 51.5759C108.075 59.3155 105.846 67.0245 101.498 73.197C100.81 74.2456 99.9539 75.1736 98.9642 75.9437C97.2231 75.9785 94.7724 77.7066 92.7787 77.8982C91.2769 78.0462 89.6794 77.6326 88.2255 77.872C83.6898 78.6077 78.8798 81.9377 74.7314 83.9009C71.9325 85.2067 69.0726 86.5649 65.9776 86.826C62.2341 87.1351 58.7082 85.8205 55.5828 83.6919C52.9552 81.8362 50.622 79.5955 48.6617 77.045C42.1018 68.7265 37.8141 57.6135 39.1157 46.7355C42.0495 22.2676 72.5071 6.71451 94.7767 13.2483C95.9395 13.5846 97.0456 14.0922 98.0588 14.7544C98.3722 15.1026 98.6813 15.4639 98.9773 15.8252C99.5954 16.5696 100.187 17.3357 100.762 18.1192L101.058 18.5284C103.171 21.512 104.941 24.7245 106.334 28.1049C109.559 35.9271 109.311 43.2096 108.671 51.5759Z" fill="url(#paint0_linear_95_9755)"/>
<path d="M98.9772 15.8252C98.1806 19.0943 94.8593 23.6866 93.4968 26.0764C87.0762 37.3026 77.1994 45.6646 70.2956 56.2248C69.8038 56.9779 69.3772 57.7701 68.9375 58.5537C66.674 62.5627 64.4932 66.624 62.3254 70.6897C61.0311 73.1186 59.7499 75.5534 58.4818 77.9939C57.9812 78.969 57.2325 79.8744 57.1236 80.967C56.9903 82.008 56.9177 83.0559 56.906 84.1054C56.925 84.5327 57.0056 84.9549 57.1454 85.3591C57.1933 85.5071 57.4936 86.456 57.6634 86.4647C57.0278 86.379 56.4267 86.125 55.9222 85.7291C52.5748 83.496 50.1023 80.6274 47.7126 77.4585C46.6305 76.0631 45.6249 74.61 44.7003 73.1055C42.3889 69.2271 41.1396 64.835 40.2081 60.4559C39.2374 55.8853 38.5583 51.4192 39.1199 46.7398C42.0494 22.2676 72.5069 6.71449 94.7766 13.2483C95.9393 13.5845 97.0455 14.0921 98.0587 14.7544C98.3721 15.1026 98.6812 15.4639 98.9772 15.8252Z" fill="url(#paint1_linear_95_9755)"/>
<circle cx="49.3492" cy="66.7285" r="7.4" fill="#845161"/>
<ellipse cx="51.8871" cy="66.241" rx="6.96471" ry="6.9647" fill="#69303A"/>
<path d="M123.397 119.852C94.2986 142.257 53.7113 142.078 24.8118 119.416L45.9932 109.487C47.0019 109.013 47.9701 108.457 48.8879 107.825C49.1665 107.633 49.4451 107.433 49.7106 107.224C52.0159 105.46 53.9134 103.219 55.2736 100.655C57.0148 97.3688 57.5894 93.7385 57.6155 90.0385V89.7686C57.6155 87.7009 57.5154 85.6289 57.4719 83.5569C57.4719 83.2261 57.4719 82.8953 57.4719 82.5645C57.4545 81.186 57.44 79.8061 57.4284 78.4248L58.2989 78.8601L60.5625 80.031L61.6115 80.2095L73.7475 82.2728L75.3973 82.5557L87.2939 84.5799L87.7031 98.5093L87.8206 102.518L87.9033 105.274V105.409L93.1703 107.55L123.397 119.852Z" fill="#845161"/>
<path d="M87.7945 102.51C81.697 103.736 75.3639 102.379 70.3044 98.7618L57.6156 89.7643C57.6156 87.6966 57.5155 85.6246 57.4719 83.5526C62.073 85.8814 67.5751 86.7172 71.989 84.4232C73.1207 83.8443 74.2438 83.1913 75.3712 82.5427L87.2678 84.5668L87.677 98.4963L87.7945 102.51Z" fill="#69303A"/>
<path d="M101.484 69.3664C101.315 78.8297 96.1129 92.3281 93.9625 96.298C92.8525 98.3526 91.242 98.7792 88.6998 99.4321C82.3208 101.03 75.5619 99.742 70.2173 95.9106L54.1114 84.236C53.4323 78.7252 52.0176 73.6497 51.1427 68.1693C50.5811 64.6434 48.8269 57.1302 51.7564 54.3182C52.1627 53.9548 52.6259 53.6607 53.1276 53.4477C55.0473 52.5466 57.8941 52.0242 59.4698 51.4018C62.3718 50.2613 65.2462 49.0555 68.093 47.7845C70.995 46.4815 73.8737 45.1147 76.7293 43.684C79.46 42.3114 82.1559 40.8822 84.817 39.3964L89.0785 41.8688C91.6729 43.375 94.2658 44.8811 96.8572 46.3872C102.042 49.3951 99.5169 52.8295 98.7203 57.67C98.4591 59.2414 98.8727 59.2588 99.7041 60.3514C101.384 62.5932 101.537 66.6675 101.484 69.3664Z" fill="#845161"/>
<path d="M65.4988 54.2878C69.5117 53.3774 73.6532 53.1785 77.7349 53.7002" stroke="#00214E"/>
<path d="M91.1985 53.822C93.6759 53.1967 96.2366 52.9675 98.7857 53.1429" stroke="#00214E"/>
<path d="M123.397 119.852C94.2986 142.257 53.7113 142.078 24.8118 119.416L45.9932 109.487C47.0019 109.013 47.9701 108.457 48.8879 107.825C49.1665 107.633 49.4451 107.433 49.7106 107.224C59.9618 114.519 73.9521 119.12 86.0533 113.675C88.9349 112.369 91.5815 110.262 93.1486 107.555L123.397 119.852Z" fill="#FF2609"/>
<path d="M79.3323 71.1293C78.686 71.4734 78.3884 72.2383 78.6324 72.9287C78.8763 73.6191 79.5884 74.0274 80.3074 73.889" stroke="#00214E"/>
<path d="M85.7834 58.3578C86.95 62.4931 87.9338 66.5674 89.0482 70.7332C89.1782 71.1121 89.2301 71.5134 89.2005 71.9128C89.0394 73.1143 87.6247 73.6323 86.4451 73.9108" stroke="#00214E"/>
<ellipse cx="84.9476" cy="51.2799" rx="1.74988" ry="1.74988" fill="#FF2609"/>
<path d="M90.2017 42.5174C86.8369 42.6045 82.4143 42.7351 79.0669 43.2095C78.1005 43.3488 76.7119 43.6709 76.7119 43.6709C79.4427 42.2983 82.1386 40.8691 84.7997 39.3833L90.2017 42.5174Z" fill="white"/>
<path d="M100.148 78.7818C98.4069 86.1818 95.5427 93.5426 94.054 96.298C92.9396 98.3526 91.329 98.7748 88.7869 99.4321C82.7319 100.989 76.3011 99.9207 71.0748 96.4896C69.1116 95.2359 67.1005 94.0693 65.0982 92.8853C62.839 91.5533 60.5929 90.1952 58.46 88.676C56.6012 87.3484 54.8601 86.0251 53.872 83.8878C53.5206 83.0999 53.2296 82.2864 53.0014 81.4545C52.8011 80.7624 52.5661 79.9614 52.7228 79.2345C52.7767 78.946 52.981 78.7085 53.2582 78.612C53.4564 78.5707 53.6623 78.5889 53.8502 78.6643C55.0995 79.0386 56.24 79.8874 57.3717 80.5186C58.5913 81.2221 59.8885 81.7815 61.2371 82.1858C64.7543 83.2044 68.672 83.2914 71.9932 81.5807C74.962 80.0528 77.861 78.0723 80.9647 76.7925C83.0315 75.8944 85.2723 75.4677 87.5245 75.5432C90.7239 75.6956 92.1169 77.1103 94.4892 78.9646C95.2684 79.574 96.139 80.2096 97.1271 80.1965C98.2328 80.1617 99.2252 79.5174 100.148 78.7818Z" fill="#00214E"/>
<path d="M79.9331 82.1205C82.8477 83.2786 86.0837 83.339 89.0395 82.2902" stroke="#F2A196"/>
<path d="M71.0183 58.1314C73.6736 58.1009 73.7563 62.1579 71.101 62.2319H70.9835C68.3282 62.2623 68.2498 58.2054 70.9051 58.1314H71.0227H71.0183Z" fill="#00214E"/>
<path d="M92.8875 57.4176C95.3513 57.3914 95.4253 61.1567 92.9615 61.222H92.8527C90.3846 61.2482 90.3149 57.4829 92.7787 57.4132H92.8875V57.4176Z" fill="#00214E"/>
<defs>
<linearGradient id="paint0_linear_95_9755" x1="64.4174" y1="82.4457" x2="128.471" y2="91.9783" gradientUnits="userSpaceOnUse">
<stop stop-color="#16243F"/>
<stop offset="1" stop-color="#6878B1"/>
</linearGradient>
<linearGradient id="paint1_linear_95_9755" x1="45.9377" y1="133.103" x2="138.833" y2="88.0451" gradientUnits="userSpaceOnUse">
<stop stop-color="#16243F"/>
<stop offset="1" stop-color="#6878B1"/>
</linearGradient>
</defs>
</svg>
