<svg width="148" height="148" viewBox="0 0 148 148" fill="none" xmlns="http://www.w3.org/2000/svg">
<circle cx="74" cy="74" r="74" fill="#FFB9B9"/>
<path d="M47.5036 67.9346C47.2468 67.3252 46.9986 66.707 46.7679 66.0846C41.1091 51.0277 43.3988 32.6235 56.4358 22.1764C60.0313 19.2948 63.3526 16.8484 67.6403 14.9941C68.9723 14.4195 70.474 13.871 71.8409 14.3629C73.2077 14.8548 73.9695 16.9181 72.8072 17.7843C75.5159 15.8758 78.5352 14.4516 81.7308 13.575C83.6373 13.057 85.7355 12.748 87.5463 13.5446C89.3571 14.3412 90.6195 16.6177 89.7228 18.3763C92.3345 17.423 95.1422 16.6047 97.854 17.1923C101.941 18.0629 105.132 24.157 106.886 27.6394C109.349 32.6516 110.632 38.1608 110.639 43.7453C110.687 48.3768 109.411 52.9126 108.027 57.3265C106.085 63.512 103.796 69.7889 99.4864 74.6337C95.0899 79.5221 90.1363 80.8846 83.8637 81.2633C80.2072 81.4853 76.5595 81.8466 72.9117 82.1687C71.0617 82.3341 69.2073 82.4995 67.353 82.604C65.6989 82.7041 64.1884 83.5442 62.5212 83.7662C61.0991 84.0066 59.6373 83.7694 58.3642 83.0915C57.4294 82.471 56.6091 81.6934 55.9396 80.7932C54.1886 78.7947 52.548 76.7022 51.0251 74.5249C49.6477 72.4431 48.4687 70.2367 47.5036 67.9346Z" fill="#00214E"/>
<ellipse cx="53.058" cy="64.5176" rx="7.4" ry="7.4" fill="#845161"/>
<circle cx="55.6087" cy="64.0823" r="6.96471" fill="#69303A"/>
<path d="M123.397 118.137C94.2986 140.542 53.7113 140.363 24.8118 117.702L45.9932 107.773C47.0019 107.298 47.9701 106.742 48.8879 106.11C49.1665 105.918 49.4451 105.718 49.7106 105.509C52.0159 103.745 53.9134 101.505 55.2736 98.9406C57.0148 95.6541 57.5894 92.0237 57.6155 88.3237C57.6155 87.5663 57.6155 86.8046 57.5894 86.0471C57.5502 84.306 57.4719 82.5648 57.4545 80.8497C57.4371 79.4713 57.4225 78.0914 57.4109 76.7101L58.2815 77.1454L60.5451 78.3163L61.5941 78.4948L73.7301 80.5581L87.2765 82.8651L87.6856 96.7946L87.8424 102.109L87.8859 103.559V103.703L93.1529 105.844L123.397 118.137Z" fill="#845161"/>
<path d="M87.8467 102.192L87.1763 102.262C80.6254 102.836 74.1528 100.505 69.4729 95.8848L57.5545 81.9946C57.5154 80.7322 57.4675 81.7334 57.4544 80.4667C57.437 79.0882 57.4225 77.7084 57.4109 76.327L58.2815 76.7623L60.545 77.9333L61.5941 78.1117L73.7301 80.175L87.2764 82.4821L87.6856 96.4115L87.8467 102.192Z" fill="#69303A"/>
<path d="M62.2122 50.2747C61.8355 52.576 61.6897 54.9092 61.7769 57.2394C61.3852 57.1567 54.1897 55.2371 54.242 55.8378C54.6207 60.3474 57.0192 77.9377 57.4762 82.3907L73.3296 94.0827C78.5974 98.0185 85.3283 99.4414 91.7382 97.9743C94.2934 97.3736 95.9127 96.9774 97.0662 94.9272C99.2949 91.0096 104.767 77.6069 105.124 68.1523C105.224 65.4665 105.158 61.3747 103.504 59.0894C102.699 57.9794 102.285 57.9533 102.577 56.3863C102.877 54.7496 103.308 53.1346 103.67 51.5066C104.54 47.5629 104.867 43.9064 103.996 39.8669C103.4 37.1114 100.744 32.1534 100.744 32.1534C100.392 34.1601 97.2621 37.1811 94.2716 37.7861C87.3809 39.1791 81.7656 36.1059 75.1187 35.7707C72.3197 35.6271 69.3685 36.2844 67.2834 38.1474C65.6815 39.5709 64.7108 41.5689 63.9621 43.5799C63.1595 45.7484 62.5734 47.9909 62.2122 50.2747Z" fill="#845161"/>
<path d="M90.2191 57.2394C90.3365 58.9321 90.6283 60.6081 91.0897 62.2409C91.525 63.6817 92.1823 64.5741 93.0573 65.8147C93.3551 66.226 93.6159 66.6631 93.8364 67.1206C94.9856 69.7062 93.4577 72.5748 90.55 72.5748H88.7522" stroke="#00214E"/>
<path d="M77.5825 76.8407C79.6735 79.177 82.5409 80.6757 85.6529 81.0587" stroke="#00214E"/>
<path d="M69.4556 52.4032C73.4849 51.5677 77.6301 51.4498 81.7004 52.055" stroke="#00214E"/>
<path d="M95.1597 52.4512C97.6489 51.8722 100.214 51.6929 102.76 51.9201" stroke="#00214E"/>
<path d="M123.397 118.137C94.2986 140.542 53.7113 140.363 24.8118 117.702L45.9932 107.773C47.0019 107.298 47.9701 106.742 48.8879 106.11C49.1665 105.918 49.4451 105.718 49.7106 105.509C59.9618 112.805 73.9521 117.406 86.0533 111.96C88.9349 110.654 91.5815 108.548 93.1486 105.84L123.397 118.137Z" fill="#FF2609"/>
<path d="M82.9497 69.5104C82.2999 69.8429 81.9897 70.5995 82.2189 71.2925C82.4481 71.9855 83.1483 72.408 83.8682 72.2875" stroke="#00214E"/>
<path d="M76.2069 55.7246C78.8621 55.7246 78.8621 59.8077 76.2069 59.8294H76.085C73.4297 59.8294 73.4297 55.7464 76.085 55.7246H76.2069Z" fill="#00214E"/>
<path d="M98.0804 55.7246C100.544 55.7246 100.544 59.516 98.0804 59.5334H97.9716C95.5078 59.5334 95.5078 55.7464 97.9716 55.7246H98.0848H98.0804Z" fill="#00214E"/>
</svg>
