<svg width="148" height="148" viewBox="0 0 148 148" fill="none" xmlns="http://www.w3.org/2000/svg">
<g clip-path="url(#clip0_95_9756)">
<rect width="148" height="148" rx="74" fill="white"/>
<circle cx="74" cy="74" r="74" fill="#B0F7E6"/>
<path d="M132.889 129.945C120.635 125.816 90.0135 109.965 90.0135 109.965H59.5699C59.5699 109.965 28.9635 125.816 16.6943 129.945C4.43994 134.074 4.43994 155.001 4.43994 155.001H145.158C145.158 155.001 145.158 134.074 132.904 129.945H132.889Z" fill="#424777"/>
<path fill-rule="evenodd" clip-rule="evenodd" d="M59.304 112.272L61.302 95.4889H88.1344L90.2064 111.384L87.3635 111.466L80.2894 116.269L76.8854 149.777L71.2614 116.684L65.8522 112.084L59.304 112.272Z" fill="#C1735C"/>
<path d="M60.1465 105.168C60.1465 105.168 80.9405 107.077 88.2665 97.9602V87.4818L61.9077 90.0126L60.1465 105.168Z" fill="#A5503C"/>
<path d="M59.9246 107.034L49.905 114.863L63.4174 128.05L71.2614 116.684L59.9246 107.034Z" fill="#515882"/>
<path d="M80.29 116.269L89.6584 107.167L98.79 114.389L86.6984 127.621L80.29 116.269Z" fill="#515882"/>
<path d="M68.6274 9.56105C66.6886 4.76585 57.5422 1.83545 57.5422 1.83545C59.8066 16.8278 68.4202 13.6014 68.4202 13.6014C68.5978 13.2462 68.7162 12.891 68.8198 12.5506C75.5686 16.3098 81.1926 2.51625 81.1926 2.51625C71.7946 3.19705 69.2194 6.86745 68.6274 9.56105Z" fill="#FF7C59"/>
<path fill-rule="evenodd" clip-rule="evenodd" d="M76.0425 99.6926C89.6351 99.6926 101.141 88.2713 105.008 72.5261C106.28 72.275 106.841 72.0006 106.841 72.0006C109.949 70.343 111.622 66.5098 111.148 61.5222C110.792 57.7792 107.753 57.2036 106.258 57.1494C104.787 37.4712 91.8208 22.0814 76.0425 22.0814C60.2654 22.0814 47.2995 37.4691 45.827 57.1454C44.5324 57.1268 40.9681 57.4495 40.5813 61.5222C40.1077 66.5098 41.7801 70.343 44.8881 72.0006C44.8881 72.0006 45.5541 72.3262 47.0785 72.5926L47.0747 72.5178C50.9401 88.2673 62.4476 99.6926 76.0425 99.6926Z" fill="#C1735C"/>
<path d="M76.0422 19.802C43.4822 19.3432 45.6874 57.394 45.6874 57.394L76.0422 59.614L106.397 57.394C106.397 57.394 108.602 19.3432 76.0422 19.802Z" fill="#C1735C"/>
<path d="M55.2332 53.1032C60.2356 52.2004 64.6608 52.9108 66.9104 53.34C67.5912 53.4732 68.272 53.1476 68.4792 52.5852C68.716 51.9488 68.272 51.2976 67.5024 51.1496C64.942 50.6612 60.3392 49.9212 55.5144 51.6084C54.7744 51.8748 53.4572 52.6 53.8568 53.1772C54.0788 53.3844 54.5672 53.2068 55.2332 53.0884V53.1032Z" fill="#441D39"/>
<path d="M97.1623 53.1186C92.1599 52.2158 87.7347 52.9262 85.4851 53.3554C84.8043 53.4886 84.1235 53.1482 83.9163 52.5858C83.6795 51.9494 84.1235 51.2834 84.8931 51.1354C87.4535 50.6322 92.0563 49.8922 96.8811 51.609C97.6211 51.8754 98.9383 52.6006 98.5387 53.1926C98.3167 53.3998 97.8283 53.2222 97.1623 53.1038V53.1186Z" fill="#441D39"/>
<path d="M90.3841 63.9937C91.3731 63.9937 92.1749 62.6022 92.1749 60.8857C92.1749 59.1692 91.3731 57.7777 90.3841 57.7777C89.395 57.7777 88.5933 59.1692 88.5933 60.8857C88.5933 62.6022 89.395 63.9937 90.3841 63.9937Z" fill="#441D39"/>
<path d="M63.5215 63.3577C64.5105 63.3577 65.3123 61.9662 65.3123 60.2497C65.3123 58.5332 64.5105 57.1417 63.5215 57.1417C62.5325 57.1417 61.7307 58.5332 61.7307 60.2497C61.7307 61.9662 62.5325 63.3577 63.5215 63.3577Z" fill="#441D39"/>
<path d="M78.1438 74.8576H75.317C74.059 74.8576 72.949 74.3692 72.357 73.57C71.9278 72.9928 71.8094 72.312 72.0166 71.646C72.6678 69.5148 73.2154 67.502 73.2154 67.4872C73.319 67.0876 73.7186 66.8656 74.1182 66.9692C74.5178 67.0728 74.7546 67.4872 74.6362 67.872C74.6362 67.872 74.0886 69.9292 73.4226 72.0752C73.3634 72.2824 73.393 72.4896 73.541 72.6968C73.8518 73.126 74.5474 73.3924 75.317 73.3924H78.1438C78.5582 73.3924 78.8838 73.718 78.8838 74.1324C78.8838 74.5468 78.5582 74.8724 78.1438 74.8724V74.8576Z" fill="#A5503C"/>
<path d="M71.6919 84.5068C70.3155 84.5068 69.4127 84.4328 69.3091 84.418C68.8947 84.3884 68.5987 84.0184 68.6283 83.6188C68.6579 83.2192 69.0131 82.9084 69.4275 82.938C69.5163 82.938 77.8635 83.6188 84.0499 80.57C84.4199 80.3924 84.8639 80.5404 85.0415 80.9104C85.2191 81.2804 85.0711 81.7244 84.7011 81.902C80.1723 84.1368 74.7407 84.492 71.6771 84.492L71.6919 84.5068Z" fill="#A5503C"/>
<path d="M91.8637 68.8638C94.7163 68.8638 97.0289 68.3338 97.0289 67.6798C97.0289 67.0259 94.7163 66.4958 91.8637 66.4958C89.011 66.4958 86.6985 67.0259 86.6985 67.6798C86.6985 68.3338 89.011 68.8638 91.8637 68.8638Z" fill="#AF5D4E"/>
<path d="M61.7304 68.8638C64.583 68.8638 66.8956 68.3338 66.8956 67.6798C66.8956 67.0259 64.583 66.4958 61.7304 66.4958C58.8777 66.4958 56.5652 67.0259 56.5652 67.6798C56.5652 68.3338 58.8777 68.8638 61.7304 68.8638Z" fill="#AF5D4E"/>
<path d="M95.8445 34.0549C95.8445 34.0549 104.813 50.2313 106.382 57.3945C106.382 57.3945 111.236 35.8309 99.7961 24.1685L95.8445 34.0401V34.0549Z" fill="#FF7C59"/>
<path d="M45.687 57.3956L48.9134 45.082H44.9766L45.687 57.3956Z" fill="#FF7C59"/>
<path d="M94.8233 17.79C94.8233 17.79 94.8233 17.716 94.8233 17.6864C94.8233 14.238 92.0261 11.4556 88.5925 11.4556C87.8377 11.4556 87.1421 11.6036 86.4761 11.8552C84.6409 9.91642 81.7697 8.65842 78.5137 8.65842C75.5093 8.65842 72.8157 9.73882 70.9657 11.4408C69.0269 10.2716 66.6293 9.56122 64.0393 9.56122C62.9441 9.56122 61.8933 9.69442 60.8869 9.91642C59.4217 8.64362 57.5273 7.87402 55.4405 7.87402C52.1549 7.87402 49.3281 9.78322 47.9813 12.5508C47.1673 11.87 46.1313 11.4556 44.9917 11.4556C42.3869 11.4556 40.2853 13.572 40.2853 16.162C40.2853 16.4432 40.3149 16.7096 40.3741 16.976C35.2385 17.05 31.0945 21.2384 31.0945 26.3888C31.0945 29.5116 32.6189 32.2792 34.9721 33.996C34.0989 35.4168 33.5957 37.0892 33.5957 38.8948C33.5957 44.1044 37.8137 48.3224 43.0233 48.3224C48.2329 48.3224 52.4509 44.1044 52.4509 38.8948C52.4509 38.7912 52.4509 38.6876 52.4361 38.584C53.6941 39.2056 55.1001 39.5608 56.5949 39.5608C61.5825 39.5608 65.6525 35.6832 65.9929 30.7992C67.6949 32.5308 70.0629 33.5964 72.6825 33.5964C76.5749 33.5964 79.9197 31.2284 81.3553 27.854C82.1397 32.2792 85.9877 35.6388 90.6349 35.6388C95.8445 35.6388 100.062 31.4208 100.062 26.2112C100.062 22.526 97.9461 19.344 94.8529 17.79H94.8233Z" fill="#441D39"/>
</g>
<defs>
<clipPath id="clip0_95_9756">
<rect width="148" height="148" rx="74" fill="white"/>
</clipPath>
</defs>
</svg>
