<svg width="148" height="148" viewBox="0 0 148 148" fill="none" xmlns="http://www.w3.org/2000/svg">
<circle cx="74" cy="74" r="74" fill="#C3B4FF"/>
<g clip-path="url(#clip0_95_9757)">
<path d="M80.6601 32.3645C80.0952 34.7852 76.8621 35.9811 75.4971 37.8863C74.0826 39.8575 73.9548 43.2886 71.9258 44.5505C69.8969 45.8124 66.7669 44.4103 64.371 44.8061C62.0616 45.1897 59.5584 47.5567 57.1336 46.9918C54.7088 46.4268 53.517 43.1937 51.6118 41.8287C49.6406 40.4143 46.2096 40.2905 44.9477 38.2575C43.6858 36.2244 45.0879 33.0986 44.692 30.7026C44.3085 28.3933 41.9414 25.8901 42.5064 23.4694C43.0713 21.0487 46.3003 19.8487 47.6653 17.9435C49.0839 15.9723 49.2076 12.5412 51.2365 11.2793C53.2655 10.0174 56.3996 11.4195 58.7955 11.0237C61.1049 10.6443 63.608 8.27306 66.0287 8.83802C68.4494 9.40299 69.6495 12.6361 71.5547 14.0011C73.5259 15.4155 76.9528 15.5393 78.2147 17.5723C79.4766 19.6054 78.0745 22.7312 78.4745 25.1272C78.8539 27.4365 81.2251 29.9397 80.6601 32.3645Z" fill="#DAAEA8"/>
<path d="M88.0088 87.9539C86.9696 89.191 86.0706 90.5478 85.0107 91.7643C79.3941 98.2222 67.1545 93.9747 61.0718 90.1148C56.6016 87.2899 53.2366 83.0259 50.3499 78.5886C46.8034 73.1163 43.8425 67.1656 42.5558 60.7736C36.6711 31.4944 74.2187 18.7517 95.2873 33.1192C103.123 38.4802 110.203 50.5053 108.484 60.1427C107.605 65.0336 104.129 69.4337 104.5 74.3906C104.912 79.7268 109.733 84.8074 107.712 89.7642C106.925 91.7066 105.218 93.0881 103.832 94.6634C101.968 96.783 100.603 99.4388 100.442 102.259C100.281 105.08 101.452 108.033 103.778 109.649C98.0338 108.882 94.4956 102.008 95.9801 96.4036C96.4668 94.5685 97.3658 92.8489 97.7575 90.989C98.1493 89.1292 97.9184 86.9559 96.4956 85.694C94.6688 84.0733 91.6914 84.6878 89.7738 86.2012C89.1277 86.7243 88.5363 87.3115 88.0088 87.9539Z" fill="#F2D4CF"/>
<path d="M123.709 124.536C96.1419 145.762 57.6908 145.593 30.3123 124.124L50.3995 114.726C51.0137 114.435 51.6125 114.113 52.1933 113.761L52.6552 113.472C52.8202 113.369 52.981 113.262 53.1418 113.151C55.6735 111.404 57.7483 109.075 59.1915 106.359C60.841 103.245 61.3854 99.8058 61.4101 96.3005C61.4101 93.9417 61.2823 91.5828 61.2575 89.2199C61.241 87.9112 61.2273 86.604 61.2163 85.2981L62.0411 85.7105L64.1855 86.8198L76.6766 88.9436L89.51 91.1292L89.8976 104.325L90.0914 110.87L94.8215 112.796L98.5329 114.297L123.709 124.536Z" fill="#845161"/>
<path d="M89.8687 104.33C85.7201 105.066 81.4522 104.733 77.4684 103.361C68.5691 100.371 62.5772 93.1582 62.0122 85.7271L64.1566 86.8364L76.6477 88.9601L89.4811 91.1458L89.8687 104.33Z" fill="#69303A"/>
<ellipse cx="49.2366" cy="72.1018" rx="7.01053" ry="7.01052" fill="#845161"/>
<ellipse cx="51.711" cy="71.2771" rx="7.01053" ry="7.01053" fill="#69303A"/>
<path d="M99.9268 61.0541C105.061 78.8485 95.0606 99.5089 87.448 100.358C69.0392 102.42 55.9625 93.0221 50.8283 75.2277C45.6942 57.4334 52.5191 39.8411 66.0866 35.9276C79.654 32.014 94.7885 43.2639 99.9268 61.0541Z" fill="#845161"/>
<path d="M73.1877 82.8156C75.1702 85.0292 77.8881 86.4489 80.8375 86.8116" stroke="#00214E"/>
<path d="M89.011 66.3202C89.0347 67.405 89.5319 68.4251 90.3719 69.112C91.2031 69.7935 92.1298 70.3493 93.1225 70.7616" stroke="#00214E"/>
<path d="M83.9634 65.4294C83.9634 65.5325 86.248 71.9781 87.646 75.8751C87.88 76.5371 87.7785 77.2715 87.3737 77.8451C86.9688 78.4188 86.3109 78.7605 85.6088 78.7618H84.1077" stroke="#00214E"/>
<ellipse cx="71.6373" cy="67.1904" rx="7.83529" ry="4.88263" stroke="white"/>
<ellipse cx="94.2401" cy="66.1387" rx="7.83529" ry="4.88263" stroke="white"/>
<path d="M79.4727 67.1903L86.4626 66.6583" stroke="white"/>
<path d="M83.1429 40.9916C82.1532 42.9463 80.0912 44.6454 78.8541 46.6454C77.2499 49.2641 76.0375 52.1095 74.6766 54.8601C73.6663 56.922 72.5405 58.9592 70.8332 60.4727C69.126 61.9861 66.7094 62.881 64.5155 62.25C63.0144 61.8377 61.7979 60.749 60.4535 59.9489C59.1091 59.1489 57.4101 58.6211 56.0204 59.3798C53.9915 60.4685 54.0203 63.4253 52.5687 65.211C49.2408 69.3059 43.1334 63.7882 42.3952 60.2129C41.323 54.988 45.6077 50.6208 48.7253 47.0166C51.3275 44.0062 54.8451 39.4163 58.9277 38.4101C58.9978 38.4101 82.846 28.9253 82.846 28.9253C83.0563 32.113 84.3429 36.8266 83.5759 39.8782C83.4718 40.2638 83.3266 40.6371 83.1429 40.9916Z" fill="#F2D4CF"/>
<path d="M78.8993 76.1761C78.3511 76.5028 78.1214 77.1794 78.3574 77.7723C78.5933 78.3652 79.225 78.699 79.8478 78.5597" stroke="#00214E"/>
<path d="M88.0171 58.8808C90.9306 57.3966 94.3001 57.078 97.4401 57.99" stroke="#00214E"/>
<path d="M65.2908 60.4067C69.3087 58.3607 74.0289 58.2096 78.1695 59.9943" stroke="#00214E"/>
<path d="M123.709 124.536C96.1419 145.762 57.6908 145.593 30.3123 124.124L50.3995 114.726C51.3551 114.277 52.2723 113.75 53.1418 113.15C53.4058 112.969 53.6697 112.779 53.9212 112.581C56.1052 110.91 57.9028 108.788 59.1915 106.359C60.1657 104.492 60.8129 102.472 61.105 100.387C61.3962 100.669 61.7018 100.936 62.0205 101.187C64.549 103.057 67.2932 104.616 70.1939 105.831C71.6022 106.418 73.0423 106.926 74.5074 107.352C78.9216 108.64 83.5304 109.127 88.1161 108.792C88.7512 108.742 89.3904 108.68 90.0254 108.635L90.0873 110.73V110.866L95.0771 112.895L123.709 124.536Z" fill="#00214E"/>
<path d="M70.9197 71.3389C72.0724 71.4109 73.2052 71.0131 74.0598 70.2362C74.9144 69.4593 75.418 68.3694 75.4559 67.2151" stroke="#00214E"/>
<path d="M68.0083 83.7476C68.5229 82.8855 69.1575 82.101 69.8929 81.4176C71.4083 80.0279 73.3089 79.1294 75.3446 78.8402" stroke="#00214E"/>
<path d="M78.6189 50.9713H88.3759" stroke="#00214E"/>
<path d="M76.2354 54.1962H88.3759" stroke="#00214E"/>
<path d="M72.0331 65.0378C74.5527 65.0089 74.627 68.8564 72.1114 68.9224H71.996C69.4804 68.9513 69.4062 65.1079 71.9217 65.0378H72.0331Z" fill="#00214E"/>
<path d="M92.7514 64.3656C95.0896 64.3367 95.1556 67.9038 92.8215 67.9698H92.7184C90.3843 67.9946 90.3142 64.4274 92.6483 64.3615H92.7514V64.3656Z" fill="#00214E"/>
</g>
<defs>
<clipPath id="clip0_95_9757">
<rect width="103.456" height="131.881" fill="white" transform="translate(25.864 8.79211)"/>
</clipPath>
</defs>
</svg>
