<svg width="148" height="148" viewBox="0 0 148 148" fill="none" xmlns="http://www.w3.org/2000/svg">
<circle cx="74" cy="74" r="74" fill="#D3DAFF"/>
<path d="M123.397 117.201C94.2986 139.606 53.7113 139.427 24.8118 116.765L45.9932 106.836C47.0019 106.362 47.9701 105.806 48.8879 105.173C49.1665 104.982 49.4451 104.782 49.7106 104.573C52.0159 102.809 53.9134 100.568 55.2736 98.0042C56.3044 96.0272 56.9876 93.8878 57.2934 91.6794C57.506 90.2512 57.6137 88.8095 57.6155 87.3656C57.6155 84.8757 57.4806 82.3858 57.4545 79.8916C57.4371 78.5103 57.4225 77.1304 57.4109 75.752L58.2815 76.1872L60.5451 77.3582L61.5941 77.5367L73.7301 79.6L87.2765 81.907L87.6856 95.8364L87.8206 100.39L87.8859 102.601V102.745L93.1529 104.886L123.397 117.201Z" fill="#F2A196"/>
<path d="M123.397 117.201C94.2986 139.606 53.7113 139.427 24.8118 116.765L45.9932 106.836C47.0019 106.362 47.9701 105.806 48.8879 105.173C49.1665 104.982 49.4451 104.782 49.7106 104.573C59.9618 111.868 73.9521 116.469 86.0533 111.024C88.9349 109.718 91.5815 107.611 93.1486 104.904L123.397 117.201Z" fill="url(#paint0_linear_95_9744)"/>
<path d="M87.8772 102.614C83.3284 102.888 78.7361 99.3579 73.9914 96.6286C65.107 91.4965 59.8791 84.9018 61.5855 77.5627L73.7215 79.626L87.2678 81.9331L87.677 95.8625L87.8772 102.614Z" fill="#E88870"/>
<path d="M108.745 32.6796C110.983 41.3855 107.339 49.5255 103.826 57.4914C99.382 67.5597 93.0006 68.7568 83.2587 72.0824C81.0822 72.8311 57.4806 79.5347 57.4806 80.9972C57.4806 80.6795 55.1691 78.3855 52.257 75.5952C41.81 65.6749 38.3755 50.3482 44.5915 37.2023C52.8621 19.7427 77.5084 16.6216 94.424 20.8657C100.257 22.3283 105.951 24.6354 108.14 30.6816C108.366 31.352 108.571 32.018 108.745 32.6796Z" fill="#00214E"/>
<circle cx="53.1275" cy="63.5812" r="7.4" fill="#F2A196"/>
<ellipse cx="55.4782" cy="63.5811" rx="6.62518" ry="6.62518" fill="#E88870"/>
<path d="M55.574 56.599L57.4806 81.4108L86.4015 98.3089C90.5535 99.8597 95.2042 98.0017 97.1446 94.0169C101.306 85.4938 107.983 72.0389 107.104 67.0286C105.798 59.6286 102.316 57.0169 102.316 57.0169L103.765 48.3371C104.31 45.068 105.01 41.6553 104.201 38.3689C103.274 34.6036 100.427 32.993 98.0848 30.1766C91.921 38.1164 81.7874 42.6043 72.9379 47.1531C68.3716 49.5559 55.574 56.599 55.574 56.599Z" fill="#F2A196"/>
<path d="M88.0164 54.4835C87.9815 54.6315 93.8319 70.2063 93.8319 70.2063L86.0227 70.5894" stroke="#00214E"/>
<path d="M69.5251 51.4669C73.555 50.6349 77.6998 50.5185 81.77 51.1231" stroke="#00214E"/>
<path d="M95.2292 51.5148C97.7176 50.9398 100.281 50.7621 102.825 50.9881" stroke="#00214E"/>
<path d="M78.022 74.9423C78.1423 74.7519 78.3365 74.6203 78.5578 74.579C78.7792 74.5377 79.0077 74.5905 79.1886 74.7246C80.094 75.3601 81.7481 76.7096 84.0987 77.1753C87.3025 77.8152 90.0796 76.5311 90.7456 77.3581C91.12 77.8239 90.6629 78.3941 89.788 79.1211C87.9368 80.5072 85.6041 81.0865 83.3195 80.7273C80.2376 80.1484 77.9219 76.579 77.9219 75.3123C77.9218 75.1822 77.9563 75.0545 78.022 74.9423Z" fill="white"/>
<path d="M76.6422 55.7764C79.3019 55.7764 79.3019 59.8594 76.6422 59.8812H76.5247C73.8694 59.8812 73.8694 55.7981 76.5247 55.7764H76.6422Z" fill="#00214E"/>
<path d="M98.4809 55.1713C100.945 55.193 100.945 58.9583 98.4809 58.9801H98.3721C95.904 58.9801 95.904 55.193 98.3721 55.1713H98.4809Z" fill="#00214E"/>
<path d="M98.4069 22.1629C89.2541 22.3371 80.153 23.5789 71.2881 25.8629C62.3853 28.0337 53.7662 31.2359 45.6057 35.4045C47.5471 26.4244 56.4402 18.1364 68.5631 15.0937C80.6861 12.051 92.4347 15.1677 98.4069 22.1629Z" fill="#845161"/>
<defs>
<linearGradient id="paint0_linear_95_9744" x1="24.8118" y1="133.88" x2="123.397" y2="133.88" gradientUnits="userSpaceOnUse">
<stop stop-color="#16243F"/>
<stop offset="1" stop-color="#6878B1"/>
</linearGradient>
</defs>
</svg>
