<svg width="148" height="148" viewBox="0 0 148 148" fill="none" xmlns="http://www.w3.org/2000/svg">
<g clip-path="url(#clip0_95_9742)">
<rect width="148" height="148" rx="74" fill="white"/>
<circle cx="74" cy="74" r="74" fill="#FFF0DE"/>
<path d="M39.2496 57.7057C36.9112 81.6669 33.2408 90.4285 31.2576 93.5365C30.7544 94.3061 31.2428 95.3421 32.1456 95.4605L72.6828 100.774L75.1396 18.1601C75.1396 18.1601 43.5564 13.3797 39.2496 57.7057Z" fill="#441D39"/>
<path d="M120.428 93.5366C118.43 90.4286 114.759 81.667 112.436 57.7058C108.129 13.3798 75.6577 18.1306 75.6577 18.1306L79.0173 100.759L119.555 95.4458C120.472 95.3274 120.946 94.3062 120.443 93.5218L120.428 93.5366Z" fill="#441D39"/>
<path d="M61.302 95.4889L59.304 112.272L90.2064 111.384L88.1344 95.4889H61.302Z" fill="#FFC7A4"/>
<path d="M60.1467 105.168C60.1467 105.168 80.9407 107.077 88.2667 97.9602V87.4818L61.9079 90.0126L60.1467 105.168Z" fill="#F2B594"/>
<path d="M111.164 61.5225C110.808 57.7633 107.745 57.2009 106.25 57.1565C104.785 37.4725 90.9172 18.1733 75.1552 18.1733C59.3932 18.1733 47.3164 37.4725 45.8512 57.1565C44.5636 57.1417 40.982 57.4525 40.5972 61.5373C40.1236 66.5249 41.796 70.3581 44.904 72.0157C44.904 72.0157 45.57 72.3413 47.0944 72.6077V72.5041C50.9424 88.2809 62.4568 99.7213 76.058 99.7213C89.6592 99.7213 101.159 88.2957 105.022 72.5337C106.294 72.2821 106.872 72.0157 106.872 72.0157C109.98 70.3581 111.652 66.5249 111.178 61.5373L111.164 61.5225Z" fill="#FFC7A4"/>
<path d="M55.2332 53.1033C60.2356 52.2005 64.6608 52.9109 66.9104 53.3401C67.5912 53.4733 68.272 53.1477 68.4792 52.5853C68.716 51.9489 68.272 51.2977 67.5024 51.1497C64.942 50.6613 60.3392 49.9213 55.5144 51.6085C54.7744 51.8749 53.4572 52.6001 53.8568 53.1773C54.0788 53.3845 54.5672 53.2069 55.2332 53.0885V53.1033Z" fill="#441D39"/>
<path d="M97.1321 53.1033C92.1297 52.2005 87.7045 52.9109 85.4549 53.3401C84.7741 53.4733 84.0932 53.1477 83.886 52.5853C83.6492 51.9489 84.0933 51.2977 84.8629 51.1497C87.4233 50.6613 92.026 49.9213 96.8508 51.6085C97.5908 51.8749 98.9081 52.6001 98.5085 53.1773C98.2865 53.3845 97.7981 53.2069 97.1321 53.0885V53.1033Z" fill="#441D39"/>
<path d="M90.3841 63.3578C91.3731 63.3578 92.1749 61.9663 92.1749 60.2498C92.1749 58.5333 91.3731 57.1418 90.3841 57.1418C89.395 57.1418 88.5933 58.5333 88.5933 60.2498C88.5933 61.9663 89.395 63.3578 90.3841 63.3578Z" fill="#441D39"/>
<path d="M63.5215 63.3578C64.5105 63.3578 65.3123 61.9663 65.3123 60.2498C65.3123 58.5333 64.5105 57.1418 63.5215 57.1418C62.5325 57.1418 61.7307 58.5333 61.7307 60.2498C61.7307 61.9663 62.5325 63.3578 63.5215 63.3578Z" fill="#441D39"/>
<path d="M78.1435 74.8576H75.3167C73.8219 74.8576 72.6083 74.3988 72.1347 73.644C71.8683 73.2296 71.8387 72.756 72.0459 72.312C72.6971 70.9356 73.2299 69.6036 73.2299 69.6036C73.3779 69.2188 73.8219 69.0412 74.1919 69.204C74.5767 69.352 74.7543 69.796 74.5915 70.166C74.5915 70.166 74.0439 71.5276 73.3779 72.9484C73.4519 72.9928 74.0587 73.3776 75.3167 73.3776H78.1435C78.5579 73.3776 78.8835 73.7032 78.8835 74.1176C78.8835 74.532 78.5579 74.8576 78.1435 74.8576Z" fill="#EDA07E"/>
<path d="M75.436 84.1675C71.9876 84.1675 69.368 83.6939 69.1756 83.6495C68.776 83.5755 68.5096 83.1907 68.5836 82.7911C68.6576 82.3915 69.0572 82.1251 69.442 82.1991C69.5308 82.1991 77.7744 83.7235 84.2272 81.3111C84.612 81.1631 85.0412 81.3555 85.1744 81.7403C85.3224 82.1251 85.13 82.5543 84.7452 82.6875C81.652 83.8419 78.2628 84.1675 75.4212 84.1675H75.436Z" fill="#EDA07E"/>
<path d="M91.8637 68.8638C94.7163 68.8638 97.0289 68.3338 97.0289 67.6798C97.0289 67.0259 94.7163 66.4958 91.8637 66.4958C89.011 66.4958 86.6985 67.0259 86.6985 67.6798C86.6985 68.3338 89.011 68.8638 91.8637 68.8638Z" fill="#EAA281"/>
<path d="M61.7304 68.8638C64.583 68.8638 66.8956 68.3338 66.8956 67.6798C66.8956 67.0259 64.583 66.4958 61.7304 66.4958C58.8777 66.4958 56.5652 67.0259 56.5652 67.6798C56.5652 68.3338 58.8777 68.8638 61.7304 68.8638Z" fill="#EAA281"/>
<path d="M47.0491 47.6991L45.5691 47.6103C47.0195 22.9535 70.0039 19.4459 70.2407 19.4163L70.4479 20.8815C70.4479 20.8815 64.8535 21.7103 59.2295 25.4251C51.7259 30.3831 47.6411 37.8719 47.0491 47.6991Z" fill="#30132B"/>
<path d="M75.6577 18.1444V30.976C75.6577 30.976 97.4877 27.7644 106.397 57.1572C106.397 57.1572 112.451 17.6116 75.6577 18.1592V18.1444Z" fill="#441D39"/>
<path d="M75.1396 18.1583V30.9899C75.1396 30.9899 54.612 28.3111 45.7024 57.7039C45.7024 57.7039 38.3468 17.6255 75.1396 18.1583Z" fill="#441D39"/>
<path d="M132.889 129.945C122.87 126.57 100.61 115.382 92.796 111.386C92.796 111.341 92.7959 111.297 92.7663 111.252L91.0496 105.732C90.8128 104.962 90.1023 104.43 89.2883 104.43H59.6143C58.7263 104.43 57.9715 105.051 57.8087 105.924L55.6479 111.178C55.5887 111.46 55.6035 111.726 55.6627 111.978C47.0195 116.373 26.2699 126.733 16.6943 129.96C4.43994 134.089 4.43994 155.016 4.43994 155.016H145.158C145.158 155.016 145.158 134.089 132.904 129.96L132.889 129.945Z" fill="#4598C4"/>
<path d="M46.1911 78.3805C45.7619 78.3805 45.5695 78.3805 45.4955 77.5813H45.4659C45.4659 77.5813 45.4659 77.4037 45.4659 77.1965C45.4363 76.5157 45.4363 75.4649 45.4363 73.7925C45.4363 72.1201 45.4363 71.0693 45.4659 70.3885C45.4659 70.1813 45.4659 70.0481 45.4659 70.0037H45.4955C45.5843 69.2045 45.7619 69.2045 46.1911 69.2045C46.6203 69.2045 46.8127 69.2045 46.8867 70.0037H46.9163C46.9163 70.0037 46.9163 70.1813 46.9163 70.3885C46.9459 71.0693 46.9459 72.1201 46.9459 73.7925C46.9459 75.4649 46.9459 76.5157 46.9163 77.1965C46.9163 77.4037 46.9163 77.5369 46.9163 77.5813H46.8867C46.7979 78.3805 46.6203 78.3805 46.1911 78.3805Z" fill="#FFA33A"/>
<path d="M106.9 78.3805C106.471 78.3805 106.278 78.3805 106.204 77.5813H106.175C106.175 77.5813 106.175 77.4037 106.175 77.1965C106.145 76.5157 106.145 75.4649 106.145 73.7925C106.145 72.1201 106.145 71.0693 106.175 70.3885C106.175 70.1813 106.175 70.0481 106.175 70.0037H106.204C106.293 69.2045 106.471 69.2045 106.9 69.2045C107.329 69.2045 107.521 69.2045 107.595 70.0037H107.625C107.625 70.0037 107.625 70.1813 107.625 70.3885C107.655 71.0693 107.655 72.1201 107.655 73.7925C107.655 75.4649 107.655 76.5157 107.625 77.1965C107.625 77.4037 107.625 77.5369 107.625 77.5813H107.595C107.507 78.3805 107.329 78.3805 106.9 78.3805Z" fill="#FFA33A"/>
<path d="M61.6279 115.634C61.6279 115.634 61.5391 115.634 61.5095 115.634C61.1099 115.56 60.8287 115.19 60.9027 114.775L62.0275 108.204C62.1015 107.804 62.4863 107.538 62.8859 107.597C63.2855 107.671 63.5667 108.041 63.4927 108.456L62.3679 115.027C62.3087 115.382 61.9979 115.648 61.6427 115.648L61.6279 115.634Z" fill="#2579AD"/>
<path d="M86.6988 115.631C86.3436 115.631 86.0328 115.379 85.9736 115.009L84.8488 108.438C84.7748 108.039 85.056 107.654 85.4556 107.58C85.8552 107.521 86.24 107.787 86.314 108.187L87.4388 114.758C87.5128 115.157 87.2316 115.542 86.832 115.616C86.7876 115.616 86.7432 115.616 86.7136 115.616L86.6988 115.631Z" fill="#2579AD"/>
<path d="M74.8137 116.255C74.3993 116.255 74.0737 115.93 74.0737 115.515V108.855C74.0737 108.441 74.3993 108.115 74.8137 108.115C75.2281 108.115 75.5537 108.441 75.5537 108.855V115.515C75.5537 115.93 75.2281 116.255 74.8137 116.255Z" fill="#2579AD"/>
</g>
<defs>
<clipPath id="clip0_95_9742">
<rect width="148" height="148" rx="74" fill="white"/>
</clipPath>
</defs>
</svg>
