<svg width="148" height="148" viewBox="0 0 148 148" fill="none" xmlns="http://www.w3.org/2000/svg">
<circle cx="74" cy="74" r="74" fill="#BDF7FF"/>
<path fill-rule="evenodd" clip-rule="evenodd" d="M100.417 39.2266C100.565 39.9439 100.716 40.676 100.875 41.4233C104.989 60.7025 106.547 95.3345 106.547 95.3345C106.547 95.3345 38.5105 95.7219 25.4778 94.416L25.5839 93.7916C27.442 82.8562 29.2999 71.9216 31.3717 61.0246C31.5462 60.0871 31.7209 59.1263 31.899 58.1476C32.9601 52.3145 34.1376 45.8414 36.0685 39.8214C37.5659 35.1464 39.5334 30.7412 42.2801 27.1196C44.2354 24.6606 46.6256 22.5817 49.3319 20.9863C52.9678 18.8142 56.8842 17.1504 60.9717 16.0413C63.8374 15.2352 66.7726 14.7004 69.7385 14.4438C74.7429 14.0869 79.7593 14.9457 84.36 16.9467C86.6337 17.92 88.788 19.1513 90.7806 20.6163C97.6184 25.6641 98.8475 31.6206 100.417 39.2266ZM61.2764 47.9571L68.5893 50.3207L84.9433 40.5832L83.3284 39.6865L61.2764 47.9571Z" fill="#00214E"/>
<path d="M123.397 117.378C94.2986 139.783 53.7113 139.604 24.8118 116.943L45.9932 107.014C46.6415 106.707 47.2736 106.367 47.8867 105.995L48.3742 105.69C48.5484 105.581 48.7181 105.468 48.8879 105.351C51.5602 103.507 53.7503 101.048 55.2736 98.1814C57.0148 94.8949 57.5894 91.2646 57.6155 87.5646C57.6155 85.0747 57.4806 82.5848 57.4545 80.0906C57.4371 78.7092 57.4225 77.3294 57.4109 75.9509L58.2815 76.3862L60.5451 77.5572L73.7214 79.7902L87.2678 82.0973L87.6769 96.0267L87.8815 102.935L92.8743 104.968L96.792 106.552L123.397 117.378Z" fill="#F2D4CF"/>
<path d="M87.5942 92.6793C86.4102 93.4106 85.2915 93.7545 84.3121 93.65C77.8741 92.9579 65.3159 87.9128 57.411 78.5758C57.411 78.1173 57.4022 77.6602 57.3848 77.2046C57.3674 75.8233 57.3529 74.4434 57.3413 73.0649L58.2119 73.5002L60.4754 74.6712L73.6605 76.9129L87.2068 79.22L87.5942 92.6793Z" fill="#DAAEA8"/>
<path d="M123.397 117.378C94.2986 139.783 53.7113 139.604 24.8118 116.943L45.9932 107.013C46.6415 106.707 47.2736 106.367 47.8867 105.995C58.1945 113.573 72.5418 118.51 84.9128 112.96C88.4213 111.384 91.5859 108.607 92.8743 104.989L96.792 106.574L123.397 117.378Z" fill="#F2A196"/>
<ellipse cx="45.7973" cy="61.4599" rx="7.4" ry="7.4" fill="#F2D4CF"/>
<ellipse cx="48.409" cy="60.5893" rx="7.4" ry="7.4" fill="#DAAEA8"/>
<path d="M96.0911 50.2554C101.201 67.9632 90.3452 89.3753 83.6678 89.3753C74.5267 89.3753 52.3267 82.0711 47.2207 64.3633C42.1147 46.6555 48.9052 29.1349 62.3994 25.2391C75.8935 21.3432 90.9764 32.5433 96.0911 50.2554Z" fill="#F2D4CF"/>
<path d="M82.7058 48.5056C85.7829 46.9433 89.3395 46.6117 92.6523 47.5784" stroke="#00214E"/>
<path d="M61.4287 49.5024C65.6699 47.3428 70.6523 47.1833 75.0229 49.0671" stroke="#00214E"/>
<ellipse cx="67.1828" cy="55.1662" rx="1.42341" ry="3.45624" transform="rotate(-85.77 67.1828 55.1662)" fill="#00214E"/>
<ellipse cx="89.5968" cy="54.4626" rx="3.45623" ry="1.42341" transform="rotate(-13.23 89.5968 54.4626)" fill="#00214E"/>
<path d="M83.0541 59.1094C83.0541 59.1094 83.1804 61.5688 83.7593 62.7223C84.0074 63.2229 84.3905 63.6408 84.6299 64.1327C85.5919 66.0218 84.0335 66.418 82.5361 66.418" stroke="#00214E"/>
<path d="M76.9949 63.41C76.3451 63.7426 76.0348 64.4992 76.264 65.1922C76.4932 65.8852 77.1934 66.3076 77.9133 66.1872" stroke="#00214E"/>
<path d="M69.1682 70.1615C69.2894 69.9709 69.4843 69.8393 69.7064 69.798C69.9284 69.7567 70.1576 69.8096 70.3392 69.9439C71.2402 70.5794 72.8944 71.9288 75.2449 72.3989C78.4487 73.0345 81.2302 71.7547 81.8919 72.5774C82.2662 73.0432 81.8092 73.6134 80.9342 74.3186C79.0866 75.7129 76.7533 76.3001 74.4658 75.9466C71.3795 75.3676 69.0681 71.7982 69.0681 70.5359C69.0681 70.4045 69.1026 70.2754 69.1682 70.1615Z" fill="white"/>
<path d="M92.9657 36.091L83.3283 39.6996L61.2763 47.9571H61.2719L44.8048 54.1252L44.5523 42.5594L44.2128 26.9498L54.4378 23.7634L70.7657 18.6792L92.9657 36.091Z" fill="#00214E"/>
<path d="M83.3284 39.6996L61.2764 47.9702L44.5568 42.5726L36.0729 39.8346C37.5703 35.1595 39.5552 30.7543 42.2845 27.1327C44.2411 24.6733 46.6328 22.5944 49.3406 20.9994C50.8642 21.8221 52.5923 22.7406 54.4423 23.7766C64.6499 29.344 78.6316 37.0922 83.3284 39.6996Z" fill="url(#paint0_linear_95_9753)"/>
<path d="M84.36 16.9468C79.9592 18.9448 69.7036 23.9594 63.9447 29.653C56.4663 37.053 45.5579 53.7422 45.5579 53.7422C45.9243 49.7646 46.551 45.8152 47.434 41.9196C48.8966 35.5208 51.3864 28.2862 53.6021 24.8169C55.2562 22.2312 58.1553 18.849 60.9716 16.0414C63.836 15.2355 66.7697 14.7007 69.7341 14.4438C74.7399 14.0862 79.7579 14.945 84.36 16.9468Z" fill="url(#paint1_linear_95_9753)"/>
<defs>
<linearGradient id="paint0_linear_95_9753" x1="79.8325" y1="58.0162" x2="84.1346" y2="26.69" gradientUnits="userSpaceOnUse">
<stop offset="0.29" stop-color="#00214E"/>
<stop offset="0.51" stop-color="#6878B1"/>
<stop offset="0.79" stop-color="#00214E"/>
</linearGradient>
<linearGradient id="paint1_linear_95_9753" x1="62.2898" y1="64.7022" x2="91.763" y2="29.8613" gradientUnits="userSpaceOnUse">
<stop stop-color="#FF2609"/>
<stop offset="0.17" stop-color="#FF8500"/>
<stop offset="0.36" stop-color="#FFED00"/>
<stop offset="0.55" stop-color="#00830D"/>
<stop offset="0.72" stop-color="#004AFF"/>
<stop offset="1" stop-color="#81008C"/>
</linearGradient>
</defs>
</svg>
