<svg width="148" height="148" viewBox="0 0 148 148" fill="none" xmlns="http://www.w3.org/2000/svg">
<g clip-path="url(#clip0_95_9740)">
<rect width="148" height="148" rx="74" fill="white"/>
<circle cx="74" cy="74" r="74" fill="#F8DEFF"/>
<path d="M59.5705 19.8326C59.5705 19.8326 41.7069 23.6954 43.0093 47.1534C44.3117 70.6114 40.1233 77.227 40.1233 77.227L44.7113 75.9542L59.5557 86.1218L99.5749 78.115L105.85 79.9798L107.789 75.599C107.789 75.599 109.994 77.967 112.185 78.1002C112.185 78.1002 110.142 67.5626 110.527 62.8562C111.341 52.9994 106.605 38.6582 106.605 38.6582L59.5409 19.8326H59.5705Z" fill="#441D39"/>
<path d="M132.89 129.945C122.796 126.556 100.285 115.219 92.6338 111.312C92.0418 111.016 91.5534 110.749 91.1538 110.557C90.4434 110.187 90.029 109.98 90.029 109.98H59.5854C59.5854 109.98 59.1858 110.187 58.4606 110.557C58.061 110.764 57.5578 111.016 56.9806 111.312C55.8558 111.889 54.4202 112.614 52.7478 113.458C42.9946 118.371 25.3382 127.059 16.7246 129.945C4.47021 134.074 4.47021 155.001 4.47021 155.001H145.144C145.144 155.001 145.144 134.074 132.89 129.945V129.945Z" fill="#FDEBD9"/>
<path d="M88.119 95.4889H61.3014L59.5698 109.963C59.5698 112.805 66.3926 115.114 74.799 115.114C83.2054 115.114 90.0282 112.805 90.0282 109.963L88.1338 95.4889H88.119Z" fill="#C1735C"/>
<path d="M49.5943 45.2872C49.5943 45.2872 50.5711 37.3248 57.3199 35.8448C57.3199 35.8448 104.783 35.8448 95.2671 35.8448C95.2671 35.8448 101.439 35.8448 102.726 44.7248C102.919 46.0568 104.887 59.7172 104.769 65.0896C104.695 68.538 106.041 66.7176 106.041 66.7176C106.041 66.7176 107.492 61.212 107.729 53.9896C108.173 40.2256 106.382 16.5604 77.3591 16.5604C48.3363 16.5604 45.6575 33.98 45.6575 56.4464L46.7231 67.502C46.7675 67.946 47.1375 68.2716 47.5815 68.2716C48.4251 68.2716 49.5795 45.2872 49.5795 45.2872H49.5943Z" fill="#C1735C"/>
<path d="M101.72 42.4158C102.284 42.4158 102.742 41.9586 102.742 41.3946C102.742 40.8306 102.284 40.3734 101.72 40.3734C101.156 40.3734 100.699 40.8306 100.699 41.3946C100.699 41.9586 101.156 42.4158 101.72 42.4158Z" fill="#FF9988"/>
<path d="M60.1467 105.168C60.1467 105.168 80.9407 107.077 88.2667 97.9603V87.4819L61.9079 90.0127L60.1467 105.168V105.168Z" fill="#A5503C"/>
<path fill-rule="evenodd" clip-rule="evenodd" d="M76.9863 99.6926C91.0603 99.6926 102.897 87.4667 106.334 70.8813C106.974 70.7077 107.266 70.5652 107.266 70.5652C110.374 68.9101 112.046 65.0828 111.573 60.1028C111.246 56.666 108.65 55.9036 107.072 55.7612C105.086 36.8138 92.3734 22.2 76.9863 22.2C61.2818 22.2 48.3628 37.4229 46.7919 56.9391C46.0466 56.9257 41.614 57.0394 41.4513 61.6271C41.2737 66.6366 43.1829 70.3458 46.3797 71.8087C46.3797 71.8087 46.86 72.0068 47.9258 72.1753C51.6971 88.0987 63.281 99.6926 76.9863 99.6926Z" fill="#C1735C"/>
<path d="M90.3682 63.9938C91.3572 63.9938 92.159 62.6023 92.159 60.8858C92.159 59.1693 91.3572 57.7778 90.3682 57.7778C89.3792 57.7778 88.5774 59.1693 88.5774 60.8858C88.5774 62.6023 89.3792 63.9938 90.3682 63.9938Z" fill="#441D39"/>
<path d="M63.5071 63.3578C64.4961 63.3578 65.2979 61.9663 65.2979 60.2498C65.2979 58.5333 64.4961 57.1418 63.5071 57.1418C62.5181 57.1418 61.7163 58.5333 61.7163 60.2498C61.7163 61.9663 62.5181 63.3578 63.5071 63.3578Z" fill="#441D39"/>
<path d="M78.1294 74.8574H75.3026C74.0446 74.8574 72.9346 74.369 72.3426 73.5698C71.9134 72.9926 71.795 72.3118 72.0022 71.6458C72.6386 69.5738 73.5118 63.9498 73.5266 63.8906C73.5858 63.491 73.9706 63.2246 74.3702 63.269C74.7698 63.3282 75.051 63.713 74.9918 64.1126C74.9622 64.3494 74.089 69.9142 73.423 72.075C73.3638 72.2822 73.3934 72.4894 73.5414 72.6966C73.8522 73.1258 74.5478 73.3922 75.3174 73.3922H78.1442C78.5586 73.3922 78.8842 73.7178 78.8842 74.1322C78.8842 74.5466 78.5586 74.8722 78.1442 74.8722L78.1294 74.8574Z" fill="#A5503C"/>
<path d="M91.9518 68.864C94.8045 68.864 97.117 68.3339 97.117 67.68C97.117 67.0261 94.8045 66.496 91.9518 66.496C89.0992 66.496 86.7866 67.0261 86.7866 67.68C86.7866 68.3339 89.0992 68.864 91.9518 68.864Z" fill="#AF5D4E"/>
<path d="M61.8056 68.864C64.6582 68.864 66.9708 68.3339 66.9708 67.68C66.9708 67.0261 64.6582 66.496 61.8056 66.496C58.9529 66.496 56.6404 67.0261 56.6404 67.68C56.6404 68.3339 58.9529 68.864 61.8056 68.864Z" fill="#AF5D4E"/>
<path d="M96.7333 53.3247C91.7309 52.1851 88.0161 53.3247 85.7517 53.7687C84.7897 53.9611 84.4937 52.7623 84.4937 52.7623C84.2569 51.9632 85.3077 51.3268 86.0773 51.1492C88.6377 50.5128 91.9233 50.0687 96.9257 51.4747C97.8877 51.7411 97.9913 52.5403 97.9913 52.5403C97.9321 53.4283 97.3845 53.4875 96.7333 53.3247V53.3247Z" fill="#441D39"/>
<path d="M56.8324 53.116C61.8792 52.1688 65.5496 53.4712 67.7992 53.9892C68.7612 54.2112 69.0868 53.042 69.0868 53.042C69.3532 52.2576 68.332 51.5768 67.5772 51.3548C65.0464 50.6296 61.7756 50.0524 56.714 51.2512C55.7372 51.488 55.604 52.2724 55.604 52.2724C55.6188 53.1604 56.1664 53.2344 56.8324 53.116V53.116Z" fill="#441D39"/>
<path d="M75.8801 86.1055C72.3725 86.1055 69.6049 85.3655 69.4125 85.3211C69.0129 85.2175 68.7909 84.8031 68.8945 84.4183C68.9981 84.0187 69.4125 83.7967 69.7973 83.9003C69.8713 83.9151 76.6793 85.7207 82.1701 83.5747C82.5549 83.4267 82.9841 83.6191 83.1321 83.9891C83.2801 84.3739 83.0877 84.8031 82.7177 84.9511C80.4533 85.8391 78.0261 86.1203 75.8801 86.1203V86.1055Z" fill="#A5503C"/>
<path d="M97.8728 19.0783C77.5672 3.02028 59.5704 19.8331 59.5704 19.8331C41.766 23.0891 44.2968 49.3739 44.726 52.1859C45.1552 54.9831 45.7028 56.9219 45.7028 56.9219C46.0876 56.9367 46.4428 56.9219 46.7832 56.8479L48.2928 67.6815C48.3964 68.0663 48.9736 68.0959 49.1068 67.6815C49.24 67.5335 49.6544 61.1991 50.054 54.5835C53.4284 49.5959 53.2804 37.9187 59.5704 32.6943C62.6488 30.1339 66.9704 32.1467 66.9704 32.1467C66.9704 32.1467 70.1968 26.4487 77.878 29.7639C84.7896 32.7387 93.2848 51.4903 102.653 55.9451C103.023 62.0427 103.393 67.5483 103.512 67.6963C103.645 68.1107 104.222 68.0811 104.326 67.6963L105.835 56.8775L110.127 54.6427C110.127 54.6427 112.066 27.9435 97.8432 19.0931L97.8728 19.0783Z" fill="#441D39"/>
<path d="M132.889 129.945C127.561 128.155 118.77 124.144 110.526 120.192L87.5271 128.347V150.355H86.0471V128.865L81.2815 130.552V154.987H145.143C145.143 154.987 145.143 134.06 132.889 129.931V129.945Z" fill="#4598C4"/>
<path d="M99.5151 111.593C92.2335 109.092 81.2815 130.552 81.2815 130.552L86.0471 128.865V150.354H87.5271V128.347L110.526 120.192L110.615 120.162C110.615 120.162 106.811 114.094 99.5299 111.593H99.5151Z" fill="#2B7FA5"/>
<path d="M63.9507 128.966L60.5319 149.76L59.0667 149.524L62.5299 128.463L39.1163 120.16C30.8579 124.127 22.0371 128.152 16.6943 129.943C4.43994 134.072 4.43994 155 4.43994 155H68.1243L68.4499 130.565L63.9507 128.966V128.966Z" fill="#4598C4"/>
<path d="M50.217 111.593C42.9502 114.079 39.1466 120.132 39.1318 120.162L62.5454 128.465L59.0822 149.525L60.5474 149.762L63.9662 128.968L68.4654 130.566C68.4654 130.566 57.4986 109.106 50.2318 111.607L50.217 111.593Z" fill="#2B7FA5"/>
</g>
<defs>
<clipPath id="clip0_95_9740">
<rect width="148" height="148" rx="74" fill="white"/>
</clipPath>
</defs>
</svg>
