<svg width="148" height="148" viewBox="0 0 148 148" fill="none" xmlns="http://www.w3.org/2000/svg">
<circle cx="74" cy="74" r="74" fill="#BCF3FF"/>
<path d="M112.001 115.023C111.13 86.2453 109.92 56.0881 95.3815 31.2371C91.8121 25.143 86.1794 18.853 79.1494 19.5103C70.9311 20.2764 66.848 29.6266 64.4539 37.5228C60.8932 49.2278 57.3238 60.9416 54.342 72.8121C52.1873 81.4004 46.2281 96.1308 49.4841 105.024C55.2822 120.838 98.3633 115.501 112.001 115.023Z" fill="#DAAEA8"/>
<ellipse cx="49.8585" cy="64.7199" rx="7.4" ry="7.4" fill="#F2A196"/>
<circle cx="52.3963" cy="64.2193" r="6.96471" fill="#E88870"/>
<path d="M123.397 117.399C94.2986 139.804 53.7113 139.625 24.8118 116.964L45.9932 107.035C47.0019 106.561 47.9701 106.005 48.8879 105.372L49.3711 105.033L49.7106 104.771C52.0159 103.007 53.9134 100.767 55.2736 98.2028C57.0148 94.9163 57.5894 91.2859 57.6155 87.5859C57.6155 86.3366 57.5894 85.0873 57.5502 83.8381C57.5111 82.5888 57.4675 81.3569 57.4545 80.1119C57.4371 78.7335 57.4225 77.3536 57.4109 75.9723L58.2119 76.3858L58.2728 76.4163L60.5364 77.5872L61.5854 77.7657L73.7214 79.8072L78.5314 80.6256L87.2678 82.1143L87.6769 96.0437L87.8467 101.833L87.8772 102.808V102.952L93.1442 105.093L93.4707 105.228L123.397 117.399Z" fill="#F2A196"/>
<path d="M57.5503 82.8542L71.8541 96.27C76.2592 100.142 82.0027 102.14 87.8599 101.837L87.6901 96.048L87.2809 82.1186L78.5446 80.6299C77.3519 81.1697 76.1592 81.7094 74.9665 82.1795C71.3971 83.5855 67.3619 83.0501 63.9013 81.5875C61.3228 80.4444 59.0905 78.6429 57.4285 76.364L57.5503 82.8542Z" fill="#E88870"/>
<path d="M123.397 117.399C94.2986 139.804 53.7113 139.625 24.8118 116.964L45.9932 107.035C47.0019 106.561 47.9701 106.005 48.8879 105.372L49.3711 105.033C59.9748 112.263 74.1045 116.638 86.3711 111.127C89.2495 109.883 91.7127 107.842 93.4707 105.246L123.397 117.399Z" fill="#F2D4CF"/>
<path d="M102.011 67.0793C101.903 70.2617 101.466 73.4243 100.705 76.5164C99.0164 83.9164 96.0955 91.286 94.6112 94.0501C93.5012 96.1134 91.8993 96.5443 89.3615 97.2147C82.9895 98.8429 76.224 97.5904 70.8572 93.7889L54.7121 82.5017C54.4379 80.3253 54.0026 78.0574 53.5281 75.7416C52.1482 69.0076 50.3984 61.8818 50.9164 55.544C51.0917 53.7392 51.9235 52.0617 53.2539 50.8297C56.8102 47.2821 63.5921 45.5409 67.7797 44.3526C74.1001 42.5548 80.6121 41.4361 86.8325 39.3249C91.4161 37.7753 96.3437 35.4638 99.0207 31.2328C99.0207 31.2328 99.6214 35.9253 99.7564 36.9961C100.044 39.2074 100.087 41.127 100.383 43.3078C100.677 45.6963 100.589 48.1164 100.122 50.4771C99.8042 52.1095 99.4168 53.7375 99.1557 55.3829C98.9032 56.9587 99.3167 56.9717 100.148 58.06C101.889 60.3017 102.042 64.3935 102.011 67.0793Z" fill="#F2A196"/>
<path d="M72.5897 55.4961C75.245 55.4482 75.3451 59.5051 72.6942 59.5965H72.5723C69.917 59.6401 69.8125 55.5831 72.4678 55.4917H72.5897V55.4961Z" fill="#00214E"/>
<path d="M94.3848 54.3382C96.8486 54.2947 96.9443 58.06 94.4806 58.1427H94.3717C91.908 58.1819 91.8122 54.4166 94.276 54.3339H94.3848V54.3382Z" fill="#00214E"/>
<path d="M86.4842 56.8933C86.4842 56.9804 88.6606 60.5628 89.862 64.4674C90.4263 66.554 90.7189 68.7047 90.7326 70.8663L84.8518 71.0186" stroke="#00214E"/>
<path d="M100.723 76.5164C99.0338 83.9164 96.113 91.286 94.6287 94.0501C93.5187 96.1134 91.9168 96.5443 89.379 97.2147C83.007 98.8429 76.2414 97.5904 70.8747 93.7889L54.7296 82.5017C54.4075 79.9509 53.4237 77.5176 52.8187 75.0103C52.5531 73.8698 52.3137 72.6858 52.5749 71.528C52.6643 72.1313 52.938 72.6923 53.3584 73.1342C55.4827 75.8765 57.9638 78.9671 61.4157 80.0292C65.0112 81.1349 69.0812 81.222 72.4809 79.446C75.4409 77.9007 78.3312 75.907 81.4305 74.6142C83.4845 73.7042 85.7139 73.2583 87.9599 73.3083C91.1594 73.4476 92.5654 74.8536 94.9508 76.6949C95.7299 77.3 96.6049 77.9311 97.5974 77.9137C98.7291 77.905 99.7999 77.2608 100.723 76.5164Z" fill="#00214E"/>
<path d="M80.512 79.3719C83.5291 80.2271 86.7542 79.9579 89.5878 78.6145" stroke="#F2A196"/>
<path d="M65.9426 52.1965C69.9497 51.2608 74.0902 51.0383 78.1744 51.5392" stroke="#00214E"/>
<path d="M91.6382 51.5915C94.1116 50.951 96.6713 50.7086 99.221 50.8733" stroke="#00214E"/>
<path d="M79.8633 68.9597C79.2157 69.3062 78.9202 70.0752 79.1691 70.7662C79.418 71.4572 80.136 71.8612 80.8558 71.7151" stroke="#00214E"/>
<path d="M53.1189 75.7764L53.5542 75.7416L53.8502 76.0724L54.9384 82.062L54.7295 82.1448L54.4074 81.7225L53.1189 75.7764Z" fill="#00214E"/>
<path d="M63.7749 67.2925C61.446 77.3304 55.8003 118.605 55.5043 128.878C55.587 125.831 31.7459 121.43 29.7087 118.431C29.7087 118.431 44.6524 45.789 45.079 39.1029C45.1138 38.5544 46.3849 33.2264 47.1292 31.864C59.6962 9.34184 89.9186 7.20019 104.392 27.2629C104.684 27.6677 105.376 30.6495 105.65 31.063C106.455 32.2731 107.047 33.4832 107.744 34.689C112.019 42.089 112.358 52.6449 112.706 61.1288C113.142 71.7543 118.774 116.611 118.774 116.611C118.774 116.611 103.922 120.964 103.8 120.99C103.8 120.99 104.357 68.0674 103.905 62.6044C103.469 57.3809 102.412 50.6121 99.6562 46.0632C97.4797 42.4851 80.5598 43.186 75.9283 44.679C69.6035 46.7162 67.144 52.1835 65.6771 58.8652C65.059 61.686 64.4249 64.4951 63.7749 67.2925Z" fill="#F2D4CF"/>
<path d="M45.9236 30.7974C56.9255 33.7172 68.3365 34.7867 79.6893 33.962C88.7264 33.3916 97.6458 31.6083 106.207 28.6602" stroke="#00214E" stroke-width="3" stroke-linecap="round"/>
<path d="M44.4741 34.9719C56.2077 38.098 68.3752 39.2745 80.4904 38.4543C89.921 37.8655 99.229 36.0059 108.162 32.926" stroke="#00214E" stroke-width="3" stroke-linecap="round"/>
</svg>
