<svg width="148" height="148" viewBox="0 0 148 148" fill="none" xmlns="http://www.w3.org/2000/svg">
<circle cx="74" cy="74" r="74" fill="#FFE790"/>
<path d="M90.2016 104.155C87.7348 106.923 85.0059 109.445 82.0529 111.686C76.7814 115.66 72.8769 115.203 66.7523 114.672C59.6352 114.058 52.5747 112.931 45.4794 112.095C44.5784 111.991 43.612 111.856 42.9504 111.224C42.4207 110.635 42.0651 109.91 41.9231 109.131C37.7369 93.923 35.212 78.3063 34.3925 62.5542C33.609 47.493 41.3572 32.7453 55.9787 27.217C71.1487 21.4712 90.8937 25.2887 99.8869 39.6578C112.506 59.8423 105.537 87.0221 90.2016 104.155Z" fill="url(#paint0_linear_95_9748)"/>
<path d="M123.397 117.027C94.2986 139.432 53.7113 139.253 24.8118 116.592L45.9932 106.663C46.6415 106.356 47.2736 106.016 47.8867 105.644L48.3742 105.339C48.5484 105.23 48.7181 105.117 48.8879 105C51.5602 103.156 53.7503 100.697 55.2736 97.8304C57.0148 94.544 57.5894 90.9136 57.6155 87.2136C57.6155 84.7237 57.4806 82.2339 57.4545 79.7396C57.4371 78.3612 57.4225 76.9813 57.4109 75.6L58.2815 76.0353L60.5451 77.2062L73.7301 79.448L87.2765 81.755L87.6856 95.6844L87.8902 102.593L92.8831 104.625L96.8007 106.21L123.397 117.027Z" fill="#00214E"/>
<path d="M87.6771 95.6757C83.298 96.4532 78.7929 96.1012 74.5878 94.6527C65.1941 91.4968 58.8693 83.8836 58.2729 76.0396L60.5365 77.2105L73.7215 79.4523L87.2679 81.7593L87.6771 95.6757Z" fill="#F2A196"/>
<circle cx="46.5287" cy="61.6662" r="7.4" fill="#F2A196"/>
<ellipse cx="49.1402" cy="60.7956" rx="7.4" ry="7.4" fill="#E88870"/>
<path d="M96.8225 50.4573C101.933 68.1651 91.0766 89.5772 84.3992 89.5772C75.258 89.5772 53.058 82.273 47.952 64.5652C42.846 46.8574 49.654 29.3455 63.1482 25.4497C76.6423 21.5538 91.7078 32.7539 96.8225 50.4573Z" fill="#F2A196"/>
<path d="M71.7583 70.938C73.8493 73.2743 76.7167 74.773 79.8287 75.156" stroke="#00214E"/>
<path d="M98.999 39.9014C97.1838 35.4962 92.3129 33.3198 87.8337 31.6874C85.4135 30.8168 82.9323 29.9462 80.3554 29.8896C77.9715 29.8955 75.6127 30.3764 73.4168 31.3044C69.5557 32.8192 65.5815 35.0827 62.6171 37.9948C61.1763 39.4095 59.8661 40.8939 58.3774 42.3086C57.559 43.0921 56.7711 43.9105 56.0224 44.7593C55.4522 45.4079 54.7644 46.7616 54.0505 47.1969C67.3401 39.1396 83.8377 36.1579 98.999 39.9014Z" fill="#FF2609"/>
<path d="M80.7339 51.2888C80.7339 51.3759 82.8189 55.0149 83.9202 58.9456C84.4292 61.0468 84.6648 63.2048 84.6211 65.3662H78.7402" stroke="#00214E"/>
<path d="M86.136 47.5844C89.2101 46.0134 92.7684 45.677 96.0825 46.6441" stroke="#00214E"/>
<path d="M60.3928 49.3169C64.6339 47.1567 69.6165 46.9972 73.9871 48.8816" stroke="#00214E"/>
<path d="M68.0277 53.1736C70.683 53.1736 70.683 57.2523 68.0277 57.2741H67.9058C65.2505 57.2741 65.2505 53.1953 67.9058 53.1736H68.0277Z" fill="#00214E"/>
<path d="M89.8448 52.5685C92.3129 52.5685 92.3129 56.3555 89.8448 56.373H89.736C87.2722 56.373 87.2722 52.5859 89.736 52.5685H89.8448Z" fill="#00214E"/>
<path fill-rule="evenodd" clip-rule="evenodd" d="M84.7299 15.7339C98.4983 19.8605 105.898 31.7702 108.51 45.0336C110.282 54.2194 109.952 63.6871 107.544 72.727C105.054 81.8246 101.001 90.3999 96.7179 98.8011C96.6517 98.9309 96.5859 99.0601 96.5204 99.1887C93.8306 104.469 91.6149 108.818 85.6658 111.159C75.2057 115.286 62.4559 112.939 53.9285 105.583C38.9022 92.6156 31.8069 65.8885 34.7538 46.6224C38.0272 25.1537 64.11 9.53971 84.7299 15.7339ZM68.7633 86.4301C73.2208 88.8416 80.612 91.0572 85.6092 89.0418C85.9033 88.9074 86.1832 88.7441 86.445 88.5543C87.1653 88.061 87.8179 87.4757 88.3864 86.8131C92.1125 82.6778 94.4065 77.4717 95.7864 72.0131C96.7398 68.1245 97.3228 64.1543 97.5276 60.1557C97.9237 53.2302 95.9475 46.7182 92.5173 40.7198C89.5138 35.4615 83.1063 30.2205 76.7162 31.8442C72.7985 32.8497 69.5033 35.3962 66.7044 38.2735C65.1263 39.8964 63.7497 41.6712 62.3756 43.4426C60.418 45.9662 58.4658 48.483 55.9439 50.5444C54.7679 51.5442 53.4915 52.4194 52.1351 53.1562C51.9262 53.2607 49.1664 54.6275 49.1359 54.4882C49.427 55.9774 49.7946 57.4507 50.2372 58.9021C53.1363 68.9661 57.8723 79.3783 66.9177 85.3244C67.5155 85.7162 68.1307 86.0847 68.7633 86.4301Z" fill="url(#paint1_linear_95_9748)"/>
<defs>
<linearGradient id="paint0_linear_95_9748" x1="34.3359" y1="115.029" x2="106.425" y2="115.029" gradientUnits="userSpaceOnUse">
<stop stop-color="#16243F"/>
<stop offset="1" stop-color="#6878B1"/>
</linearGradient>
<linearGradient id="paint1_linear_95_9748" x1="34.1009" y1="113.181" x2="109.633" y2="113.181" gradientUnits="userSpaceOnUse">
<stop stop-color="#16243F"/>
<stop offset="1" stop-color="#6878B1"/>
</linearGradient>
</defs>
</svg>
