<svg width="148" height="148" viewBox="0 0 148 148" fill="none" xmlns="http://www.w3.org/2000/svg">
<circle cx="74" cy="74" r="74" fill="#D1FFC6"/>
<path d="M123.397 117.102C94.2986 139.508 53.7113 139.328 24.8118 116.667L45.9932 106.738C47.0019 106.264 47.9701 105.708 48.8879 105.075C49.1665 104.884 49.4451 104.684 49.7106 104.475C52.0159 102.711 53.9134 100.47 55.2736 97.906C56.302 95.9358 56.9851 93.8039 57.2934 91.6029C57.506 90.1748 57.6137 88.733 57.6155 87.2892C57.6155 84.7993 57.4806 82.3094 57.4545 79.8152C57.4371 78.4339 57.4225 77.054 57.4109 75.6755L58.2815 76.1108L60.5451 77.2818L61.5941 77.4602L73.7301 79.5235L87.2765 81.8306L87.6856 95.76L87.8206 100.313L87.8859 102.524V102.668L93.1529 104.81L123.397 117.102Z" fill="#DE8276"/>
<path d="M87.7988 102.672C86.3027 102.93 84.7635 102.691 83.4154 101.993L57.4414 80.7597C57.411 79.776 57.3848 80.8076 57.3718 79.8239C57.3544 78.4425 57.3399 77.0626 57.3282 75.6842L58.1988 76.1195L60.4624 77.2904L61.5114 77.4689L73.6474 79.5322L87.1938 81.8393L87.603 95.7687L87.7379 100.322L87.8032 102.533V102.677L87.7988 102.672Z" fill="#A76962"/>
<path d="M101.206 63.953C100.529 64.6609 99.7872 65.3036 98.9902 65.8727C94.4632 69.1505 88.4213 70.2256 83.2587 71.9929C81.0822 72.7373 57.4806 79.4452 57.4806 80.9034C57.4806 80.5856 55.1692 78.2916 52.257 75.5058C42.2129 65.8859 38.8644 51.2078 43.7427 38.1836C48.4918 25.7038 63.6313 17.1023 76.3114 15.1131C82.3489 14.1685 89.5139 13.6418 95.09 16.5365C97.9412 18.0208 100.314 20.1842 102.49 22.5827C103.169 23.3401 103.828 24.1135 104.466 24.9028C104.74 25.2336 105.01 25.5645 105.276 25.8996C115.188 38.3491 111.675 52.9532 101.206 63.953Z" fill="url(#paint0_linear_95_9752)"/>
<path d="M101.206 63.9531C100.529 64.6609 99.7873 65.3037 98.9902 65.8728C98.8044 65.5489 98.6372 65.2146 98.4897 64.8716C97.3405 62.2598 96.7485 59.426 96.3132 56.601C95.6353 52.4897 95.1718 48.3459 94.9246 44.1864C94.5285 37.509 91.6773 34.1964 97.3492 28.9903C99.3904 27.1196 101.821 25.7251 104.466 24.9072C104.74 25.2381 105.01 25.5689 105.276 25.904C115.188 38.3491 111.675 52.9532 101.206 63.9531Z" fill="url(#paint1_linear_95_9752)"/>
<circle cx="53.1277" cy="63.4959" r="7.4" fill="#E18477"/>
<ellipse cx="55.4782" cy="63.496" rx="6.62518" ry="6.62518" fill="#A76962"/>
<path d="M56.0311 56.479C56.3924 61.2063 56.3793 66.9783 56.5056 68.6673C56.8335 72.9012 57.1585 77.1337 57.4806 81.3648L86.4016 98.2586C90.5524 99.8101 95.2027 97.9541 97.1446 93.9709C101.306 85.4478 107.983 71.9886 107.104 66.9827C105.798 59.5827 102.316 56.9709 102.316 56.9709L103.765 48.2911C105.232 39.4677 102.207 31.1144 91.8993 30.1481C89.7229 29.9479 87.2983 30.3614 86.0055 32.0982C82.5231 36.782 84.5298 42.5453 79.3019 46.8982C72.9553 52.1348 58.7952 54.4201 55.4783 50.1934C55.4783 50.1934 55.783 53.1839 56.0311 56.479Z" fill="#DE8276"/>
<path d="M77.7349 74.9442C79.8264 77.2799 82.6935 78.7784 85.8052 79.1622" stroke="#00214E"/>
<path d="M88.0165 54.394C87.9817 54.5464 93.832 70.1212 93.832 70.1212L86.0228 70.4999" stroke="#00214E"/>
<circle cx="77.3692" cy="59.8961" r="6.59906" fill="#00214E"/>
<circle cx="99.7259" cy="58.8296" r="6.59906" fill="#00214E"/>
<path d="M82.7059 60.2835L93.819 59.3346" stroke="#00214E"/>
<path d="M69.5251 51.3731C73.5547 50.5397 77.6995 50.4218 81.77 51.0249" stroke="#00214E"/>
<path d="M95.2292 51.4297C97.7169 50.85 100.281 50.6722 102.825 50.903" stroke="#00214E"/>
<path d="M123.397 117.102C94.2986 139.508 53.7113 139.328 24.8118 116.667L45.9932 106.738C47.0019 106.264 47.9701 105.708 48.8879 105.075C49.1665 104.884 49.4451 104.683 49.7106 104.475C52.0159 102.711 53.9134 100.47 55.2736 97.906C56.302 95.9357 56.9851 93.8039 57.2934 91.6029C57.6008 91.9008 57.9234 92.1827 58.2598 92.4474C60.9288 94.421 63.8254 96.0667 66.8873 97.3488C68.3738 97.9689 69.8939 98.5051 71.4405 98.955C76.0999 100.314 80.9647 100.828 85.8052 100.474C86.4755 100.422 87.1502 100.357 87.8206 100.309L87.8859 102.52V102.664L93.1529 104.805L123.397 117.102Z" fill="#00214E"/>
<path d="M75.4582 56.2657C78.1135 56.2657 78.1135 60.3488 75.4582 60.3706H75.3363C72.6766 60.3706 72.6766 56.2875 75.3363 56.2657H75.4538H75.4582Z" fill="#00214E"/>
<path d="M97.2795 55.6606C99.7432 55.6824 99.7432 59.4477 97.2795 59.4695H97.1663C94.7025 59.4695 94.7025 55.6824 97.1663 55.6606H97.2795Z" fill="#00214E"/>
<defs>
<linearGradient id="paint0_linear_95_9752" x1="41.5053" y1="80.9204" x2="111.144" y2="80.9204" gradientUnits="userSpaceOnUse">
<stop stop-color="#16243F"/>
<stop offset="1" stop-color="#6878B1"/>
</linearGradient>
<linearGradient id="paint1_linear_95_9752" x1="82.5187" y1="51.8369" x2="111.717" y2="60.1206" gradientUnits="userSpaceOnUse">
<stop stop-color="#16243F"/>
<stop offset="1" stop-color="#6878B1"/>
</linearGradient>
</defs>
</svg>
